<svg xmlns="http://www.w3.org/2000/svg" viewBox="0 0 464.13 117.18"><defs><style>.cls-1{isolation:isolate;}.cls-2{fill:#4fb3c6;}.cls-3{fill:#00996b;}.cls-4{fill:#747779;}.cls-5{fill:#dee0e2;}.cls-6{fill:#bcc0c4;}.cls-7{fill:#9da2a2;}.cls-8{fill:#7a8181;}.cls-9{fill:#c0c3c3;}.cls-12,.cls-15,.cls-19,.cls-22,.cls-30,.cls-50,.cls-52,.cls-53,.cls-9{mix-blend-mode:multiply;}.cls-10{fill:#dbdddd;}.cls-11{fill:#b1b5b5;}.cls-12{fill:#c7caca;}.cls-13{fill:#bbbfbf;}.cls-14{fill:#999;}.cls-15{fill:#c6c9c9;opacity:0.64;}.cls-16{fill:#edebec;}.cls-17{fill:#bdbdbd;}.cls-18{fill:#e5e3e4;}.cls-19{fill:#d0cdce;opacity:0.35;}.cls-20{fill:#e3e3e3;}.cls-21{fill:#cdc0b2;}.cls-22{fill:#c3c1c3;}.cls-23{fill:#7b828a;}.cls-24{fill:#d9d0c5;}.cls-25{fill:#dbdbdb;}.cls-26{fill:#d1d1d1;}.cls-27{fill:#d9d9d9;}.cls-28{fill:#dedede;}.cls-29{fill:#ccc;}.cls-30,.cls-37{fill:#898989;}.cls-30{opacity:0.65;}.cls-31{fill:#d5d6d8;}.cls-32{fill:#48c395;}.cls-33{fill:#fff;}.cls-34{fill:#332c33;}.cls-35{fill:#a1a1a1;}.cls-36{fill:#ddd;}.cls-38{fill:#00eed5;}.cls-39{fill:#242424;}.cls-40{fill:#221a22;}.cls-41,.cls-50{fill:#d8d8d8;}.cls-42{fill:#c0bec0;}.cls-43{fill:#ffcb00;}.cls-44{fill:#5e585e;mix-blend-mode:screen;opacity:0.52;}.cls-45{fill:#f4f3f4;}.cls-46{fill:#9a9a9b;}.cls-47{fill:#ff476f;}.cls-48{fill:#8d8d8d;}.cls-49{fill:#797979;}.cls-51,.cls-52,.cls-53{fill:#eaebe6;}.cls-53{opacity:0.32;}.cls-54{fill:#a8a8a8;}.cls-55{fill:#717171;}.cls-56{fill:#90beda;}.cls-57{fill:#b7d4e7;}.cls-58{fill:#006aaa;}.cls-59{fill:#635e63;}.cls-60{fill:#9d9d9d;}.cls-61{fill:#efefef;}.cls-62{fill:#ea231c;}.cls-63{fill:#eae9ea;}.cls-64{fill:#b43535;}.cls-65{fill:#c9c9c9;}.cls-66{fill:#fefcf7;}</style></defs><g class="cls-1"><g id="레이어_2" data-name="레이어 2"><rect class="cls-2" x="-5.81" y="0.14" width="470" height="102.17"/><path class="cls-3" d="M464.11,35.37c-4.72,2.21-9.56,4.29-14.88,4.35-10.28.12-21.23-9.28-30.91-4.48-4.15,2-8.41,5.27-13.08,5.94a38,38,0,0,1-19.56-2.24c-10.4-4-19.68-9.33-30.17-4.14-5.51,2.73-11.12,6.09-17.3,6.93-6.52.89-12-.53-18.12-2.76-12.19-4.46-22.69-1.42-34.61,2-6.7,1.94-13.94,2.81-20.81,1.18-5.47-1.3-10.21-8.39-22.85-4.57-5.34,1.62-10,5.26-15.52,6.38A38.23,38.23,0,0,1,203,41.24c-5.11-2.26-21.85-5.89-35,2.82-11.56,7.63-25.92-2-37.83-7.06-4.33-1.86-10.93-.77-16,4.09s-13.94,4.71-20.7,2.21a32.75,32.75,0,0,1-9.72-5.84,53.89,53.89,0,0,0-4.73-4c-1.61-.93.22-.57-1.91-.65a30.61,30.61,0,0,0-4.69.08,37.38,37.38,0,0,0-8,2.1c-5.69,2-10.91,5.6-16.76,7.47-8,2.55-16.31.83-23.34-3.53-4.54-2.82-9-7.89-14.3-8.91-6.09-1.15-12.09.74-15.75,5.19v67.81h470V35.33Z"/><rect class="cls-4" x="-5.81" y="89.56" width="470" height="27.63"/><rect class="cls-5" x="270.64" y="66.66" width="71.27" height="24.13"/><rect class="cls-6" x="269.05" y="57.1" width="72.86" height="11.72"/><rect class="cls-7" x="269.05" y="87.09" width="72.86" height="3.71"/><rect class="cls-8" x="273.74" y="70.13" width="3.25" height="3.69"/><rect class="cls-8" x="280.47" y="70.13" width="3.25" height="3.69"/><rect class="cls-8" x="273.74" y="75.8" width="3.25" height="3.69"/><rect class="cls-8" x="280.47" y="75.8" width="3.25" height="3.69"/><rect class="cls-8" x="273.74" y="81.47" width="3.25" height="3.69"/><rect class="cls-8" x="280.47" y="81.47" width="3.25" height="3.69"/><rect class="cls-8" x="329.14" y="70.13" width="3.25" height="3.69"/><rect class="cls-8" x="335.88" y="70.13" width="3.25" height="3.69"/><rect class="cls-8" x="329.14" y="75.8" width="3.25" height="3.69"/><rect class="cls-8" x="335.88" y="75.8" width="3.25" height="3.69"/><rect class="cls-8" x="329.14" y="81.47" width="3.25" height="3.69"/><rect class="cls-8" x="335.88" y="81.47" width="3.25" height="3.69"/><polygon class="cls-9" points="341.91 78.48 329.28 65.21 315.72 65.21 318.2 90.8 341.91 90.8 341.91 78.48"/><rect class="cls-10" x="288.63" y="63.53" width="35.5" height="24.64"/><path class="cls-11" d="M294.86,68.46c-1.51,0-2.74,1.78-2.74,4V84.23h5.48V72.45C297.6,70.24,296.37,68.46,294.86,68.46Z"/><path class="cls-11" d="M302.5,68.46c-1.51,0-2.74,1.78-2.74,4V84.23h5.48V72.45C305.24,70.24,304,68.46,302.5,68.46Z"/><path class="cls-11" d="M310.14,68.46c-1.51,0-2.74,1.78-2.74,4V84.23h5.48V72.45C312.88,70.24,311.66,68.46,310.14,68.46Z"/><path class="cls-11" d="M317.78,68.46c-1.51,0-2.74,1.78-2.74,4V84.23h5.48V72.45C320.52,70.24,319.3,68.46,317.78,68.46Z"/><path class="cls-12" d="M293.9,75.76c0-2.2,1.23-4,2.74-4a1.94,1.94,0,0,1,.94.25c-.15-2-1.31-3.56-2.72-3.56s-2.74,1.78-2.74,4V84.23h1.78Z"/><path class="cls-12" d="M301.55,75.76c0-2.2,1.23-4,2.74-4a1.94,1.94,0,0,1,.94.25c-.15-2-1.31-3.56-2.72-3.56s-2.74,1.78-2.74,4V84.23h1.78Z"/><path class="cls-12" d="M309.2,75.76c0-2.2,1.23-4,2.74-4a1.94,1.94,0,0,1,.94.25c-.15-2-1.31-3.56-2.72-3.56s-2.74,1.78-2.74,4V84.23h1.78Z"/><path class="cls-12" d="M316.85,75.76c0-2.2,1.23-4,2.74-4a1.94,1.94,0,0,1,.94.25c-.15-2-1.31-3.56-2.72-3.56s-2.74,1.78-2.74,4V84.23h1.78Z"/><rect class="cls-13" x="287.78" y="85.85" width="37.05" height="4.07"/><rect class="cls-14" x="286.15" y="87.88" width="40.31" height="2.92"/><rect class="cls-15" x="288.63" y="63.53" width="35.5" height="4.18"/><polygon class="cls-10" points="306.31 46.46 283.34 65.21 329.28 65.21 306.31 46.46"/><polygon class="cls-11" points="306.31 51.02 290.33 63.61 322.29 63.61 306.31 51.02"/><polygon class="cls-9" points="288.63 69.42 269.05 57.1 269.05 68.82 270.64 68.82 270.64 87.09 269.05 87.09 269.05 90.8 286.15 90.8 286.15 87.88 287.78 87.88 287.78 85.84 288.63 85.84 288.63 69.42"/><rect class="cls-16" x="223.57" y="48.28" width="9.5" height="4.44"/><rect class="cls-17" x="224.43" y="49" width="0.82" height="2.31"/><rect class="cls-17" x="226.12" y="49" width="0.82" height="2.31"/><rect class="cls-17" x="227.81" y="49" width="0.82" height="2.31"/><rect class="cls-17" x="229.5" y="49" width="0.82" height="2.31"/><rect class="cls-17" x="231.18" y="49" width="0.82" height="2.31"/><rect class="cls-14" x="222.58" y="47.13" width="11.28" height="1.32"/><rect class="cls-16" x="150.74" y="48.28" width="9.5" height="4.44"/><rect class="cls-17" x="151.61" y="49" width="0.82" height="2.31"/><rect class="cls-17" x="153.29" y="49" width="0.82" height="2.31"/><rect class="cls-17" x="154.98" y="49" width="0.82" height="2.31"/><rect class="cls-17" x="156.67" y="49" width="0.82" height="2.31"/><rect class="cls-17" x="158.36" y="49" width="0.82" height="2.31"/><rect class="cls-14" x="149.75" y="47.13" width="11.28" height="1.32"/><polygon class="cls-17" points="125.32 50.57 123.18 50.57 124.13 36.67 124.37 36.67 125.32 50.57"/><polygon class="cls-17" points="260.85 50.57 258.71 50.57 259.66 36.67 259.9 36.67 260.85 50.57"/><rect class="cls-17" x="113.9" y="52.05" width="156.36" height="34.76"/><rect class="cls-18" x="160.34" y="52.05" width="63.39" height="34.76"/><rect class="cls-19" x="113.9" y="55.61" width="156.36" height="3.57"/><rect class="cls-20" x="113.9" y="74.26" width="156.36" height="2.22"/><rect class="cls-20" x="113.9" y="52.05" width="156.36" height="5.08"/><rect class="cls-21" x="113.9" y="52.05" width="156.36" height="1.64"/><rect class="cls-16" x="179.16" y="52.99" width="25.85" height="33.81"/><rect class="cls-14" x="182.99" y="57.12" width="18.67" height="18.62"/><rect class="cls-17" x="188.18" y="57.12" width="1.99" height="18.62"/><rect class="cls-17" x="193.99" y="57.12" width="1.99" height="18.62"/><rect class="cls-17" x="199.68" y="57.12" width="1.99" height="18.62"/><rect class="cls-17" x="183.01" y="57.12" width="1.99" height="18.62"/><rect class="cls-14" x="117.47" y="52.05" width="149.22" height="2.22"/><rect class="cls-19" x="179.16" y="52.05" width="25.85" height="2.22"/><rect class="cls-18" x="113.9" y="49.43" width="20.82" height="37.37"/><rect class="cls-22" x="113.9" y="52.52" width="20.82" height="3.36"/><rect class="cls-14" x="117" y="57.12" width="15.02" height="18.62"/><rect class="cls-17" x="121.17" y="57.12" width="1.6" height="18.62"/><rect class="cls-17" x="125.85" y="57.12" width="1.6" height="18.62"/><rect class="cls-17" x="130.43" y="57.12" width="1.6" height="18.62"/><rect class="cls-17" x="117" y="57.12" width="1.6" height="18.62"/><path class="cls-17" d="M192.08,77.94a2.9,2.9,0,0,0-2.91,2.89v5.74H195V80.83A2.9,2.9,0,0,0,192.08,77.94Z"/><path class="cls-17" d="M198.68,79.72c-.79,0-1.43,1-1.43,2.3v4.55h2.87V82C200.12,80.75,199.48,79.72,198.68,79.72Z"/><path class="cls-17" d="M185.47,79.72c-.79,0-1.43,1-1.43,2.3v4.55h2.87V82C186.91,80.75,186.27,79.72,185.47,79.72Z"/><rect class="cls-17" x="260.53" y="80.14" width="2.87" height="6.44"/><rect class="cls-23" x="119.2" y="61.35" width="1.56" height="4.39"/><rect class="cls-23" x="123.53" y="61.35" width="1.56" height="4.39"/><rect class="cls-23" x="128.37" y="61.35" width="1.56" height="4.39"/><rect class="cls-23" x="119.2" y="69.18" width="1.56" height="4.39"/><rect class="cls-23" x="123.53" y="69.18" width="1.56" height="4.39"/><rect class="cls-23" x="128.37" y="69.18" width="1.56" height="4.39"/><rect class="cls-23" x="136.46" y="61.35" width="2.43" height="4.39"/><rect class="cls-23" x="136.46" y="69.18" width="2.43" height="4.39"/><rect class="cls-23" x="142.7" y="61.35" width="2.43" height="4.39"/><rect class="cls-23" x="142.7" y="69.18" width="2.43" height="4.39"/><rect class="cls-23" x="148.94" y="61.35" width="2.43" height="4.39"/><rect class="cls-23" x="148.94" y="69.18" width="2.43" height="4.39"/><rect class="cls-23" x="155.18" y="61.35" width="2.43" height="4.39"/><rect class="cls-23" x="155.18" y="69.18" width="2.43" height="4.39"/><rect class="cls-23" x="161.42" y="61.35" width="2.43" height="4.39"/><rect class="cls-23" x="161.42" y="69.18" width="2.43" height="4.39"/><rect class="cls-23" x="167.66" y="61.35" width="2.43" height="4.39"/><rect class="cls-23" x="167.66" y="69.18" width="2.43" height="4.39"/><rect class="cls-23" x="173.9" y="61.35" width="2.43" height="4.39"/><rect class="cls-23" x="173.9" y="69.18" width="2.43" height="4.39"/><rect class="cls-23" x="245.27" y="61.35" width="2.43" height="4.39"/><rect class="cls-23" x="245.27" y="69.18" width="2.43" height="4.39"/><rect class="cls-23" x="239.03" y="61.35" width="2.43" height="4.39"/><rect class="cls-23" x="239.03" y="69.18" width="2.43" height="4.39"/><rect class="cls-23" x="232.79" y="61.35" width="2.43" height="4.39"/><rect class="cls-23" x="232.79" y="69.18" width="2.43" height="4.39"/><rect class="cls-23" x="226.55" y="61.35" width="2.43" height="4.39"/><rect class="cls-23" x="226.55" y="69.18" width="2.43" height="4.39"/><rect class="cls-23" x="220.31" y="61.35" width="2.43" height="4.39"/><rect class="cls-23" x="220.31" y="69.18" width="2.43" height="4.39"/><rect class="cls-23" x="214.07" y="61.35" width="2.43" height="4.39"/><rect class="cls-23" x="214.07" y="69.18" width="2.43" height="4.39"/><rect class="cls-23" x="207.83" y="61.35" width="2.43" height="4.39"/><rect class="cls-23" x="207.83" y="69.18" width="2.43" height="4.39"/><rect class="cls-17" x="122.87" y="80.14" width="2.87" height="6.44"/><rect class="cls-17" x="123.31" y="77.49" width="2" height="1.59"/><rect class="cls-17" x="116.8" y="77.49" width="2" height="1.59"/><rect class="cls-17" x="116.8" y="80.14" width="2" height="3.54"/><rect class="cls-17" x="130.23" y="77.49" width="2" height="1.59"/><rect class="cls-17" x="130.23" y="80.14" width="2" height="3.54"/><rect class="cls-23" x="137.24" y="77.49" width="2" height="1.59"/><rect class="cls-23" x="137.24" y="80.14" width="2" height="3.54"/><rect class="cls-23" x="143.48" y="77.49" width="2" height="1.59"/><rect class="cls-23" x="143.48" y="80.14" width="2" height="3.54"/><rect class="cls-23" x="149.72" y="77.49" width="2" height="1.59"/><rect class="cls-23" x="149.72" y="80.14" width="2" height="3.54"/><rect class="cls-23" x="155.39" y="77.49" width="2" height="1.59"/><rect class="cls-23" x="155.39" y="80.14" width="2" height="3.54"/><rect class="cls-23" x="162.56" y="77.49" width="2" height="1.59"/><rect class="cls-23" x="162.56" y="80.14" width="2" height="3.54"/><rect class="cls-23" x="168.44" y="77.49" width="2" height="1.59"/><rect class="cls-23" x="168.44" y="80.14" width="2" height="3.54"/><rect class="cls-23" x="174.33" y="77.49" width="2" height="1.59"/><rect class="cls-23" x="174.33" y="80.14" width="2" height="3.54"/><rect class="cls-23" x="244.92" y="77.49" width="2" height="1.59"/><rect class="cls-23" x="244.92" y="80.14" width="2" height="3.54"/><rect class="cls-23" x="238.68" y="77.49" width="2" height="1.59"/><rect class="cls-23" x="238.68" y="80.14" width="2" height="3.54"/><rect class="cls-23" x="232.44" y="77.49" width="2" height="1.59"/><rect class="cls-23" x="232.44" y="80.14" width="2" height="3.54"/><rect class="cls-23" x="226.77" y="77.49" width="2" height="1.59"/><rect class="cls-23" x="226.77" y="80.14" width="2" height="3.54"/><rect class="cls-23" x="219.6" y="77.49" width="2" height="1.59"/><rect class="cls-23" x="219.6" y="80.14" width="2" height="3.54"/><rect class="cls-23" x="213.72" y="77.49" width="2" height="1.59"/><rect class="cls-23" x="213.72" y="80.14" width="2" height="3.54"/><rect class="cls-23" x="207.83" y="77.49" width="2" height="1.59"/><rect class="cls-23" x="207.83" y="80.14" width="2" height="3.54"/><rect class="cls-24" x="249.44" y="49.43" width="20.82" height="37.37"/><rect class="cls-18" x="249.44" y="49.43" width="20.82" height="37.37"/><rect class="cls-22" x="249.44" y="52.52" width="20.82" height="3.36"/><rect class="cls-17" x="261.39" y="57.12" width="1.6" height="18.62"/><rect class="cls-17" x="256.71" y="57.12" width="1.6" height="18.62"/><rect class="cls-17" x="252.13" y="57.12" width="1.6" height="18.62"/><rect class="cls-17" x="265.55" y="57.12" width="1.6" height="18.62"/><rect class="cls-23" x="263.4" y="61.35" width="1.56" height="4.39"/><rect class="cls-23" x="259.07" y="61.35" width="1.56" height="4.39"/><rect class="cls-23" x="254.24" y="61.35" width="1.56" height="4.39"/><rect class="cls-23" x="263.4" y="69.18" width="1.56" height="4.39"/><rect class="cls-23" x="259.07" y="69.18" width="1.56" height="4.39"/><rect class="cls-23" x="254.24" y="69.18" width="1.56" height="4.39"/><rect class="cls-17" x="258.34" y="80.14" width="2.87" height="6.44"/><rect class="cls-17" x="258.98" y="77.49" width="1.6" height="1.59"/><rect class="cls-17" x="265.35" y="77.49" width="2" height="1.59"/><rect class="cls-17" x="265.35" y="80.14" width="2" height="3.54"/><rect class="cls-17" x="251.93" y="77.49" width="2" height="1.59"/><rect class="cls-17" x="251.93" y="80.14" width="2" height="3.54"/><rect class="cls-23" x="185.65" y="61.35" width="1.94" height="4.39"/><rect class="cls-23" x="191.11" y="61.35" width="1.94" height="4.39"/><rect class="cls-23" x="196.79" y="61.35" width="1.94" height="4.39"/><rect class="cls-23" x="185.65" y="68.95" width="1.94" height="4.39"/><rect class="cls-23" x="191.11" y="68.95" width="1.94" height="4.39"/><rect class="cls-23" x="196.79" y="68.95" width="1.94" height="4.39"/><rect class="cls-14" x="113.28" y="86.57" width="157.68" height="4.23"/><rect class="cls-25" x="191.59" y="17.22" width="0.97" height="5.23"/><path class="cls-26" d="M196,29.77a1.43,1.43,0,0,0,.14-.61c0-1.28-1.84-2.32-4.1-2.32s-4.1,1-4.1,2.32a1.43,1.43,0,0,0,.14.61Z"/><rect class="cls-26" x="190.85" y="23.8" width="2.46" height="4.22"/><rect class="cls-18" x="179" y="44.12" width="26.16" height="7.93"/><rect class="cls-27" x="179" y="50.32" width="26.16" height="1.73"/><rect class="cls-27" x="179" y="44.12" width="26.16" height="1.73"/><rect class="cls-17" x="180.19" y="46.56" width="1.26" height="3.1"/><rect class="cls-17" x="182.25" y="46.56" width="1.26" height="3.1"/><rect class="cls-17" x="184.31" y="46.56" width="1.26" height="3.1"/><rect class="cls-17" x="186.38" y="46.56" width="1.26" height="3.1"/><rect class="cls-17" x="188.44" y="46.56" width="1.26" height="3.1"/><rect class="cls-17" x="190.5" y="46.56" width="1.26" height="3.1"/><rect class="cls-17" x="192.57" y="46.56" width="1.26" height="3.1"/><rect class="cls-17" x="194.63" y="46.56" width="1.26" height="3.1"/><rect class="cls-17" x="196.69" y="46.56" width="1.26" height="3.1"/><rect class="cls-17" x="198.76" y="46.56" width="1.26" height="3.1"/><rect class="cls-17" x="200.82" y="46.56" width="1.26" height="3.1"/><rect class="cls-17" x="202.88" y="46.56" width="1.26" height="3.1"/><rect class="cls-18" x="181.85" y="37.92" width="20.46" height="6.2"/><rect class="cls-27" x="181.85" y="42.77" width="20.46" height="1.35"/><rect class="cls-27" x="181.85" y="37.92" width="20.46" height="1.35"/><rect class="cls-17" x="182.78" y="39.83" width="0.99" height="2.42"/><rect class="cls-17" x="184.39" y="39.83" width="0.99" height="2.42"/><rect class="cls-17" x="186.01" y="39.83" width="0.99" height="2.42"/><rect class="cls-17" x="187.62" y="39.83" width="0.99" height="2.42"/><rect class="cls-17" x="189.23" y="39.83" width="0.99" height="2.42"/><rect class="cls-17" x="190.85" y="39.83" width="0.99" height="2.42"/><rect class="cls-17" x="192.46" y="39.83" width="0.99" height="2.42"/><rect class="cls-17" x="194.07" y="39.83" width="0.99" height="2.42"/><rect class="cls-17" x="195.69" y="39.83" width="0.99" height="2.42"/><rect class="cls-17" x="197.3" y="39.83" width="0.99" height="2.42"/><rect class="cls-17" x="198.92" y="39.83" width="0.99" height="2.42"/><rect class="cls-17" x="200.53" y="39.83" width="0.99" height="2.42"/><path class="cls-18" d="M202.48,37.92a6,6,0,0,0,.15-2.11c-.47-4.16-5.18-7.27-10.55-7.27S182,31.65,181.53,35.81a6,6,0,0,0,.15,2.11Z"/><path class="cls-27" d="M181.5,36.58a6.09,6.09,0,0,0,.18,1.34h20.8a6.09,6.09,0,0,0,.18-1.34Z"/><path class="cls-28" d="M190.41,23.89h3.34a.78.78,0,0,0,.2-.48c0-.6-.84-1.09-1.87-1.09s-1.87.49-1.87,1.09A.73.73,0,0,0,190.41,23.89Z"/><path class="cls-28" d="M193.17,17.53a1.1,1.1,0,1,1-1.09-1A1,1,0,0,1,193.17,17.53Z"/><path class="cls-28" d="M193.17,20.43a1.1,1.1,0,1,1-1.09-1A1,1,0,0,1,193.17,20.43Z"/><rect class="cls-18" x="190.41" y="23.84" width="3.35" height="0.57"/><rect class="cls-29" x="96.5" y="49.05" width="2.54" height="39.4"/><rect class="cls-30" x="96.5" y="49.05" width="2.54" height="17.09"/><rect class="cls-31" x="84.18" y="34.97" width="27.18" height="27.18" rx="2.59"/><rect class="cls-32" x="86.03" y="36.81" width="23.49" height="23.49" rx="2.24"/><path class="cls-33" d="M99,56.63a.75.75,0,0,0,.7.8h.59a.75.75,0,0,0,.69-.8v-.42H99Z"/><path class="cls-33" d="M90.8,56.63a.75.75,0,0,0,.69.8h.59a.75.75,0,0,0,.69-.8v-.42h-2Z"/><path class="cls-33" d="M101.1,50.62h0a29.11,29.11,0,0,0-1.82-4.16c-.43-.44-3.33-.37-3.33-.37s-2.9-.07-3.33.37a30.82,30.82,0,0,0-1.82,4.16,1.14,1.14,0,0,0-1.11,1.14v2.79a1.14,1.14,0,0,0,1.12,1.14h10.3a1.14,1.14,0,0,0,1.15-1.14V51.76A1.14,1.14,0,0,0,101.1,50.62ZM92,54.92H90.75V54.5H92Zm-.63-1.41a1,1,0,1,1,1-.95A.95.95,0,0,1,91.38,53.51Zm7.32-1.07c0,.84-2.77,1.06-2.77,1.06s-2.76-.22-2.76-1.06V51.6H98.7Zm-2.76-1.75H91.57a28.25,28.25,0,0,1,1.56-3.57c.36-.37,2.81-.31,2.81-.31s2.45-.06,2.81.31a26.86,26.86,0,0,1,1.56,3.57ZM101,54.92H99.76V54.5H101Zm-.72-1.41a1,1,0,1,1,1-.95A.95.95,0,0,1,100.3,53.51Z"/><path class="cls-33" d="M106.49,46.19v-.88c0-.06,0-.1-.12-.1s-.13,0-.13.1v.88h-.63v-.88c0-.06-.06-.1-.13-.1s-.12,0-.12.1v.88h-.55v1.19a1.12,1.12,0,1,0,2.23,0V46.19Z"/><polygon class="cls-33" points="105.66 53.4 102.59 53.4 102.59 53.94 106.14 53.94 106.14 48.97 105.66 48.97 105.66 53.4"/><path class="cls-33" d="M94,43.15V39.36h3.27v.91h-2v.52h1.76v.87H95.17v.58h2.09v.91Z"/><path class="cls-33" d="M100.36,43.15H99l-1.34-3.79h1.3l.76,2.53h0l.76-2.53h1.25Z"/><rect class="cls-34" x="93.75" y="88.45" width="8.05" height="2.18" rx="0.92"/><path class="cls-35" d="M34.73,68.07c-.88.92-1.82,2-3.2,2-2,0-3.37-2.11-4.12-3.91v23H36.1V66.6C35.68,67.1,35.2,67.57,34.73,68.07Z"/><polygon class="cls-35" points="27.68 56.36 27.68 67.32 31.75 70.3 35.82 67.32 35.82 56.36 27.68 56.36"/><path class="cls-36" d="M34.73,68.07c-.88.92-1.81,2-3.19,2V89.15h3.75V67.48Z"/><polygon class="cls-36" points="34.69 56.36 31.54 56.36 31.54 70.14 31.75 70.3 34.69 68.14 34.69 56.36"/><path class="cls-37" d="M32.43,69.9a2.84,2.84,0,0,1-.5.06.46.46,0,0,1-.27.07l-.13,0a1.53,1.53,0,0,1-.94-.27A3.28,3.28,0,0,1,30,69.4V89.15h3.6V69.26A2.07,2.07,0,0,1,32.43,69.9Z"/><polygon class="cls-37" points="30.46 56.36 30.46 69.26 31.75 70.3 33.05 69.26 33.05 56.36 30.46 56.36"/><rect class="cls-38" x="27.68" y="56.36" width="8.14" height="1.55"/><path class="cls-34" d="M36.13,66.12a.19.19,0,0,0-.36-.09c-.83,1.58-2.32,3.06-4,3.06s-3.18-1.48-4-3a.19.19,0,0,0-.36.09v1C28.08,69,29.77,71,31.75,71s3.68-2,4.38-3.84Z"/><path class="cls-38" d="M32.79,63.24a1,1,0,1,1-1-1A1,1,0,0,1,32.79,63.24Z"/><path class="cls-34" d="M32.36,63.24a.61.61,0,1,1-.61-.61A.6.6,0,0,1,32.36,63.24Z"/><circle class="cls-34" cx="31.75" cy="87.49" r="0.35"/><rect class="cls-34" x="27.02" y="88.73" width="9.47" height="0.84"/><path class="cls-35" d="M62.77,68.07c-.88.92-1.82,2-3.2,2-2,0-3.37-2.11-4.12-3.91v23h8.69V66.6C63.72,67.1,63.24,67.57,62.77,68.07Z"/><polygon class="cls-35" points="55.73 56.36 55.73 67.32 59.8 70.3 63.87 67.32 63.87 56.36 55.73 56.36"/><path class="cls-36" d="M62.77,68.07c-.88.92-1.81,2-3.19,2V89.15h3.75V67.48C63.15,67.68,63,67.87,62.77,68.07Z"/><polygon class="cls-36" points="62.73 56.36 59.58 56.36 59.58 70.14 59.8 70.3 62.73 68.14 62.73 56.36"/><path class="cls-37" d="M60.47,69.9A2.73,2.73,0,0,1,60,70a.44.44,0,0,1-.27.07l-.13,0a1.53,1.53,0,0,1-.94-.27A2.94,2.94,0,0,1,58,69.4V89.15h3.59V69.26A2,2,0,0,1,60.47,69.9Z"/><polygon class="cls-37" points="58.5 56.36 58.5 69.26 59.8 70.3 61.09 69.26 61.09 56.36 58.5 56.36"/><rect class="cls-38" x="55.72" y="56.36" width="8.14" height="1.55"/><path class="cls-34" d="M64.17,66.12a.19.19,0,0,0-.36-.09c-.83,1.58-2.32,3.06-4,3.06s-3.19-1.48-4-3a.19.19,0,0,0-.36.09v1C56.12,69,57.82,71,59.8,71s3.67-2,4.37-3.84Z"/><path class="cls-38" d="M60.83,63.24a1,1,0,0,1-2.07,0,1,1,0,1,1,2.07,0Z"/><path class="cls-34" d="M60.4,63.24a.61.61,0,1,1-.6-.61A.6.6,0,0,1,60.4,63.24Z"/><path class="cls-34" d="M60.14,87.49a.35.35,0,1,1-.69,0,.35.35,0,0,1,.69,0Z"/><rect class="cls-34" x="55.06" y="88.73" width="9.47" height="0.84"/><path class="cls-39" d="M40.6,92.11s-1,1.53.59,1.53H87.64c1,0,1.46-1.64.37-1.92S41.87,91.68,40.6,92.11Z"/><path class="cls-40" d="M41.47,92.11H57.2s-2.77-10-8.56-8.52S41,88.23,41.47,92.11Z"/><path class="cls-40" d="M75.39,92.11H88s.38-10-5.41-8.52S75,88.23,75.39,92.11Z"/><path class="cls-41" d="M88.54,92.11a39.1,39.1,0,0,0-.33-9.77c-.5-2.74-1.07-5.44-3.59-6.63-6.68-3.13-22.86-1.39-27,0s-16.61,8-17.44,11.68a8.87,8.87,0,0,0,.34,4.72h2.16s-.91-5.77,6.53-5.77c0,0,5.63,0,5.63,5.77H77.53s-.84-5.75,4.86-5.75c0,0,5.36-.23,4.87,5.75Z"/><circle class="cls-34" cx="48.64" cy="92.11" r="4.45"/><circle class="cls-42" cx="48.64" cy="92.11" r="2.73"/><circle class="cls-34" cx="82.39" cy="92.11" r="4.45"/><circle class="cls-42" cx="82.39" cy="92.11" r="2.73"/><path class="cls-43" d="M72,87.11a3.57,3.57,0,1,1-3.56-3.56A3.56,3.56,0,0,1,72,87.11Z"/><polygon class="cls-34" points="67.87 87.11 69.4 84.94 68.05 84.94 67.08 87.84 68.95 87.32 68.37 88.67 68.14 88.33 68.08 89.58 69 88.73 68.59 88.77 70.07 86.48 67.87 87.11"/><path class="cls-34" d="M48.64,82.58s8-4.92,11.84-5.73,18.86-1.46,21.18,0a6.51,6.51,0,0,1,2.63,4.45Z"/><path class="cls-44" d="M83.63,79.13a5.49,5.49,0,0,0-2-2.28c-2.32-1.46-17.32-.81-21.18,0A33.28,33.28,0,0,0,53.19,80c1.1,0,6.12-1.17,7.19-1.34C73.74,76.45,83.07,79,83.63,79.13Z"/><path class="cls-34" d="M44.11,83.34A10.34,10.34,0,0,0,43,84a18.54,18.54,0,0,0-1.77,1.71s2.82.19,4-.65a1.66,1.66,0,0,0,.63-1.47.61.61,0,0,0-.71-.57A5,5,0,0,0,44.11,83.34Z"/><path class="cls-45" d="M43.69,83.57a7.3,7.3,0,0,0-.83.47,13.81,13.81,0,0,0-1.27,1.23,5.91,5.91,0,0,0,2.89-.47,1.18,1.18,0,0,0,.46-1,.44.44,0,0,0-.51-.41A3.1,3.1,0,0,0,43.69,83.57Z"/><polygon class="cls-41" points="68.6 75.69 67.15 82.17 68.6 82.17 69.69 75.69 68.6 75.69"/><rect class="cls-34" x="79.11" y="82.6" width="3.28" height="0.72"/><rect class="cls-34" x="62.05" y="82.96" width="3.28" height="0.72"/><path class="cls-36" d="M51.37,92.05a2.73,2.73,0,1,1-2.78-2.67A2.73,2.73,0,0,1,51.37,92.05Z"/><path class="cls-45" d="M49.8,92.13a1.22,1.22,0,1,1-1.24-1.19A1.22,1.22,0,0,1,49.8,92.13Z"/><path class="cls-46" d="M47.64,91.06l.5-1.33a2.43,2.43,0,0,0-1.79,1.65Z"/><path class="cls-46" d="M49.3,90.89l1.48.07a2.39,2.39,0,0,0-2.17-1.28h-.06Z"/><path class="cls-46" d="M47.29,92.69l-1-.82a1.22,1.22,0,0,0,0,.27,2.38,2.38,0,0,0,1,1.87Z"/><path class="cls-46" d="M50,92.42l.38,1.38A2.42,2.42,0,0,0,51.07,92a2.76,2.76,0,0,0-.14-.76Z"/><path class="cls-46" d="M48.73,93.53l-1.11.74a2.43,2.43,0,0,0,2.43-.21Z"/><path class="cls-36" d="M85.12,92.06a2.73,2.73,0,1,1-5.45.1,2.73,2.73,0,0,1,5.45-.1Z"/><path class="cls-45" d="M83.54,92.13a1.21,1.21,0,1,1-2.42.05,1.22,1.22,0,0,1,1.19-1.24A1.21,1.21,0,0,1,83.54,92.13Z"/><path class="cls-46" d="M81.39,91.07l.5-1.33a2.42,2.42,0,0,0-1.79,1.65Z"/><path class="cls-46" d="M83.05,90.9l1.48.06a2.42,2.42,0,0,0-2.17-1.28H82.3Z"/><path class="cls-46" d="M81,92.7l-1-.83c0,.09,0,.18,0,.27A2.42,2.42,0,0,0,81,94Z"/><path class="cls-46" d="M83.73,92.42l.38,1.38a2.41,2.41,0,0,0,.71-1.75,2.69,2.69,0,0,0-.14-.76Z"/><path class="cls-46" d="M82.48,93.54l-1.11.73a2.44,2.44,0,0,0,1.08.24,2.5,2.5,0,0,0,1.35-.44Z"/><path class="cls-47" d="M88.49,84.45a12.3,12.3,0,0,1,.16,1.73c-.15.27-2.26,0-2.26,0s-1.56-1.63-1.39-1.9S88.49,84.45,88.49,84.45Z"/><path class="cls-48" d="M58.07,91.6a2.27,2.27,0,0,1-2.21-1.8l-1.34-6.31.5-.1,1.33,6.31a1.74,1.74,0,0,0,1.76,1.39L74,90.74a1.43,1.43,0,0,0,1.33-1c.57-1.82,2.24-4.86,7.08-4.86h.16A1.47,1.47,0,0,0,84,83.52c0-.48,0-.93,0-1.35h.5a13.11,13.11,0,0,1,0,1.39,2,2,0,0,1-1.94,1.84c-4.65-.08-6.23,2.79-6.76,4.5A1.92,1.92,0,0,1,74,91.24l-15.9.36Z"/><path class="cls-49" d="M87,81.61a1.12,1.12,0,1,1-1.12-1.12A1.12,1.12,0,0,1,87,81.61Z"/><path class="cls-43" d="M86.59,81.61a.67.67,0,1,1-1.34,0,.67.67,0,0,1,1.34,0Z"/><path class="cls-43" d="M98.8,69.12H64.14V70H98.8a1.45,1.45,0,0,1,1.43,1.48v19a1.39,1.39,0,0,1-1.4,1.4H94.4A1.4,1.4,0,0,1,93,90.49l0-7a2.29,2.29,0,0,0-2.28-2.26H85.92v.87H90.7a1.4,1.4,0,0,1,1.4,1.4l0,7a2.27,2.27,0,0,0,2.27,2.27h4.43a2.28,2.28,0,0,0,2.28-2.28v-19A2.33,2.33,0,0,0,98.8,69.12Z"/><polygon class="cls-41" points="397.35 91.03 392.6 91.03 393.99 51.99 395.95 51.99 397.35 91.03"/><polygon class="cls-50" points="396.09 55.83 395.95 51.99 393.99 51.99 393.8 57.46 396.09 55.83"/><path class="cls-37" d="M396.43,51.36A1.46,1.46,0,1,1,395,49.9,1.45,1.45,0,0,1,396.43,51.36Z"/><path class="cls-51" d="M395.8,32.34a1.37,1.37,0,0,0-.75-1.12h0s0,0,0,0c-.42,1-1.89,16-2.07,17.75a.38.38,0,0,0,.11.3l1.12,1.14a.36.36,0,0,0,.26.11h1.08a.36.36,0,0,0,.26-.11l1.13-1.14A.44.44,0,0,0,397,49C396.89,47.28,395.9,33.44,395.8,32.34Z"/><path class="cls-51" d="M378.12,60.21a1.36,1.36,0,0,0-.59,1.22v0s0,0,0,0c1.1-.14,14.79-6.35,16.41-7.08a.4.4,0,0,0,.2-.24l.43-1.54a.42.42,0,0,0,0-.29l-.54-.93a.37.37,0,0,0-.22-.17l-1.56-.41a.4.4,0,0,0-.3.06C390.51,51.81,379,59.57,378.12,60.21Z"/><path class="cls-51" d="M411.43,61.13a1.39,1.39,0,0,0,1.35-.14h0c-.7-.85-13.2-9.2-14.68-10.19a.39.39,0,0,0-.31-.05l-1.54.45a.43.43,0,0,0-.22.18l-.51,1a.41.41,0,0,0,0,.29l.47,1.53a.43.43,0,0,0,.21.23C397.75,55,410.41,60.7,411.43,61.13Z"/><path class="cls-52" d="M398.14,50.78a.39.39,0,0,0-.31-.05l-1.42.42a1.42,1.42,0,0,0-.51-.9l1-1A.44.44,0,0,0,397,49c-.12-1.67-1.11-15.51-1.21-16.61a1.37,1.37,0,0,0-.75-1.12h0s0,0,0,0c-.42,1-1.89,16-2.07,17.75a.38.38,0,0,0,.11.3l1,1a1.43,1.43,0,0,0-.5.91l-1.34-.35a.4.4,0,0,0-.3.06c-1.39.94-12.87,8.7-13.78,9.34a1.36,1.36,0,0,0-.59,1.22v0s0,0,0,0c1.09-.14,14.68-6.3,16.39-7.07L392.6,91h4.75L396,54.16a.37.37,0,0,0,.19.2c1.53.68,14.19,6.34,15.21,6.77a1.39,1.39,0,0,0,1.35-.14h0C412.12,60.12,399.62,51.77,398.14,50.78Z"/><polygon class="cls-41" points="380.46 91.03 375.06 91.03 376.64 46.61 378.88 46.61 380.46 91.03"/><polygon class="cls-50" points="379.03 50.98 378.88 46.61 376.64 46.61 376.42 52.83 379.03 50.98"/><circle class="cls-37" cx="377.76" cy="45.89" r="1.66"/><path class="cls-51" d="M378.71,24.24a1.58,1.58,0,0,0-.87-1.27h0s0,0,0,0c-.48,1.16-2.15,18.18-2.35,20.2a.42.42,0,0,0,.12.34l1.27,1.29a.44.44,0,0,0,.31.13h1.22a.43.43,0,0,0,.3-.13l1.28-1.3a.38.38,0,0,0,.12-.32C379.94,41.24,378.82,25.5,378.71,24.24Z"/><path class="cls-51" d="M358.58,56a1.57,1.57,0,0,0-.67,1.39v0c1.25-.17,16.83-7.23,18.67-8.07a.39.39,0,0,0,.23-.27l.49-1.75a.44.44,0,0,0,0-.32l-.62-1.06a.41.41,0,0,0-.26-.2l-1.76-.46a.41.41,0,0,0-.34.06C372.69,46.4,359.61,55.24,358.58,56Z"/><path class="cls-51" d="M396.49,57a1.56,1.56,0,0,0,1.53-.16l0,0h0c-.8-1-15-10.48-16.71-11.6a.44.44,0,0,0-.35-.06l-1.75.52a.42.42,0,0,0-.25.2L378.43,47a.44.44,0,0,0,0,.32l.54,1.74a.42.42,0,0,0,.23.26C380.92,50.08,395.33,56.51,396.49,57Z"/><path class="cls-53" d="M381.36,45.23a.44.44,0,0,0-.35-.06l-1.62.48a1.69,1.69,0,0,0-.57-1L380,43.47a.38.38,0,0,0,.12-.32c-.13-1.91-1.25-17.65-1.37-18.91a1.55,1.55,0,0,0-.86-1.27h0s0,0,0,0c-.48,1.16-2.15,18.18-2.35,20.2a.42.42,0,0,0,.12.34l1.13,1.14a1.62,1.62,0,0,0-.57,1l-1.52-.39a.41.41,0,0,0-.34.06c-1.58,1.07-14.66,9.91-15.69,10.63a1.57,1.57,0,0,0-.67,1.39v0c1.24-.17,16.7-7.17,18.65-8.06L375.06,91h5.4L379,49.08a.41.41,0,0,0,.21.22c1.75.78,16.16,7.21,17.32,7.71a1.56,1.56,0,0,0,1.53-.16l0,0h0C397.27,55.86,383.05,46.35,381.36,45.23Z"/><polygon class="cls-41" points="356.86 91.03 350.93 91.03 352.67 42.31 355.12 42.31 356.86 91.03"/><polygon class="cls-50" points="355.29 47.09 355.12 42.31 352.67 42.31 352.43 49.12 355.29 47.09"/><path class="cls-37" d="M355.71,41.51a1.82,1.82,0,1,1-1.81-1.81A1.81,1.81,0,0,1,355.71,41.51Z"/><path class="cls-51" d="M354.93,17.77a1.72,1.72,0,0,0-.94-1.4h0s0,0,0,0c-.52,1.27-2.36,19.94-2.58,22.16a.5.5,0,0,0,.13.37l1.4,1.42a.47.47,0,0,0,.33.14h1.35a.47.47,0,0,0,.33-.14l1.4-1.43a.45.45,0,0,0,.13-.35C356.28,36.42,355.06,19.15,354.93,17.77Z"/><path class="cls-51" d="M332.86,52.56a1.71,1.71,0,0,0-.74,1.52v0s0,0,0,0c1.37-.18,18.46-7.93,20.49-8.85a.45.45,0,0,0,.25-.3l.53-1.92a.43.43,0,0,0-.05-.35l-.67-1.17a.46.46,0,0,0-.28-.21l-1.94-.51a.44.44,0,0,0-.37.07C348.33,42.07,334,51.77,332.86,52.56Z"/><path class="cls-51" d="M374.44,53.71a1.71,1.71,0,0,0,1.68-.17l0,0h0c-.88-1.06-16.47-11.49-18.33-12.72a.43.43,0,0,0-.38-.06l-1.91.56a.49.49,0,0,0-.28.23l-.63,1.19a.43.43,0,0,0,0,.35l.6,1.91a.48.48,0,0,0,.25.29C357.36,46.11,373.17,53.17,374.44,53.71Z"/><rect class="cls-54" x="424.57" y="60.04" width="1.51" height="30.98"/><rect class="cls-55" x="423.68" y="89.78" width="3.29" height="1.25"/><rect class="cls-54" x="399.14" y="66.93" width="1.51" height="24.1"/><rect class="cls-55" x="398.25" y="89.78" width="3.29" height="1.25"/><rect class="cls-54" x="386.3" y="73.7" width="1.51" height="17.33"/><rect class="cls-55" x="385.41" y="89.78" width="3.29" height="1.25"/><rect class="cls-54" x="407.89" y="73.7" width="1.51" height="17.33"/><rect class="cls-55" x="407" y="89.78" width="3.29" height="1.25"/><path class="cls-56" d="M398.58,57.81,382,75.39a.67.67,0,0,0,.49,1.13h28.65a3.19,3.19,0,0,0,2.32-1L430,58a.68.68,0,0,0-.49-1.14H400.9A3.21,3.21,0,0,0,398.58,57.81Z"/><path class="cls-57" d="M419,57.64a3.13,3.13,0,0,1-.82.84l-.17.21a14.66,14.66,0,0,1-1.82,1.73,1.64,1.64,0,0,1-.54.3c-1.12,1.48-2.41,2.79-3.55,4.23a42.78,42.78,0,0,1-3.56,3.67,8.6,8.6,0,0,1-.94,1A23.7,23.7,0,0,0,406,71.4a9.49,9.49,0,0,1-.71.64l-.33.35-.06.07c-.3.41-.6.83-.92,1.19s-.71.77-1.09,1.13h0c-.1.09-.91.83-.77.6a1.63,1.63,0,0,1-.11.17h10.15l16.69-17.88Z"/><path class="cls-56" d="M419,57.64a3.13,3.13,0,0,1-.82.84l-.17.21a14.66,14.66,0,0,1-1.82,1.73,1.64,1.64,0,0,1-.54.3c-1.12,1.48-2.41,2.79-3.55,4.23-.33.41-.68.8-1,1.17h0l8-8.48Z"/><path class="cls-56" d="M410.21,67c-.54.54-1.09,1-1.63,1.58a7.91,7.91,0,0,1-.94,1A23.7,23.7,0,0,0,406,71.4a9.49,9.49,0,0,1-.71.64l-.33.35-.06.07c-.3.41-.6.83-.92,1.19s-.71.77-1.09,1.13h0c-.1.09-.91.83-.77.6a1.63,1.63,0,0,1-.11.17h.33l8-8.52Z"/><polygon class="cls-56" points="420.92 66.14 428.87 57.67 419.87 57.64 411.89 66.12 420.92 66.14"/><polygon class="cls-58" points="420.88 65.77 428.14 58.03 419.91 58.01 412.62 65.76 420.88 65.77"/><polygon class="cls-56" points="414.68 65.92 422.35 57.77 422.04 57.77 414.37 65.92 414.68 65.92"/><polygon class="cls-56" points="416.71 65.93 424.37 57.78 424.06 57.78 416.39 65.93 416.71 65.93"/><path class="cls-56" d="M426.56,60l.37-.39-8.65,0a3.78,3.78,0,0,1-.4.4Z"/><path class="cls-56" d="M424.54,62.1l.38-.4-8.66,0a3.78,3.78,0,0,1-.4.4Z"/><path class="cls-56" d="M422.53,64.16l.37-.4-8.67,0a3.71,3.71,0,0,1-.39.4Z"/><polygon class="cls-56" points="418.73 65.93 426.39 57.78 426.08 57.78 418.42 65.93 418.73 65.93"/><polygon class="cls-56" points="412.18 75.55 420.16 67.05 411.12 67.04 403.11 75.55 412.18 75.55"/><polygon class="cls-58" points="412.13 75.18 419.43 67.42 411.17 67.4 403.85 75.18 412.13 75.18"/><polygon class="cls-56" points="405.92 75.34 413.62 67.16 413.3 67.16 405.61 75.34 405.92 75.34"/><polygon class="cls-56" points="407.95 75.34 415.64 67.17 415.33 67.16 407.64 75.34 407.95 75.34"/><path class="cls-56" d="M417.84,69.43l.37-.4h-8.68a2.52,2.52,0,0,1-.4.4Z"/><path class="cls-56" d="M415.81,71.5l.38-.4H407.5a3,3,0,0,1-.4.4Z"/><path class="cls-56" d="M413.79,73.56l.38-.4h-8.7a3.78,3.78,0,0,1-.4.4Z"/><polygon class="cls-56" points="409.98 75.34 417.67 67.17 417.35 67.17 409.67 75.34 409.98 75.34"/><polygon class="cls-57" points="400.31 57.58 383.44 75.55 402.41 75.55 419.17 57.64 400.31 57.58"/><polygon class="cls-56" points="401.37 66.11 409.38 57.61 400.31 57.58 392.27 66.09 401.37 66.11"/><polygon class="cls-58" points="401.32 65.74 408.65 57.97 400.36 57.95 393.01 65.72 401.32 65.74"/><polygon class="cls-56" points="395.09 65.89 402.81 57.71 402.5 57.71 394.77 65.89 395.09 65.89"/><polygon class="cls-56" points="397.13 65.89 404.85 57.72 404.53 57.72 396.81 65.89 397.13 65.89"/><path class="cls-56" d="M407.05,60l.38-.4-8.72,0a3.71,3.71,0,0,1-.39.4Z"/><path class="cls-56" d="M405,62.05l.38-.4-8.72,0a3,3,0,0,1-.4.4Z"/><path class="cls-56" d="M403,64.12l.37-.4-8.72,0a3.78,3.78,0,0,1-.4.4Z"/><polygon class="cls-56" points="399.17 65.9 406.88 57.72 406.56 57.72 398.85 65.9 399.17 65.9"/><polygon class="cls-56" points="392.56 75.55 400.6 67.02 391.51 67 383.44 75.55 392.56 75.55"/><polygon class="cls-58" points="392.51 75.18 399.87 67.39 391.55 67.37 384.18 75.18 392.51 75.18"/><polygon class="cls-56" points="386.26 75.34 394.01 67.13 393.7 67.13 385.94 75.34 386.26 75.34"/><polygon class="cls-56" points="388.31 75.34 396.06 67.13 395.74 67.13 387.99 75.34 388.31 75.34"/><path class="cls-56" d="M398.26,69.41l.38-.4H389.9a3.78,3.78,0,0,1-.4.4Z"/><path class="cls-56" d="M396.22,71.48l.38-.4h-8.74a3.78,3.78,0,0,1-.4.4Z"/><path class="cls-56" d="M394.18,73.55l.38-.4h-8.75a3.12,3.12,0,0,1-.4.41Z"/><polygon class="cls-56" points="390.35 75.34 398.09 67.14 397.78 67.14 390.04 75.34 390.35 75.34"/><polygon class="cls-56" points="411.19 66.12 419.17 57.64 410.13 57.61 402.12 66.11 411.19 66.12"/><polygon class="cls-58" points="411.14 65.75 418.44 58 410.18 57.98 402.86 65.74 411.14 65.75"/><polygon class="cls-56" points="404.93 65.91 412.63 57.74 412.31 57.74 404.62 65.91 404.93 65.91"/><polygon class="cls-56" points="406.96 65.91 414.65 57.75 414.34 57.75 406.65 65.91 406.96 65.91"/><path class="cls-56" d="M416.85,60l.37-.4-8.68,0a2.16,2.16,0,0,1-.4.4Z"/><path class="cls-56" d="M414.82,62.08l.38-.4-8.69,0a3,3,0,0,1-.4.4Z"/><path class="cls-56" d="M412.8,64.14l.38-.4-8.7,0a3.78,3.78,0,0,1-.4.4Z"/><polygon class="cls-56" points="408.99 65.91 416.68 57.75 416.36 57.75 408.68 65.91 408.99 65.91"/><polygon class="cls-56" points="402.41 75.55 410.43 67.03 401.36 67.02 393.32 75.55 402.41 75.55"/><polygon class="cls-58" points="402.37 75.18 409.69 67.4 401.4 67.39 394.06 75.18 402.37 75.18"/><polygon class="cls-56" points="396.14 75.34 403.86 67.15 403.55 67.15 395.82 75.34 396.14 75.34"/><polygon class="cls-56" points="398.18 75.34 405.89 67.15 405.58 67.15 397.86 75.34 398.18 75.34"/><path class="cls-56" d="M408.09,69.42l.38-.4h-8.71a3.78,3.78,0,0,1-.4.4Z"/><path class="cls-56" d="M406.06,71.49l.38-.4h-8.72a3,3,0,0,1-.4.4Z"/><path class="cls-56" d="M404,73.56l.38-.4h-8.73a3.71,3.71,0,0,1-.39.4Z"/><polygon class="cls-56" points="400.21 75.34 407.93 67.15 407.61 67.15 399.9 75.34 400.21 75.34"/><path class="cls-59" d="M349,90.37h-7.94V69.73A3.93,3.93,0,0,1,345,65.8h.08A3.93,3.93,0,0,1,349,69.73Z"/><rect class="cls-60" x="340.17" y="89.11" width="9.7" height="1.91"/><circle class="cls-43" cx="345.02" cy="76.13" r="2.6"/><polygon class="cls-34" points="344.62 76.13 345.74 74.54 344.75 74.54 344.04 76.66 345.41 76.28 344.99 77.27 344.82 77.02 344.78 77.93 345.44 77.31 345.14 77.34 346.23 75.67 344.62 76.13"/><path class="cls-59" d="M363.08,90.37h-7.94V69.73a3.93,3.93,0,0,1,3.93-3.93h.08a3.93,3.93,0,0,1,3.93,3.93Z"/><rect class="cls-60" x="354.25" y="89.11" width="9.7" height="1.91"/><circle class="cls-43" cx="359.11" cy="76.13" r="2.6"/><polygon class="cls-34" points="358.71 76.13 359.82 74.54 358.84 74.54 358.13 76.66 359.5 76.28 359.07 77.27 358.9 77.02 358.86 77.93 359.53 77.31 359.23 77.34 360.31 75.67 358.71 76.13"/><rect class="cls-61" x="-3.31" y="100.85" width="11.5" height="2.5"/><rect class="cls-61" x="22.26" y="100.85" width="11.5" height="2.5"/><rect class="cls-61" x="47.82" y="100.85" width="11.5" height="2.5"/><rect class="cls-61" x="73.39" y="100.85" width="11.5" height="2.5"/><rect class="cls-61" x="98.96" y="100.85" width="11.5" height="2.5"/><rect class="cls-61" x="124.52" y="100.85" width="11.5" height="2.5"/><rect class="cls-61" x="150.09" y="100.85" width="11.5" height="2.5"/><rect class="cls-61" x="175.66" y="100.85" width="11.5" height="2.5"/><rect class="cls-61" x="201.22" y="100.85" width="11.5" height="2.5"/><rect class="cls-61" x="226.79" y="100.85" width="11.5" height="2.5"/><rect class="cls-61" x="252.36" y="100.85" width="11.5" height="2.5"/><rect class="cls-61" x="277.92" y="100.85" width="11.5" height="2.5"/><rect class="cls-61" x="303.49" y="100.85" width="11.5" height="2.5"/><rect class="cls-61" x="329.06" y="100.85" width="11.5" height="2.5"/><rect class="cls-61" x="354.62" y="100.85" width="11.5" height="2.5"/><rect class="cls-61" x="380.19" y="100.85" width="11.5" height="2.5"/><rect class="cls-61" x="405.76" y="100.85" width="11.5" height="2.5"/><rect class="cls-61" x="431.32" y="100.85" width="11.5" height="2.5"/><rect class="cls-61" x="456.89" y="100.85" width="7.24" height="2.5"/><path class="cls-39" d="M190.66,93.89s-.95,1.53.59,1.53h46.1c1,0,1.45-1.64.37-1.92S191.93,93.46,190.66,93.89Z"/><path class="cls-40" d="M191.53,93.89h15.61s-2.74-10-8.49-8.45S191.09,90,191.53,93.89Z"/><path class="cls-40" d="M225.2,93.89h12.49s.38-10-5.37-8.45S224.76,90,225.2,93.89Z"/><path class="cls-62" d="M238.24,93.89a38.83,38.83,0,0,0-.32-9.7c-.5-2.71-1.07-5.39-3.57-6.57-6.62-3.11-22.69-1.38-26.76,0s-16.48,7.93-17.31,11.58a8.83,8.83,0,0,0,.35,4.69h2.14s-.9-5.72,6.48-5.72c0,0,5.58,0,5.58,5.72h22.49s-.83-5.7,4.82-5.7c0,0,5.32-.23,4.83,5.7Z"/><path class="cls-34" d="M203.06,93.89a4.41,4.41,0,1,1-4.41-4.41A4.41,4.41,0,0,1,203.06,93.89Z"/><path class="cls-42" d="M201.35,93.89a2.71,2.71,0,1,1-2.7-2.7A2.7,2.7,0,0,1,201.35,93.89Z"/><path class="cls-34" d="M236.56,93.89a4.42,4.42,0,1,1-4.42-4.41A4.42,4.42,0,0,1,236.56,93.89Z"/><path class="cls-42" d="M234.85,93.89a2.71,2.71,0,1,1-2.71-2.7A2.71,2.71,0,0,1,234.85,93.89Z"/><circle class="cls-43" cx="218.27" cy="88.93" r="3.54"/><polygon class="cls-34" points="217.73 88.93 219.25 86.78 217.91 86.78 216.94 89.66 218.8 89.14 218.23 90.48 217.99 90.14 217.94 91.39 218.85 90.53 218.44 90.57 219.91 88.3 217.73 88.93"/><path class="cls-34" d="M198.65,84.44s7.91-4.89,11.74-5.69,18.73-1.45,21,0A6.49,6.49,0,0,1,234,83.16Z"/><path class="cls-44" d="M233.37,81a5.44,5.44,0,0,0-2-2.26c-2.3-1.45-17.2-.81-21,0a32.7,32.7,0,0,0-7.23,3.1c1.1,0,6.07-1.16,7.14-1.33C223.55,78.35,232.82,80.89,233.37,81Z"/><path class="cls-34" d="M194.15,85.19a10.71,10.71,0,0,0-1.16.65,20.56,20.56,0,0,0-1.75,1.7s2.8.19,4-.64a1.62,1.62,0,0,0,.62-1.46.59.59,0,0,0-.7-.57A4.91,4.91,0,0,0,194.15,85.19Z"/><path class="cls-63" d="M193.73,85.42a8.82,8.82,0,0,0-.83.46,14.16,14.16,0,0,0-1.25,1.22,5.91,5.91,0,0,0,2.87-.46,1.16,1.16,0,0,0,.45-1,.44.44,0,0,0-.51-.4A3,3,0,0,0,193.73,85.42Z"/><polygon class="cls-62" points="218.45 77.6 217.01 84.02 218.45 84.02 219.53 77.6 218.45 77.6"/><rect class="cls-34" x="228.88" y="84.45" width="3.26" height="0.71"/><rect class="cls-34" x="211.95" y="84.81" width="3.26" height="0.71"/><path class="cls-36" d="M201.35,93.84a2.71,2.71,0,1,1-2.76-2.66A2.7,2.7,0,0,1,201.35,93.84Z"/><path class="cls-45" d="M199.79,93.91a1.2,1.2,0,0,1-1.18,1.23A1.22,1.22,0,0,1,197.38,94a1.21,1.21,0,0,1,2.41,0Z"/><path class="cls-46" d="M197.66,92.85l.49-1.31a2.38,2.38,0,0,0-1.78,1.63Z"/><path class="cls-46" d="M199.3,92.68l1.47.07a2.38,2.38,0,0,0-2.15-1.27h-.07Z"/><path class="cls-46" d="M197.31,94.47l-1-.82a2.44,2.44,0,0,0,0,.27,2.36,2.36,0,0,0,.95,1.86Z"/><path class="cls-46" d="M200,94.2l.38,1.37a2.34,2.34,0,0,0,.7-1.74,2.38,2.38,0,0,0-.13-.76Z"/><path class="cls-46" d="M198.74,95.3l-1.11.73a2.44,2.44,0,0,0,1.08.24,2.38,2.38,0,0,0,1.33-.44Z"/><path class="cls-36" d="M234.85,93.84a2.71,2.71,0,1,1-2.76-2.65A2.71,2.71,0,0,1,234.85,93.84Z"/><path class="cls-45" d="M233.29,93.92a1.21,1.21,0,1,1-1.23-1.18A1.2,1.2,0,0,1,233.29,93.92Z"/><path class="cls-46" d="M231.15,92.86l.49-1.32a2.41,2.41,0,0,0-1.77,1.64Z"/><path class="cls-46" d="M232.8,92.69l1.47.06a2.38,2.38,0,0,0-2.16-1.26h-.06Z"/><path class="cls-46" d="M230.8,94.47l-1-.81c0,.08,0,.17,0,.26a2.43,2.43,0,0,0,1,1.87Z"/><path class="cls-46" d="M233.47,94.2l.38,1.37a2.41,2.41,0,0,0,.7-1.74,2.32,2.32,0,0,0-.14-.75Z"/><path class="cls-46" d="M232.23,95.31l-1.1.73a2.4,2.4,0,0,0,2.41-.21Z"/><path class="cls-47" d="M238.19,86.29a12.06,12.06,0,0,1,.17,1.71c-.15.28-2.25,0-2.25,0s-1.55-1.61-1.38-1.88S238.19,86.29,238.19,86.29Z"/><path class="cls-64" d="M208,93.39a2.26,2.26,0,0,1-2.2-1.79l-1.33-6.26.49-.11,1.33,6.27a1.73,1.73,0,0,0,1.75,1.38l15.77-.35a1.42,1.42,0,0,0,1.33-1c.56-1.81,2.22-4.82,7-4.82h.16a1.45,1.45,0,0,0,1.42-1.35c0-.48,0-.93,0-1.34h.5c0,.42,0,.89,0,1.38a1.94,1.94,0,0,1-1.92,1.82c-4.61-.07-6.18,2.77-6.71,4.47A1.91,1.91,0,0,1,223.83,93l-15.77.35Z"/><path class="cls-39" d="M446.06,105.1s1,1.53-.59,1.53H399.15c-1,0-1.45-1.65-.37-1.93S444.79,104.66,446.06,105.1Z"/><path class="cls-40" d="M445.19,105.1H429.5s2.76-10,8.54-8.5S445.63,101.22,445.19,105.1Z"/><path class="cls-40" d="M411.36,105.1H398.81s-.38-10,5.4-8.5S411.8,101.22,411.36,105.1Z"/><path class="cls-65" d="M398.26,105.1a39.23,39.23,0,0,1,.32-9.75c.5-2.73,1.07-5.42,3.59-6.6,6.65-3.13,22.79-1.39,26.88,0s16.56,8,17.39,11.64a8.83,8.83,0,0,1-.34,4.71H444s.9-5.75-6.52-5.75c0,0-5.61,0-5.61,5.75H409.24s.83-5.73-4.85-5.73c0,0-5.35-.23-4.85,5.73Z"/><path class="cls-34" d="M433.61,105.1a4.43,4.43,0,1,0,4.43-4.44A4.43,4.43,0,0,0,433.61,105.1Z"/><circle class="cls-42" cx="438.04" cy="105.1" r="2.72"/><path class="cls-34" d="M400,105.1a4.44,4.44,0,1,0,4.44-4.44A4.43,4.43,0,0,0,400,105.1Z"/><path class="cls-42" d="M401.67,105.1a2.72,2.72,0,1,0,2.72-2.72A2.72,2.72,0,0,0,401.67,105.1Z"/><circle class="cls-43" cx="418.32" cy="100.11" r="3.56"/><polygon class="cls-34" points="417.77 100.11 419.3 97.94 417.95 97.94 416.98 100.84 418.85 100.32 418.28 101.67 418.04 101.33 417.99 102.58 418.9 101.72 418.49 101.76 419.97 99.48 417.77 100.11"/><path class="cls-34" d="M438,95.6s-8-4.92-11.8-5.72-18.81-1.46-21.12,0a6.52,6.52,0,0,0-2.63,4.44Z"/><path class="cls-44" d="M403.16,92.15a5.42,5.42,0,0,1,2-2.27c2.31-1.46,17.27-.81,21.12,0A33.29,33.29,0,0,1,433.51,93c-1.1,0-6.1-1.17-7.17-1.34C413,89.48,403.7,92,403.16,92.15Z"/><path class="cls-34" d="M442.56,96.35a12.82,12.82,0,0,1,1.16.65,20.78,20.78,0,0,1,1.76,1.71s-2.81.2-4-.64a1.61,1.61,0,0,1-.63-1.47.58.58,0,0,1,.7-.56A4.38,4.38,0,0,1,442.56,96.35Z"/><path class="cls-63" d="M443,96.58a7.3,7.3,0,0,1,.83.47,13.57,13.57,0,0,1,1.26,1.22,6,6,0,0,1-2.88-.46,1.17,1.17,0,0,1-.45-1,.43.43,0,0,1,.5-.41A3.25,3.25,0,0,1,443,96.58Z"/><polygon class="cls-65" points="418.14 88.73 419.59 95.18 418.14 95.18 417.05 88.73 418.14 88.73"/><rect class="cls-34" x="404.39" y="95.61" width="3.27" height="0.72"/><rect class="cls-34" x="421.4" y="95.97" width="3.27" height="0.72"/><path class="cls-36" d="M435.32,105a2.72,2.72,0,1,0,2.77-2.67A2.72,2.72,0,0,0,435.32,105Z"/><path class="cls-45" d="M436.89,105.11a1.21,1.21,0,1,0,2.42,0,1.21,1.21,0,0,0-2.42,0Z"/><path class="cls-46" d="M439,104.05l-.49-1.32a2.42,2.42,0,0,1,1.79,1.64Z"/><path class="cls-46" d="M437.38,103.88l-1.48.07a2.41,2.41,0,0,1,2.17-1.28h.07Z"/><path class="cls-46" d="M439.39,105.67l1-.82a2.44,2.44,0,0,1,0,.27,2.4,2.4,0,0,1-.95,1.87Z"/><path class="cls-46" d="M436.71,105.4l-.38,1.38a2.41,2.41,0,0,1-.71-1.75,2.69,2.69,0,0,1,.14-.76Z"/><path class="cls-46" d="M438,106.51l1.11.74a2.44,2.44,0,0,1-1.08.23,2.38,2.38,0,0,1-1.34-.44Z"/><path class="cls-36" d="M401.67,105a2.72,2.72,0,1,0,2.77-2.66A2.7,2.7,0,0,0,401.67,105Z"/><path class="cls-45" d="M403.24,105.12a1.19,1.19,0,0,0,1.18,1.23,1.21,1.21,0,1,0-1.18-1.23Z"/><path class="cls-46" d="M405.38,104.05l-.49-1.32a2.42,2.42,0,0,1,1.78,1.65Z"/><path class="cls-46" d="M403.73,103.89l-1.48.06a2.4,2.4,0,0,1,2.17-1.27h.06Z"/><path class="cls-46" d="M405.73,105.68l1-.82c0,.09,0,.18,0,.27a2.42,2.42,0,0,1-1,1.87Z"/><path class="cls-46" d="M403.06,105.41l-.39,1.37A2.41,2.41,0,0,1,402,105a2.1,2.1,0,0,1,.14-.76Z"/><path class="cls-46" d="M404.3,106.52l1.11.73a2.4,2.4,0,0,1-2.43-.2Z"/><path class="cls-47" d="M398.31,97.46a12.21,12.21,0,0,0-.17,1.72c.15.27,2.26,0,2.26,0s1.55-1.62,1.39-1.89S398.31,97.46,398.31,97.46Z"/><path class="cls-48" d="M428.64,104.59a2.27,2.27,0,0,0,2.21-1.8l1.33-6.29-.5-.1-1.33,6.29a1.73,1.73,0,0,1-1.75,1.39l-15.85-.35a1.42,1.42,0,0,1-1.33-1c-.57-1.82-2.24-4.84-7.06-4.84h-.16a1.46,1.46,0,0,1-1.43-1.36c0-.48,0-.93,0-1.34l-.5,0c0,.43,0,.9,0,1.39a2,2,0,0,0,1.93,1.83c4.63-.07,6.21,2.79,6.74,4.49a1.92,1.92,0,0,0,1.8,1.35l15.84.36Z"/><circle class="cls-43" cx="239.56" cy="19.46" r="10.93" transform="translate(165.32 248.06) rotate(-76.65)"/><path class="cls-66" d="M339.65,11.91a2.63,2.63,0,0,1-.45.18l.45-.18c.77-.38,1.55-1.11.65-1.64a2.09,2.09,0,0,0-2.19.36,2.55,2.55,0,0,1-.41.34,3.21,3.21,0,0,1,.41-.34,8.88,8.88,0,0,0,.75-.89,1.47,1.47,0,0,0-.6-2.35,3,3,0,0,0-3.32,1,4.49,4.49,0,0,0-.72,2.38c0-.57,0-1.66-1.38-1.57s-1.09,1.49-1.09,2.24v0a3.3,3.3,0,0,0-1.5-2.85,3,3,0,0,0-2.35-.2,1.45,1.45,0,0,0-1.09,1.82,3.91,3.91,0,0,0,1.37,1.59,11.81,11.81,0,0,0-1.85-.64c-1.25-.21-3.27-.28-4.08.65s.36,2.24,2.68,2.3c1.53,0,14.52.08,16.06.08,1.22,0,3-.53,2.73-1.66S341.09,11.43,339.65,11.91Z"/><path class="cls-66" d="M436.26,22.62a3.25,3.25,0,0,1-.44.19,3.63,3.63,0,0,1,.44-.19c.78-.38,1.56-1.11.66-1.64a2.09,2.09,0,0,0-2.19.36,2.55,2.55,0,0,1-.41.34,3.21,3.21,0,0,1,.41-.34,8.88,8.88,0,0,0,.75-.89,1.48,1.48,0,0,0-.6-2.35,3,3,0,0,0-3.32,1,4.49,4.49,0,0,0-.72,2.38c0-.57,0-1.66-1.38-1.57s-1.09,1.49-1.1,2.24v0a3.29,3.29,0,0,0-1.49-2.85,2.93,2.93,0,0,0-2.35-.19,1.43,1.43,0,0,0-1.09,1.81,3.91,3.91,0,0,0,1.36,1.59,11.57,11.57,0,0,0-1.84-.64c-1.25-.21-3.27-.28-4.08.65s.36,2.24,2.68,2.3c1.53,0,14.52.08,16.05.08,1.22,0,3-.53,2.74-1.66S437.7,22.14,436.26,22.62Z"/><path class="cls-66" d="M48.35,24.34a3.14,3.14,0,0,1-.44.18,2.53,2.53,0,0,1,.44-.18c.78-.38,1.56-1.12.66-1.64a2.06,2.06,0,0,0-2.19.35,2.55,2.55,0,0,1-.41.34,3.21,3.21,0,0,1,.41-.34,10.27,10.27,0,0,0,.75-.88,1.47,1.47,0,0,0-.6-2.35,3,3,0,0,0-3.32.95,4.49,4.49,0,0,0-.72,2.38c0-.57,0-1.66-1.38-1.57s-1.09,1.5-1.1,2.25v0A3.3,3.3,0,0,0,39,21a2.93,2.93,0,0,0-2.35-.19,1.43,1.43,0,0,0-1.09,1.81,3.91,3.91,0,0,0,1.36,1.59A10.86,10.86,0,0,0,35,23.55c-1.25-.22-3.27-.28-4.08.64s.36,2.25,2.68,2.3c1.53,0,14.52.08,16,.08,1.23,0,3.05-.53,2.74-1.66S49.79,23.85,48.35,24.34Z"/><path class="cls-66" d="M308.42,24.24a4.29,4.29,0,0,1-.65.27,5.51,5.51,0,0,1,.65-.27c1.13-.55,2.27-1.62,1-2.38a3,3,0,0,0-3.19.52,3.39,3.39,0,0,1-.6.49,4.59,4.59,0,0,1,.6-.49,14.49,14.49,0,0,0,1.09-1.29,2.14,2.14,0,0,0-.88-3.42,4.29,4.29,0,0,0-4.83,1.39,6.56,6.56,0,0,0-1.05,3.46c0-.83,0-2.41-2-2.28s-1.58,2.17-1.59,3.26v0c0-.42-.11-3.11-2.18-4.16a4.26,4.26,0,0,0-3.41-.27,2.08,2.08,0,0,0-1.6,2.63,5.68,5.68,0,0,0,2,2.32,16.8,16.8,0,0,0-2.68-.93c-1.82-.31-4.77-.4-5.94.95s.52,3.26,3.9,3.34c2.23.06,21.13.12,23.36.12,1.78,0,4.43-.77,4-2.42C314,23.66,310.52,23.54,308.42,24.24Z"/><path class="cls-66" d="M148.73,22.22a4.63,4.63,0,0,1-.65.26,4.4,4.4,0,0,1,.65-.26c1.12-.55,2.27-1.62,1-2.39a3,3,0,0,0-3.19.52,3.74,3.74,0,0,1-.59.49,6.66,6.66,0,0,1,.59-.49,13.51,13.51,0,0,0,1.1-1.29,2.14,2.14,0,0,0-.88-3.42A4.31,4.31,0,0,0,141.88,17a6.56,6.56,0,0,0-1,3.46c0-.83,0-2.41-2-2.28s-1.58,2.18-1.59,3.27v0c0-.43-.1-3.11-2.18-4.16a4.26,4.26,0,0,0-3.41-.28,2.08,2.08,0,0,0-1.59,2.64A5.68,5.68,0,0,0,132,22a17,17,0,0,0-2.69-.93c-1.82-.31-4.76-.41-5.93.94s.52,3.26,3.9,3.35c2.22.05,21.13.12,23.36.12,1.77,0,4.43-.78,4-2.43C154.27,21.63,150.82,21.51,148.73,22.22Z"/></g></g></svg>