<?xml version="1.0" encoding="utf-8"?>
<!-- Generator: Adobe Illustrator 26.0.1, SVG Export Plug-In . SVG Version: 6.00 Build 0)  -->
<svg version="1.1" id="레이어_1" xmlns="http://www.w3.org/2000/svg" xmlns:xlink="http://www.w3.org/1999/xlink" x="0px"
	 y="0px" viewBox="0 0 1027 149.4" style="enable-background:new 0 0 1027 149.4;" xml:space="preserve">
<style type="text/css">
	.st0{fill:#80B741;}
	.st1{fill:#557F1D;}
	.st2{opacity:0.54;}
	.st3{fill:#082238;}
	.st4{fill:#D6DDC5;}
	.st5{fill:#87AAA9;}
	.st6{fill:#B2CFE5;}
	.st7{fill:#000B3A;}
	.st8{fill:#A6E4FF;}
	.st9{fill:#FFDE17;}
	.st10{fill:#FFA943;}
	.st11{fill:#88C836;}
	.st12{fill:#4C577A;}
	.st13{fill:#375075;}
	.st14{fill:#F24649;}
	.st15{fill:#B0254D;}
	.st16{fill:#DAC9CB;}
	.st17{fill:#8D8996;}
	.st18{fill:#87919C;}
	.st19{fill:#36496F;}
	.st20{fill:#253C66;}
	.st21{fill:#1A2F5A;}
	.st22{fill:#636A86;}
	.st23{fill:url(#SVGID_1_);}
	.st24{fill:#8ED3D6;}
	.st25{fill:#2A2933;}
	.st26{fill:#F6FBF7;}
	.st27{fill:#9AE9ED;}
	.st28{fill:#FFC648;}
	.st29{fill:#C4FDF7;}
	.st30{fill:#FF4800;}
	.st31{fill:#FFB600;}
	.st32{fill:#FFFFFF;}
	.st33{fill:#A4C2D1;}
	.st34{fill:#FF6353;}
	.st35{fill:#FFD16C;}
	.st36{fill:#EDF3F1;}
	.st37{fill:#C7DDE5;}
	.st38{fill:#754C29;}
	.st39{fill:#DDE0C6;}
	.st40{fill:#FAFFDE;}
	.st41{fill:#F6C9A0;}
	.st42{fill:#D04730;}
	.st43{fill:#CE3D25;}
	.st44{fill:#D24D36;}
	.st45{fill:#D65C48;}
	.st46{fill:#9FD4DA;}
	.st47{fill:#719DAF;}
	.st48{fill:#A7CE33;}
	.st49{fill:#2CDBCE;}
	.st50{fill:#E23A00;}
	.st51{fill:#071749;}
	.st52{fill:#00C3FF;}
	.st53{fill:#4A4A51;}
	.st54{fill:#F72823;}
	.st55{fill:#FF941F;}
	.st56{fill:#8E0300;}
	.st57{fill:#F9473E;}
	.st58{fill:#92FFF2;}
	.st59{fill:#EBEBED;}
	.st60{fill:#86C43D;}
	.st61{fill:#CAFF76;}
	.st62{fill:#E01221;}
	.st63{fill:#75AA30;}
	.st64{fill:#ACE561;}
</style>
<g>
	<g id="_迹_1">
		<rect y="0" class="st0" width="1027" height="149.4"/>
		<path class="st1" d="M280.3,78.1h202.1c5.2,0,9.3,4.2,9.3,9.3v0.2c0,5.2-4.2,9.3-9.3,9.3H280.3c-5.2,0-9.3-4.2-9.3-9.3v-0.2
			C271,82.3,275.2,78.1,280.3,78.1z"/>
		<path class="st1" d="M367.1,113.1h202.1c5.2,0,9.3,4.2,9.3,9.3v0.2c0,5.2-4.2,9.3-9.3,9.3H367.1c-5.2,0-9.3-4.2-9.3-9.3v-0.2
			C357.7,117.2,361.9,113.1,367.1,113.1z"/>
		<path class="st1" d="M456.4,95.6h219.1c5.2,0,9.3,4.2,9.3,9.3v0.2c0,5.2-4.2,9.3-9.3,9.3H456.4c-5.2,0-9.3-4.2-9.3-9.3v-0.2
			C447.1,99.8,451.3,95.6,456.4,95.6z"/>
		<path class="st1" d="M485.2,130.6h202.1c5.2,0,9.3,4.2,9.3,9.3v0.2c0,5.2-4.2,9.3-9.3,9.3H485.2c-5.2,0-9.3-4.2-9.3-9.3v-0.2
			C475.9,134.7,480,130.6,485.2,130.6z"/>
		<g class="st2">
			<path class="st3" d="M474.4,46.6H462c-0.1,0-0.2,0-0.3-0.1l-6-5.8c-0.1-0.1-0.2-0.3-0.1-0.5c0.1-0.2,0.2-0.3,0.4-0.3h24.3
				c0.2,0,0.4,0.2,0.4,0.4c0,0.1,0,0.2-0.1,0.3l-5.8,5.8C474.7,46.6,474.6,46.6,474.4,46.6z M462.1,45.7h12.1l4.9-5H457L462.1,45.7z
				"/>
			<path class="st3" d="M474.4,59.3H462c-0.1,0-0.2,0-0.2-0.1l-9.4-5.7c-0.2-0.1-0.2-0.3-0.2-0.5c0.1-0.2,0.2-0.3,0.4-0.3h31.1
				c0.2,0,0.3,0.2,0.3,0.4c0.1,0.2,0,0.4-0.2,0.5l-9.2,5.7C474.6,59.3,474.5,59.3,474.4,59.3z M462.1,58.5h12.2l7.8-4.9h-28
				L462.1,58.5z"/>
			<path class="st3" d="M450.9,80.7c-0.1,0-0.2-0.1-0.3-0.1c-0.1-0.1-0.2-0.3-0.1-0.5l11-21.2v-5.6l0,0v-7l0,0v-5.8
				c0-0.1,0-0.1,0-0.2l2.6-6.7c-0.1-0.1-0.1-0.3-0.1-0.4c0-0.1,0.2-0.3,0.3-0.3l3.4-8.7c0.1-0.2,0.2-0.3,0.4-0.3l0,0
				c0.2,0,0.3,0.1,0.4,0.3l3.4,8.8c0.1,0.1,0.2,0.1,0.2,0.2c0,0.1,0,0.2,0,0.3l2.6,6.8l0,0l0,0v0.1v18.5l9.3,21.2
				c0.1,0.2,0,0.4-0.1,0.5s-0.3,0.2-0.5,0.1l-15.8-8.5L450.9,80.7C451.1,80.7,451,80.7,450.9,80.7z M468.9,71.7l13.9,7.5l-8.1-18.5
				l-0.8,9.5c0,0.2-0.1,0.3-0.3,0.4L468.9,71.7z M461.6,60.4L452,79.2l14.8-7.6l-4.2-1.6c-0.2-0.1-0.3-0.2-0.3-0.4L461.6,60.4z
				 M463,69.2l4.8,1.9l5.2-1.3l0.9-10.4l-5.9-2.8l-5.7,2.6L463,69.2z M469,56l4.9,2.3v-4.5L469,56z M462.3,53.8v4.4l4.7-2.1
				L462.3,53.8z M462.8,53.1l5.2,2.5l5.4-2.5l-5.3-3L462.8,53.1z M469,49.6l4.9,2.8v-5.5L469,49.6z M462.3,46.9v5.5l4.9-2.8
				L462.3,46.9z M462.8,46.2l5.3,3l5.3-3l-5.3-2.5L462.8,46.2z M469.1,43.2l4.9,2.3V41L469.1,43.2z M462.3,40.9v4.5l4.8-2.2
				L462.3,40.9z M462.7,40.2l5.4,2.5l5.4-2.5l-5.4-3.9L462.7,40.2z M468.8,35.8l4.6,3.3l-2-5.1L468.8,35.8z M464.8,34.1l-2,5.1
				l4.5-3.2L464.8,34.1z M465.8,33.7l2.3,1.6l2.3-1.6H465.8z M465.3,32.8h5.7l-2.9-7.4L465.3,32.8z"/>
			
				<rect x="472.4" y="54.3" transform="matrix(0.699 -0.7151 0.7151 0.699 92.5821 359.0688)" class="st3" width="0.9" height="30.5"/>
			
				<rect x="446.9" y="69.2" transform="matrix(0.743 -0.6693 0.6693 0.743 72.3119 327.5702)" class="st3" width="31.6" height="0.9"/>
			
				<rect x="459.2" y="66.3" transform="matrix(7.532372e-02 -0.9972 0.9972 7.532372e-02 355.8943 522.4362)" class="st3" width="0.9" height="6"/>
			
				<rect x="459" y="71.8" transform="matrix(0.2859 -0.9583 0.9583 0.2859 260.5403 494.1678)" class="st3" width="5.7" height="0.9"/>
			<rect x="473.4" y="69.3" transform="matrix(0.9894 -0.145 0.145 0.9894 -5.083 69.7874)" class="st3" width="5.6" height="0.9"/>
			<rect x="474" y="70" transform="matrix(0.9428 -0.3333 0.3333 0.9428 2.8169 162.3101)" class="st3" width="0.9" height="5.9"/>
			<rect x="455.5" y="40.3" class="st3" width="0.9" height="5.8"/>
			<rect x="453.9" y="43.8" class="st3" width="4" height="1.4"/>
			<rect x="453.9" y="46.2" class="st3" width="4" height="1.4"/>
			<rect x="452.1" y="53" class="st3" width="0.9" height="5.8"/>
			<rect x="450.5" y="56.5" class="st3" width="4" height="1.4"/>
			<rect x="450.5" y="58.9" class="st3" width="4" height="1.4"/>
			<rect x="479.8" y="40.3" class="st3" width="0.9" height="5.8"/>
			<rect x="478.2" y="43.8" class="st3" width="4" height="1.4"/>
			<rect x="478.2" y="46.2" class="st3" width="4" height="1.4"/>
			<rect x="483.4" y="53.2" class="st3" width="0.9" height="5.8"/>
			<rect x="481.8" y="56.6" class="st3" width="4" height="1.4"/>
			<rect x="481.8" y="59" class="st3" width="4" height="1.4"/>
			<path class="st3" d="M430.8,48.5h-11c-0.1,0-0.2,0-0.3-0.1l-5.3-5.2c-0.1-0.1-0.1-0.3-0.1-0.4c0.1-0.1,0.2-0.2,0.4-0.2h21.4
				c0.2,0,0.3,0.1,0.4,0.2c0.1,0.1,0,0.3-0.1,0.4l-5.2,5.2C430.9,48.4,430.9,48.5,430.8,48.5z M419.9,47.7h10.7l4.4-4.4h-19.6
				L419.9,47.7z"/>
			<path class="st3" d="M430.8,59.7h-11c-0.1,0-0.1,0-0.2-0.1l-8.3-5.1c-0.1-0.1-0.2-0.3-0.2-0.4c0-0.2,0.2-0.3,0.4-0.3h27.4
				c0.2,0,0.3,0.1,0.4,0.3c0.1,0.2,0,0.4-0.2,0.4l-8.1,5.1C430.9,59.7,430.9,59.7,430.8,59.7z M419.9,59h10.8l6.9-4.3h-24.7
				L419.9,59z"/>
			<path class="st3" d="M410,78.6c-0.1,0-0.2,0-0.3-0.1c-0.1-0.1-0.1-0.3-0.1-0.4l9.7-18.8v-5l0,0v-6.2l0,0V43v-0.1l2.3-5.9
				c0-0.1,0-0.2,0-0.3s0.1-0.2,0.3-0.3l3-7.7c0.1-0.1,0.2-0.2,0.4-0.2l0,0c0.2,0,0.3,0.1,0.4,0.2l3,7.8c0.1,0.1,0.1,0.1,0.2,0.2
				c0,0.1,0,0.2,0,0.2l2.3,6l0,0l0,0V43v16.3l8.2,18.8c0.1,0.2,0,0.3-0.1,0.4c-0.1,0.1-0.3,0.1-0.4,0l-14-7.5l-14.7,7.6
				C410.1,78.6,410.1,78.6,410,78.6z M426,70.7l12.2,6.6L431,60.9l-0.7,8.4c0,0.2-0.1,0.3-0.3,0.3L426,70.7z M419.5,60.8l-8.6,16.5
				l13-6.7l-3.7-1.4c-0.1-0.1-0.2-0.2-0.2-0.3L419.5,60.8z M420.8,68.5l4.2,1.6l4.6-1.2l0.8-9.2l-5.2-2.5l-5,2.3L420.8,68.5z
				 M426.1,56.9l4.3,2v-4L426.1,56.9z M420.1,54.9v3.8l4.1-1.9L420.1,54.9z M420.6,54.2l4.6,2.2l4.7-2.2l-4.7-2.6L420.6,54.2z
				 M426,51.2l4.3,2.4v-4.8L426,51.2z M420.1,48.7v4.9l4.3-2.4L420.1,48.7z M420.6,48.1l4.7,2.6l4.7-2.6l-4.7-2.2L420.6,48.1z
				 M426.2,45.5l4.2,2v-3.9L426.2,45.5z M420.2,43.5v3.9l4.2-2L420.2,43.5z M420.5,42.8l4.7,2.3l4.7-2.2l-4.8-3.4L420.5,42.8z
				 M425.9,38.9l4.1,2.9l-1.8-4.5L425.9,38.9z M422.3,37.3l-1.7,4.5l4-2.9L422.3,37.3z M423.2,37l2,1.5l2-1.5H423.2z M422.8,36.2h5
				l-2.5-6.5L422.8,36.2z"/>
			
				<rect x="429" y="55.3" transform="matrix(0.699 -0.7151 0.7151 0.699 80.0923 327.7484)" class="st3" width="0.8" height="26.9"/>
			
				<rect x="406.5" y="68.5" transform="matrix(0.743 -0.6693 0.6693 0.743 61.9262 299.0842)" class="st3" width="27.9" height="0.8"/>
			
				<rect x="417.3" y="65.9" transform="matrix(7.532372e-02 -0.9972 0.9972 7.532372e-02 317.8877 479.9597)" class="st3" width="0.8" height="5.3"/>
			
				<rect x="417.2" y="70.8" transform="matrix(0.2859 -0.9583 0.9583 0.2859 231.5331 453.0126)" class="st3" width="5" height="0.8"/>
			
				<rect x="429.9" y="68.5" transform="matrix(0.9894 -0.145 0.145 0.9894 -5.4226 63.4195)" class="st3" width="4.9" height="0.8"/>
			
				<rect x="430.4" y="69.1" transform="matrix(0.9428 -0.3333 0.3333 0.9428 0.7351 147.6838)" class="st3" width="0.8" height="5.2"/>
			<rect x="414.1" y="42.9" class="st3" width="0.8" height="5.2"/>
			<rect x="412.6" y="46" class="st3" width="3.6" height="1.2"/>
			<rect x="412.6" y="48.1" class="st3" width="3.6" height="1.2"/>
			<rect x="411.1" y="54.2" class="st3" width="0.8" height="5.2"/>
			<rect x="409.7" y="57.2" class="st3" width="3.6" height="1.2"/>
			<rect x="409.7" y="59.3" class="st3" width="3.6" height="1.2"/>
			<rect x="435.6" y="42.9" class="st3" width="0.8" height="5.2"/>
			<rect x="434.1" y="46" class="st3" width="3.6" height="1.2"/>
			<rect x="434.1" y="48.1" class="st3" width="3.6" height="1.2"/>
			<rect x="438.7" y="54.3" class="st3" width="0.8" height="5.2"/>
			<rect x="437.2" y="57.4" class="st3" width="3.6" height="1.2"/>
			<rect x="437.2" y="59.4" class="st3" width="3.6" height="1.2"/>
			<path class="st3" d="M519.4,52.2h-16.6c-0.2,0-0.3-0.1-0.4-0.2l-8-7.8c-0.2-0.2-0.2-0.4-0.1-0.6c0.1-0.2,0.3-0.4,0.5-0.4h32.3
				c0.3,0,0.6,0.2,0.6,0.6c0,0.2-0.1,0.3-0.2,0.4l-7.7,7.8C519.7,52.2,519.6,52.2,519.4,52.2z M503.1,51.1h16.1l6.6-6.6h-29.5
				L503.1,51.1z"/>
			<path class="st3" d="M519.4,69.1h-16.6c-0.1,0-0.2,0-0.3-0.1L490,61.4c-0.2-0.1-0.3-0.4-0.3-0.7c0.1-0.3,0.3-0.4,0.6-0.4h41.3
				c0.3,0,0.5,0.2,0.6,0.4s0,0.5-0.2,0.7L519.8,69C519.6,69.1,519.5,69.1,519.4,69.1z M503,68h16.2l10.4-6.5h-37.2L503,68z"/>
			<path class="st3" d="M488.2,97.5c-0.2,0-0.3-0.1-0.4-0.2c-0.2-0.2-0.2-0.4-0.1-0.7l14.6-28.2v-7.5l0,0v-9.3l0,0v-7.8
				c0-0.1,0-0.1,0-0.2l3.4-8.9c-0.2-0.3-0.1-0.6,0.1-0.8c0.1,0,0.1-0.1,0.2-0.1l4.5-11.6c0.1-0.2,0.3-0.4,0.5-0.4l0,0
				c0.2,0,0.5,0.1,0.5,0.4l4.5,11.7c0.1,0.1,0.2,0.2,0.3,0.3c0,0.1,0,0.2,0,0.4l3.5,9l0,0l0,0c0,0.1,0,0.1,0,0.2v24.6l12.4,28.2
				c0.1,0.2,0,0.5-0.1,0.7c-0.2,0.2-0.4,0.2-0.7,0.1l-21-11.4L488.2,97.5C488.3,97.4,488.2,97.5,488.2,97.5z M512.2,85.6l18.4,10
				l-10.8-24.7l-1.1,12.6c0,0.2-0.2,0.4-0.4,0.5L512.2,85.6z M502.4,70.7l-12.8,24.9l19.6-10.1l-5.6-2.2c-0.2-0.1-0.4-0.3-0.4-0.5
				L502.4,70.7z M504.4,82.3l6.3,2.5l7-1.7l1.2-13.9l-7.8-3.7l-7.6,3.5L504.4,82.3z M512.4,64.8l6.5,3.1v-6L512.4,64.8z M503.4,61.9
				v5.8l6.2-2.8L503.4,61.9z M504.1,60.9l6.9,3.3l7.1-3.3l-7-3.9L504.1,60.9z M512.3,56.3l6.5,3.7v-7.3L512.3,56.3z M503.4,52.6v7.3
				l6.5-3.7L503.4,52.6z M504.1,51.6l7,3.9l7-3.9l-7-3.3L504.1,51.6z M512.5,47.7l6.3,3v-5.9L512.5,47.7z M503.4,44.7v5.9l6.3-3
				L503.4,44.7z M504,43.7l7.1,3.4l7.1-3.3l-7.2-5.1L504,43.7z M512.1,37.8l6.1,4.3l-2.6-6.8L512.1,37.8z M506.7,35.4l-2.6,6.7
				l6-4.3L506.7,35.4z M508,35.1l3.1,2.2l3-2.2H508z M507.3,33.9h7.6l-3.8-9.8L507.3,33.9z"/>
			
				<rect x="516.7" y="62.5" transform="matrix(0.699 -0.7151 0.7151 0.699 96.5334 394.841)" class="st3" width="1.2" height="40.5"/>
			
				<rect x="482.8" y="82.3" transform="matrix(0.743 -0.6693 0.6693 0.743 74.0202 358.5125)" class="st3" width="42" height="1.2"/>
			
				<rect x="499.2" y="78.4" transform="matrix(7.532372e-02 -0.9972 0.9972 7.532372e-02 379.96 574.5579)" class="st3" width="1.2" height="8"/>
			
				<rect x="499" y="85.8" transform="matrix(0.2859 -0.9583 0.9583 0.2859 276.2644 543.455)" class="st3" width="7.6" height="1.2"/>
			<rect x="518.1" y="82.4" transform="matrix(0.9894 -0.145 0.145 0.9894 -6.522 76.5402)" class="st3" width="7.4" height="1.2"/>
			
				<rect x="518.8" y="83.3" transform="matrix(0.9428 -0.3333 0.3333 0.9428 0.6321 178.1065)" class="st3" width="1.2" height="7.8"/>
			<rect x="494.3" y="43.9" class="st3" width="1.2" height="7.8"/>
			<rect x="492.1" y="48.5" class="st3" width="5.4" height="1.8"/>
			<rect x="492.1" y="51.6" class="st3" width="5.4" height="1.8"/>
			<rect x="489.8" y="60.8" class="st3" width="1.2" height="7.8"/>
			<rect x="487.7" y="65.4" class="st3" width="5.4" height="1.8"/>
			<rect x="487.7" y="68.5" class="st3" width="5.4" height="1.8"/>
			<rect x="526.6" y="43.9" class="st3" width="1.2" height="7.8"/>
			<rect x="524.5" y="48.5" class="st3" width="5.4" height="1.8"/>
			<rect x="524.5" y="51.6" class="st3" width="5.4" height="1.8"/>
			<rect x="531.3" y="60.9" class="st3" width="1.2" height="7.8"/>
			<rect x="529.1" y="65.6" class="st3" width="5.4" height="1.8"/>
			<rect x="529.1" y="68.7" class="st3" width="5.4" height="1.8"/>
		</g>
		<polygon class="st4" points="603.8,116.3 602,119 604.5,117 608.5,112.8 607.8,112.1 		"/>
		<path class="st4" d="M606.9,109.5c-0.1,1,0.3,2,1,2.7l0.6,0.6c0.7,0.7,1.7,1,2.7,0.8l0,0L606.9,109.5L606.9,109.5z"/>
		<polygon class="st5" points="604,116.1 601.5,118 603.3,115.3 607.3,111.1 608.1,111.9 		"/>
		<path class="st6" d="M608,111.8l-0.6-0.6c-0.7-0.7-1.1-1.7-1-2.7l0,0l4.3,4.1l0,0C609.7,112.8,608.7,112.5,608,111.8z"/>
		<polygon class="st7" points="356.9,14.4 375.2,14.2 381.3,31.9 351.1,31.9 		"/>
		<path class="st8" d="M381.6,32.1h-30.8l6-18l18.7-0.2L381.6,32.1z M351.4,31.6h29.5L375,14.4l-18,0.2L351.4,31.6z"/>
		<path class="st7" d="M352.3,28.4h27.8H352.3z"/>
		
			<rect x="352.3" y="28.1" transform="matrix(1 -1.919854e-03 1.919854e-03 1 -5.375297e-02 0.7031)" class="st8" width="27.8" height="0.5"/>
		<path class="st7" d="M353.4,24.9l25.4-0.1L353.4,24.9z"/>
		
			<rect x="353.4" y="24.6" transform="matrix(1 -3.839687e-03 3.839687e-03 1 -9.271859e-02 1.4059)" class="st8" width="25.4" height="0.5"/>
		<path class="st7" d="M354.6,21.4l23-0.1L354.6,21.4z"/>
		
			<rect x="354.6" y="21.1" transform="matrix(1 -5.759459e-03 5.759459e-03 1 -0.1169 2.1092)" class="st8" width="23.1" height="0.5"/>
		<path class="st7" d="M355.8,17.9l20.7-0.2L355.8,17.9z"/>
		
			<rect x="355.8" y="17.5" transform="matrix(1 -7.853659e-03 7.853659e-03 1 -0.1281 2.8762)" class="st8" width="20.7" height="0.5"/>
		<path class="st7" d="M371.6,14.2l3.7,17.6L371.6,14.2z"/>
		<rect x="373.2" y="14" transform="matrix(0.9791 -0.2035 0.2035 0.9791 3.136 76.4748)" class="st8" width="0.5" height="18"/>
		<path class="st7" d="M367.9,14.3l1.3,17.6L367.9,14.3z"/>
		
			<rect x="368.3" y="14.2" transform="matrix(0.9973 -7.341238e-02 7.341238e-02 0.9973 -0.6941 27.1179)" class="st8" width="0.5" height="17.6"/>
		<path class="st7" d="M364.2,14.3l-1.1,17.5L364.2,14.3z"/>
		
			<rect x="354.9" y="22.8" transform="matrix(6.035031e-02 -0.9982 0.9982 6.035031e-02 318.6886 384.6979)" class="st8" width="17.6" height="0.5"/>
		<path class="st7" d="M360.6,14.4l-3.4,17.5L360.6,14.4z"/>
		
			<rect x="350" y="22.8" transform="matrix(0.1934 -0.9811 0.9811 0.1934 266.8564 370.7676)" class="st8" width="17.8" height="0.5"/>
		<polygon class="st9" points="409.3,18.4 405.5,18.4 407.4,9.3 407.4,9.3 		"/>
		<polygon class="st9" points="410.5,20.4 407.8,17.7 415.6,12.6 415.6,12.6 		"/>
		<polygon class="st9" points="410,22.6 410,18.8 419.1,20.7 419.1,20.7 		"/>
		<polygon class="st9" points="408.1,23.9 410.8,21.2 415.9,28.9 415.9,28.9 		"/>
		<polygon class="st9" points="405.8,23.4 409.6,23.4 407.7,32.4 407.7,32.4 		"/>
		<polygon class="st9" points="404.6,21.4 407.3,24.1 399.5,29.2 399.5,29.2 		"/>
		<polygon class="st9" points="405.1,19.2 405.1,23 396,21.1 396,21.1 		"/>
		<polygon class="st9" points="407,17.9 404.3,20.6 399.3,12.8 399.3,12.8 		"/>
		<path class="st10" d="M413.7,20.9c0,3.4-2.8,6.2-6.2,6.2s-6.2-2.8-6.2-6.2s2.8-6.2,6.2-6.2C411,14.7,413.7,17.5,413.7,20.9
			L413.7,20.9z"/>
		<rect x="382.8" y="18.5" class="st11" width="12" height="2.8"/>
		<polygon class="st11" points="385.5,23.3 380,19.9 380,19.9 385.5,16.4 		"/>
		<rect x="357.6" y="38.5" class="st11" width="12" height="2.8"/>
		<rect x="357.6" y="33" class="st11" width="2.8" height="8.1"/>
		<polygon class="st11" points="366.9,36.5 372.5,39.9 372.5,39.9 366.9,43.3 		"/>
		<path class="st12" d="M340.4,77.1H296V63.7c2.5-2.5,3.9-4.1,6.4-6.6h38.1L340.4,77.1L340.4,77.1z"/>
		<polygon class="st13" points="353.3,49.1 340.4,59.1 353.3,59.1 		"/>
		<polygon class="st14" points="296.8,40.7 301.3,40.7 301.3,40.7 		"/>
		<polygon class="st14" points="297,35.6 301.3,35.6 301.3,35.6 		"/>
		<polygon class="st14" points="296.7,45.8 301.4,45.8 301.4,45.8 		"/>
		<polygon class="st14" points="296.5,50.9 301.4,50.9 301.4,50.9 		"/>
		<polygon class="st14" points="296.3,56 301.4,56 301.4,56 		"/>
		<polygon class="st14" points="296.1,61 296,63.7 301.3,63.7 301.3,61 		"/>
		<polygon class="st14" points="297.2,30.5 301.3,30.5 301.3,30.5 		"/>
		<polygon class="st14" points="297.5,25.4 301.4,25.4 301.4,25.4 		"/>
		<polygon class="st15" points="301.3,56 306.4,56 306.4,56 		"/>
		<polygon class="st15" points="301.3,63.7 306.7,63.7 306.6,61 301.3,61 		"/>
		<polygon class="st15" points="301.3,30.5 305.4,30.5 305.4,30.5 		"/>
		<polygon class="st15" points="301.3,25.4 305.2,25.4 305.2,25.4 		"/>
		<polygon class="st15" points="301.3,45.8 306,45.8 306,45.8 		"/>
		<polygon class="st15" points="301.3,40.7 305.8,40.7 305.8,40.7 		"/>
		<polygon class="st15" points="301.3,50.9 306.2,50.9 306.2,50.9 		"/>
		<polygon class="st15" points="301.3,35.6 305.6,35.6 305.6,35.6 		"/>
		<polygon class="st14" points="301.3,20.3 297.7,20.3 297.5,25.4 301.3,25.4 		"/>
		<polygon class="st15" points="305.2,25.4 305,20.3 301.3,20.3 301.3,25.4 		"/>
		<polygon class="st16" points="301.3,25.4 297.5,25.4 297.2,30.5 301.3,30.5 		"/>
		<polygon class="st17" points="301.3,30.5 305.4,30.5 305.2,25.4 301.3,25.4 		"/>
		<polygon class="st14" points="301.3,30.5 297.2,30.5 297,35.6 301.3,35.6 		"/>
		<polygon class="st15" points="301.3,35.6 305.6,35.6 305.4,30.5 301.3,30.5 		"/>
		<polygon class="st16" points="301.3,35.6 297,35.6 296.8,40.7 301.3,40.7 		"/>
		<polygon class="st17" points="301.3,40.7 305.8,40.7 305.6,35.6 301.3,35.6 		"/>
		<polygon class="st14" points="301.3,40.7 296.8,40.7 296.7,45.8 301.3,45.8 		"/>
		<polygon class="st15" points="301.3,45.8 306,45.8 305.8,40.7 301.3,40.7 		"/>
		<polygon class="st16" points="301.3,45.8 296.7,45.8 296.5,50.9 301.3,50.9 		"/>
		<polygon class="st17" points="301.3,50.9 306.2,50.9 306,45.8 301.3,45.8 		"/>
		<polygon class="st14" points="301.3,50.9 296.5,50.9 296.3,56 301.3,56 		"/>
		<polygon class="st15" points="301.3,56 306.4,56 306.2,50.9 301.3,50.9 		"/>
		<polygon class="st16" points="301.3,56 296.3,56 296.1,61 301.3,61 		"/>
		<polygon class="st17" points="301.3,61 306.6,61 306.4,56 301.3,56 		"/>
		<polygon class="st18" points="325.9,35 323.3,57.1 331.4,57.1 331.4,35 		"/>
		<polygon class="st19" points="337.1,35 331.4,35 331.4,57.1 339.7,57.1 		"/>
		<polygon class="st18" points="309.3,35 306.7,57.1 314.9,57.1 314.9,35 		"/>
		<polygon class="st19" points="320.5,35 314.9,35 314.9,57.1 323,57.1 		"/>
		<rect x="340.4" y="59.1" class="st13" width="12.9" height="17.9"/>
		<polygon class="st20" points="362.6,49.1 349.8,59.1 362.6,59.1 		"/>
		<rect x="349.8" y="59.1" class="st20" width="12.9" height="17.9"/>
		<polygon class="st21" points="372,49.1 359.1,59.1 372,59.1 		"/>
		<rect x="359.1" y="59.1" class="st21" width="12.9" height="17.9"/>
		<rect x="296" y="63.7" class="st22" width="10.7" height="13.3"/>
		<rect x="323.3" y="57.1" class="st22" width="17.1" height="19.9"/>
		<rect x="308.3" y="62.5" class="st21" width="2.5" height="5.6"/>
		<rect x="313.4" y="62.5" class="st21" width="2.5" height="5.6"/>
		<rect x="318.5" y="62.5" class="st21" width="2.5" height="5.6"/>
		<rect x="325.1" y="62.5" class="st20" width="2.5" height="5.6"/>
		<rect x="330.2" y="62.5" class="st20" width="2.5" height="5.6"/>
		<rect x="335.3" y="62.5" class="st20" width="2.5" height="5.6"/>
		
			<linearGradient id="SVGID_1_" gradientUnits="userSpaceOnUse" x1="449.05" y1="696.8556" x2="453.47" y2="696.8556" gradientTransform="matrix(1 0 0 1 0 -655.8556)">
			<stop  offset="0" style="stop-color:#FFFFFF"/>
			<stop  offset="1" style="stop-color:#000000"/>
		</linearGradient>
		<path class="st23" d="M453.5,43.9l-4.4-5.8L453.5,43.9z"/>
		<path class="st24" d="M568.5,131.5h-4v-1h4c1,0,1.8-0.8,1.8-1.8l0,0V97.9c0-2.8-2.2-5-5-5h-25.7v-1h25.7c3.3,0,6,2.7,6,6v30.8
			C571.3,130.2,570,131.5,568.5,131.5z"/>
		<path class="st24" d="M493.8,131.3L493.8,131.3c0.9,0,1.6,0.7,1.6,1.5v1.8c0,0.8-0.7,1.5-1.5,1.5l0,0c-0.8,0-1.5-0.7-1.5-1.5v-1.8
			C492.3,132,493,131.3,493.8,131.3z"/>
		<path class="st25" d="M507.5,135.1c0.2-0.3,0.2-0.7,0-0.9l-0.1-0.1c-0.4-0.2-0.7-0.4-1.1-0.5c-0.3-0.1-0.7,0.1-0.8,0.5v0.1v1.9
			c0.3,0,0.5,0.1,0.8,0.3L507.5,135.1z"/>
		<path class="st25" d="M504.8,134.2c0-0.4-0.3-0.6-0.7-0.6c-0.1,0-0.1,0-0.2,0c-0.4,0.1-0.8,0.3-1.1,0.5c-0.3,0.2-0.4,0.6-0.2,0.9
			l0.1,0.1l1.3,1.3c0.2-0.2,0.5-0.3,0.8-0.3L504.8,134.2z"/>
		<path class="st25" d="M505.1,131.2c-3.7,0-6.7,3-6.7,6.6c0,3.7,3,6.7,6.6,6.7c3.7,0,6.7-3,6.7-6.6l0,0
			C511.7,134.2,508.7,131.2,505.1,131.2L505.1,131.2z M508.4,141.2c-1.8,1.8-4.8,1.8-6.7,0c-1.8-1.8-1.8-4.8,0-6.7
			c1.8-1.8,4.8-1.8,6.7,0c0.9,0.9,1.4,2.1,1.4,3.3C509.8,139.1,509.3,140.4,508.4,141.2z"/>
		<path class="st25" d="M507.9,135.5l-1.3,1.3c0.2,0.2,0.3,0.5,0.3,0.8h1.8c0.4,0,0.6-0.3,0.6-0.6c0-0.1,0-0.1,0-0.2
			c-0.1-0.4-0.3-0.8-0.5-1.1S508.2,135.3,507.9,135.5C508,135.4,507.9,135.5,507.9,135.5z"/>
		<path class="st25" d="M502.2,135.5c-0.3-0.2-0.7-0.2-0.9,0l-0.1,0.1c-0.2,0.4-0.4,0.7-0.5,1.1c-0.1,0.3,0.1,0.7,0.5,0.8h0.1h1.8
			c0-0.3,0.2-0.5,0.3-0.8L502.2,135.5z"/>
		<path class="st25" d="M501.4,138.2c-0.4,0-0.6,0.3-0.6,0.6v0.1c0.1,0.4,0.3,0.8,0.5,1.1s0.6,0.4,0.9,0.2l0.1-0.1l1.3-1.3
			c-0.2-0.2-0.3-0.5-0.3-0.8L501.4,138.2z"/>
		<path class="st25" d="M505.4,141.6c0,0.4,0.3,0.6,0.6,0.6h0.1c0.4-0.1,0.8-0.3,1.1-0.5c0.3-0.2,0.4-0.6,0.2-0.9l-0.1-0.1l-1.3-1.3
			c-0.2,0.2-0.5,0.3-0.8,0.3L505.4,141.6z"/>
		<path class="st25" d="M507.9,140.3c0.3,0.2,0.7,0.2,0.9,0l0.1-0.1c0.2-0.4,0.4-0.7,0.5-1.1c0.1-0.3-0.1-0.7-0.4-0.8
			c-0.1,0-0.1,0-0.2,0H507c0,0.3-0.2,0.5-0.3,0.8L507.9,140.3z"/>
		<path class="st25" d="M502.7,140.7c-0.2,0.3-0.2,0.7,0,0.9c0,0,0.1,0,0.1,0.1c0.4,0.2,0.7,0.4,1.1,0.5c0.3,0.1,0.7-0.1,0.8-0.5
			c0,0,0-0.1,0-0.2v-1.8c-0.3,0-0.5-0.2-0.8-0.3L502.7,140.7z"/>
		<path class="st26" d="M505.1,133.1c-2.6,0-4.8,2.1-4.8,4.7s2.1,4.8,4.7,4.8s4.8-2.1,4.8-4.7c0-1.3-0.5-2.5-1.4-3.4
			C507.5,133.6,506.3,133.1,505.1,133.1z M509.4,136.8c0.1,0.3-0.1,0.7-0.5,0.8c0,0-0.1,0-0.2,0h-1.8c0,0.1,0,0.2,0,0.3s0,0.2,0,0.3
			h1.8c0.3,0,0.6,0.3,0.6,0.6c0,0.1,0,0.1,0,0.2c-0.1,0.4-0.3,0.8-0.5,1.1s-0.6,0.4-0.9,0.2l-0.1-0.1l-1.3-1.3
			c-0.1,0.2-0.3,0.3-0.4,0.4l1.3,1.3c0.2,0.3,0.2,0.7,0,0.9l-0.1,0.1c-0.4,0.2-0.7,0.4-1.1,0.5c-0.3,0.1-0.7-0.1-0.8-0.5v-0.1v-1.8
			c-0.1,0-0.2,0-0.3,0s-0.2,0-0.3,0v1.8c0,0.4-0.3,0.6-0.7,0.6c-0.1,0-0.1,0-0.2,0c-0.4-0.1-0.8-0.3-1.1-0.5
			c-0.3-0.2-0.4-0.6-0.2-0.9c0,0,0-0.1,0.1-0.1l1.3-1.3c-0.2-0.1-0.3-0.3-0.4-0.4l-1.3,1.3c-0.3,0.2-0.7,0.2-0.9,0l-0.1-0.1
			c-0.2-0.4-0.4-0.7-0.5-1.1c-0.1-0.3,0.1-0.7,0.5-0.8h0.1h1.8c0-0.1,0-0.2,0-0.3s0-0.2,0-0.3h-1.8c-0.4,0-0.6-0.3-0.6-0.7v-0.1
			c0.1-0.4,0.3-0.8,0.5-1.1s0.6-0.4,0.9-0.2l0.1,0.1l1.3,1.3c0.1-0.2,0.3-0.3,0.4-0.4l-1.3-1.3c-0.3-0.2-0.3-0.7,0-0.9l0.1-0.1
			c0.4-0.2,0.7-0.4,1.1-0.5c0.3-0.1,0.7,0.1,0.8,0.5c0,0,0,0.1,0,0.2v1.9c0.1,0,0.2,0,0.3,0s0.2,0,0.3,0v-1.9c0-0.4,0.3-0.6,0.6-0.6
			h0.1c0.4,0.1,0.8,0.3,1.1,0.5c0.3,0.2,0.4,0.6,0.2,0.9l-0.1,0.1l-1.3,1.3c0.2,0.1,0.3,0.3,0.4,0.4l1.3-1.3c0.3-0.2,0.7-0.2,0.9,0
			l0.1,0.1C509.1,136,509.3,136.4,509.4,136.8L509.4,136.8z"/>
		<path class="st26" d="M506.5,136.9c-0.1-0.2-0.3-0.3-0.5-0.4l0.1-0.1c-0.2-0.2-0.5-0.3-0.8-0.3v0.1c-0.2,0-0.4,0-0.6,0v-0.1
			c-0.3,0-0.5,0.1-0.8,0.3v0.1c-0.2,0.1-0.3,0.3-0.4,0.4h-0.1c-0.2,0.2-0.3,0.5-0.3,0.8h0.1c-0.1,0.2-0.1,0.4,0,0.6h-0.1
			c0,0.3,0.2,0.5,0.3,0.8l0.1-0.1c0.1,0.2,0.3,0.3,0.4,0.4l-0.1,0.1c0.2,0.2,0.5,0.3,0.8,0.3v-0.1c0.2,0,0.4,0,0.6,0v0.1
			c0.3,0,0.5-0.2,0.8-0.3l-0.1-0.1c0.2-0.1,0.3-0.3,0.4-0.4l0.1,0.1c0.2-0.2,0.3-0.5,0.3-0.8h-0.1c0.1-0.2,0.1-0.4,0-0.6h0.1
			C506.8,137.4,506.7,137.1,506.5,136.9L506.5,136.9z"/>
		<path class="st26" d="M504,136.4L504,136.4c-0.2,0.1-0.3,0.2-0.4,0.4h0.1C503.7,136.7,503.9,136.5,504,136.4z"/>
		<path class="st26" d="M503.3,137.9c0-0.1,0-0.2,0-0.3h-0.1C503.2,137.7,503.2,137.8,503.3,137.9c-0.1,0.1-0.1,0.2-0.1,0.3h0.1
			C503.3,138.1,503.3,138,503.3,137.9z"/>
		<path class="st26" d="M503.6,138.9L503.6,138.9c0.1,0.2,0.2,0.4,0.4,0.5l0.1-0.1C503.9,139.2,503.7,139.1,503.6,138.9z"/>
		<path class="st26" d="M505.1,136.1c0.1,0,0.2,0,0.3,0l0,0C505.3,136.1,505.2,136.1,505.1,136.1s-0.2,0-0.3,0v0.1
			C504.9,136.1,505,136.1,505.1,136.1z"/>
		<path class="st26" d="M505.1,139.7c-0.1,0-0.2,0-0.3,0v0.1C504.9,139.8,505,139.8,505.1,139.7c0.1,0.1,0.2,0.1,0.3,0.1v-0.1
			C505.3,139.7,505.2,139.7,505.1,139.7z"/>
		<path class="st26" d="M506.1,139.3L506.1,139.3c0.2-0.1,0.4-0.2,0.5-0.4l-0.1-0.1C506.4,139.1,506.3,139.2,506.1,139.3z"/>
		<path class="st26" d="M506.5,136.9L506.5,136.9c-0.1-0.2-0.2-0.4-0.4-0.5l-0.1,0.1C506.3,136.5,506.4,136.7,506.5,136.9z"/>
		<path class="st26" d="M506.9,137.9c0,0.1,0,0.2,0,0.3h0.1c0-0.1,0-0.2,0-0.3s0-0.2,0-0.3h-0.1
			C506.9,137.7,506.9,137.8,506.9,137.9z"/>
		<path class="st25" d="M560.2,135.1c0.3-0.2,0.3-0.6,0-0.9l-0.1-0.1c-0.4-0.2-0.7-0.4-1.1-0.5c-0.3-0.1-0.7,0.1-0.8,0.5v0.1v1.9
			c0.3,0,0.5,0.1,0.8,0.3L560.2,135.1z"/>
		<path class="st25" d="M557.6,134.2c0-0.4-0.3-0.6-0.7-0.6c-0.1,0-0.1,0-0.2,0c-0.4,0.1-0.8,0.3-1.1,0.5c-0.3,0.2-0.4,0.6-0.2,0.9
			l0.1,0.1l1.3,1.3c0.2-0.2,0.5-0.3,0.8-0.3V134.2L557.6,134.2z"/>
		<path class="st25" d="M561.5,137.6c0.4,0,0.6-0.3,0.6-0.6c0-0.1,0-0.1,0-0.2c-0.1-0.4-0.3-0.8-0.5-1.1c-0.2-0.3-0.6-0.4-0.9-0.2
			l-0.1,0.1l-1.3,1.3c0.2,0.2,0.3,0.5,0.3,0.8h1.9V137.6z"/>
		<path class="st26" d="M559.3,136.9L559.3,136.9c-0.1-0.2-0.2-0.4-0.4-0.5l-0.1,0.1C559.1,136.5,559.2,136.7,559.3,136.9z"/>
		<path class="st25" d="M560.7,140.3c0.3,0.2,0.7,0.2,0.9,0l0.1-0.1c0.2-0.4,0.4-0.7,0.5-1.1c0.1-0.3-0.1-0.7-0.4-0.8
			c-0.1,0-0.1,0-0.2,0h-1.8c0,0.3-0.2,0.5-0.3,0.8L560.7,140.3z"/>
		<path class="st25" d="M555.8,140.7c-0.2,0.3-0.2,0.7,0,0.9c0,0,0.1,0,0.1,0.1c0.4,0.2,0.7,0.4,1.1,0.5c0.3,0.1,0.7-0.1,0.8-0.5
			c0-0.1,0-0.1,0-0.2v-1.8c-0.3,0-0.5-0.2-0.8-0.3L555.8,140.7z"/>
		<path class="st25" d="M558.5,141.6c0,0.4,0.3,0.6,0.6,0.6h0.1c0.4-0.1,0.8-0.3,1.2-0.5c0.3-0.2,0.4-0.6,0.2-0.9l-0.1-0.1l-1.3-1.3
			c-0.2,0.2-0.5,0.3-0.8,0.3L558.5,141.6L558.5,141.6z"/>
		<path class="st25" d="M554.5,137.6h1.9c0-0.3,0.2-0.5,0.3-0.8l-1.3-1.3c-0.3-0.2-0.7-0.2-0.9,0l-0.1,0.1c-0.2,0.4-0.4,0.7-0.5,1.1
			C553.8,137,554,137.4,554.5,137.6C554.4,137.6,554.4,137.6,554.5,137.6z"/>
		<path class="st25" d="M554.5,138.2c-0.4,0-0.6,0.3-0.6,0.7v0.1c0.1,0.4,0.3,0.8,0.5,1.1c0.2,0.3,0.6,0.4,0.9,0.2l0.1-0.1l1.3-1.3
			c-0.2-0.2-0.3-0.5-0.3-0.8L554.5,138.2z"/>
		<path class="st25" d="M551.7,136.3c-0.1,0.5-0.2,1.1-0.2,1.6c0,3.7,3,6.7,6.6,6.7c3.6,0,6.7-3,6.7-6.6s-2.8-6.5-6.4-6.6
			C555.4,131.4,552.7,133.4,551.7,136.3z M558.2,133.1c2.6,0,4.8,2.1,4.8,4.7c0,2.6-2.1,4.8-4.7,4.8s-4.8-2.1-4.8-4.7
			c0-1.3,0.5-2.5,1.4-3.4C555.7,133.6,556.9,133.1,558.2,133.1z"/>
		<path class="st26" d="M554.8,141.2c1.8,1.9,4.9,1.9,6.7,0l0,0c1.9-1.9,1.8-4.9,0-6.7c-0.9-0.9-2.1-1.4-3.3-1.4
			c-2.6,0-4.7,2.1-4.7,4.7C553.4,139.1,553.9,140.4,554.8,141.2z M553.9,136.8c0.1-0.4,0.3-0.8,0.5-1.1c0.2-0.3,0.6-0.4,0.9-0.2
			l0.1,0.1l1.3,1.3c0.1-0.2,0.3-0.3,0.5-0.4l-1.3-1.3c-0.2-0.3-0.2-0.7,0-0.9l0.1-0.1c0.4-0.2,0.7-0.4,1.1-0.5
			c0.3-0.1,0.7,0.1,0.8,0.5c0,0.1,0,0.1,0,0.2v1.9c0.2-0.1,0.4-0.1,0.6,0v-1.9c0-0.4,0.3-0.6,0.6-0.6h0.1c0.4,0.1,0.8,0.3,1.2,0.5
			c0.3,0.2,0.4,0.6,0.2,0.9c0,0.1-0.1,0.1-0.1,0.1l-1.3,1.3c0.2,0.1,0.3,0.3,0.4,0.4l1.3-1.3c0.3-0.2,0.7-0.2,0.9,0l0.1,0.1
			c0.2,0.4,0.4,0.7,0.5,1.1c0.1,0.3-0.1,0.7-0.5,0.8c-0.1,0-0.1,0-0.2,0H560c0,0.1,0,0.2,0,0.3s0,0.2,0,0.3h1.8
			c0.4,0,0.6,0.3,0.6,0.6v0.1c-0.1,0.4-0.3,0.8-0.5,1.1c-0.2,0.3-0.6,0.4-0.9,0.2l-0.1-0.1l-1.3-1.3c-0.1,0.2-0.3,0.3-0.4,0.4
			l1.3,1.3c0.3,0.2,0.3,0.7,0,0.9l-0.1,0.1c-0.4,0.2-0.8,0.4-1.2,0.5c-0.3,0.1-0.7-0.1-0.8-0.5v-0.1v-1.8c-0.2,0-0.4,0-0.6,0v1.8
			c0,0.4-0.3,0.6-0.6,0.6c-0.1,0-0.1,0-0.2,0c-0.4-0.1-0.8-0.3-1.1-0.5s-0.4-0.6-0.2-0.9c0,0,0-0.1,0.1-0.1l1.3-1.3
			c-0.2-0.1-0.3-0.3-0.4-0.4l-1.3,1.3c-0.3,0.2-0.7,0.2-0.9,0l-0.1-0.1c-0.2-0.4-0.4-0.7-0.5-1.1c-0.1-0.3,0.1-0.7,0.5-0.8h0.1h1.9
			c0-0.1,0-0.2,0-0.3s0-0.2,0-0.3h-1.9c-0.4,0-0.6-0.3-0.6-0.7C553.8,136.9,553.8,136.8,553.9,136.8L553.9,136.8z"/>
		<path class="st26" d="M556.4,137.6c-0.1,0.2-0.1,0.4,0,0.6h-0.1c0,0.3,0.2,0.5,0.3,0.8l0.1-0.1c0.1,0.2,0.3,0.3,0.4,0.4l-0.1,0.1
			c0.2,0.2,0.5,0.3,0.8,0.3v-0.1c0.2,0,0.4,0,0.6,0v0.1c0.3,0,0.5-0.2,0.8-0.3l-0.1-0.1c0.2-0.1,0.3-0.3,0.4-0.4l0.1,0.1
			c0.2-0.2,0.3-0.5,0.3-0.8h-0.1c0.1-0.2,0.1-0.4,0-0.6h0.1c0-0.3-0.2-0.5-0.3-0.8l-0.1,0.1c-0.1-0.2-0.3-0.3-0.4-0.4l0.1-0.1
			c-0.2-0.2-0.5-0.3-0.8-0.3v0.1c-0.2,0-0.4,0-0.6,0v-0.1c-0.3,0-0.5,0.1-0.8,0.3l0.1,0.1c-0.2,0.1-0.3,0.3-0.5,0.4h-0.1
			C556.5,137.1,556.4,137.4,556.4,137.6L556.4,137.6z"/>
		<path class="st26" d="M558.2,139.7c-0.1,0-0.2,0-0.3,0v0.1c0.2,0,0.4,0,0.6,0v-0.1C558.4,139.7,558.3,139.7,558.2,139.7z"/>
		<path class="st26" d="M556.4,137.9c0-0.1,0-0.2,0-0.3h-0.1C556.3,137.7,556.3,137.8,556.4,137.9c-0.1,0.1-0.1,0.2-0.1,0.3h0.1
			C556.4,138.1,556.4,138,556.4,137.9z"/>
		<path class="st26" d="M556.7,138.9L556.7,138.9c0.1,0.2,0.2,0.4,0.4,0.5l0.1-0.1C557,139.2,556.8,139.1,556.7,138.9z"/>
		<path class="st26" d="M559.2,139.3L559.2,139.3c0.2-0.1,0.4-0.2,0.5-0.4l-0.1-0.1C559.5,139.1,559.4,139.2,559.2,139.3z"/>
		<path class="st26" d="M556.8,136.4L556.8,136.4c-0.2,0.1-0.4,0.2-0.5,0.4h0.1C556.5,136.7,556.7,136.5,556.8,136.4z"/>
		<path class="st26" d="M557.9,136.1c0.1,0,0.2,0,0.3,0l0,0C558.1,136.1,558,136.1,557.9,136.1c-0.1,0-0.2,0-0.3,0v0.1
			C557.7,136.1,557.8,136.1,557.9,136.1z"/>
		<path class="st26" d="M559.6,137.9c0,0.1,0,0.2,0,0.3h0.1c0-0.1,0-0.2,0-0.3s0-0.2,0-0.3h-0.1
			C559.7,137.7,559.7,137.8,559.6,137.9z"/>
		<path class="st10" d="M564.5,123.3l-1.8-0.8l-2.7-3.3l2.2-1c-0.8-1.3-1.6-2.6-2.6-3.7l0,0c-2.4-2.7-5.7-4.4-9.2-4.8l-6-0.6
			c0.2,0.4,0.3,0.9,0.4,1.3h0.1c0,0,6,0.3,9.8,2.4c3.8,2.1-6.3,6.6-6.3,6.6h-3.1l0,0c-0.3,3.7-0.8,7.3-1.6,10.9
			c-0.7,3.3-3.7,5.7-7.1,5.7h-19.7c0,0-4.8-10.5-3-20.7l-6.1,4.2l-9.3,5c-2.7,1.5-4.5,4.2-4.7,7.3l-0.4,5.5l3.1,1.5v-1.3
			c0-4.5,3.6-8.1,8.1-8.1h0.2c4.5,0,8.2,3.6,8.2,8.1l0,0v1.3h38v-0.1c0-0.9,0.2-1.7,0.4-2.5c0.8-2.9,3.4-5,6.4-5h0.3h0.4h0.8
			c3.1,0,5.5,2.5,5.5,5.5v0.1l0,0c1.3,0,2.3-1.1,2.3-2.3c0-0.2,0-0.4-0.1-0.5l-0.6-2.7l0,0l-1.5-6.4
			C564.8,124.3,564.7,123.8,564.5,123.3z"/>
		<path class="st10" d="M532.5,107.8c-4.2-0.4-8.5,0.6-12,3l-1,0.6C523,109.1,528.2,107.4,532.5,107.8z"/>
		<path class="st10" d="M551.4,136.3c1-2.9,3.7-4.9,6.7-5h-0.3C554.8,131.3,552.2,133.3,551.4,136.3z"/>
		<path class="st27" d="M545.3,119.5h3.1c0,0,10.1-4.5,6.3-6.6c-3.8-2.1-9.8-2.4-9.8-2.4h-0.1C545.4,113.4,545.6,116.4,545.3,119.5z
			"/>
		
			<rect x="513.3" y="112.9" transform="matrix(0.8257 -0.5641 0.5641 0.8257 26.084 311.2308)" class="st26" width="6.8" height="1"/>
		<path class="st28" d="M516.9,136h19.7c3.4,0,6.4-2.4,7.1-5.7c0.8-3.6,1.4-7.2,1.6-10.9l0,0l-31,0.4c2.7-5.9,8.5-9.8,15-10.1
			c5.2-0.1,10.3,0.1,15.5,0.7c-0.1-0.5-0.2-0.9-0.4-1.3l-11.9-1.2c-4.2-0.4-9.4,1.3-13,3.7l-5.6,3.8
			C512.1,125.5,516.9,136,516.9,136z"/>
		<path class="st27" d="M529.3,109.7c-6.5,0.4-12.3,4.3-15,10.1l31-0.4c0.3-3,0.1-6.1-0.5-9.1l0,0
			C539.7,109.8,534.5,109.6,529.3,109.7z"/>
		<path class="st29" d="M518,117.8c2.7-3.6,6.9-5.8,11.5-6c0.8,0,1.7-0.1,2.7-0.1c4,0,8.6,0.4,11,0.6c0.1,0.9-5.5,1.1-10.2,1.2
			c-4,0-8,1-11.7,2.7L518,117.8z"/>
		<path class="st30" d="M562.7,122.6l1.8,0.8c-0.5-1.8-1.3-3.5-2.2-5.1l-2.2,1L562.7,122.6z"/>
		<path class="st31" d="M536.8,87.3h-3.3v10.4h3.3c2.7-0.1,4.8-2.4,4.7-5.2l0,0l0,0v-0.1C541.7,89.8,539.6,87.5,536.8,87.3
			L536.8,87.3z"/>
		<path class="st24" d="M526.3,88.2c-0.4,0-0.8,0.3-0.8,0.8l0,0l0,0c0,0.4,0.3,0.8,0.8,0.8l0,0h4.5v-1.5L526.3,88.2z"/>
		<path class="st24" d="M526.3,95.4c-0.4,0-0.8,0.3-0.8,0.8l0,0c0,0.4,0.3,0.8,0.7,0.8l0,0h4.5v-1.5L526.3,95.4z"/>
		<polygon class="st9" points="530.8,86.5 530.8,88.2 530.8,89.8 530.8,95.4 530.8,96.9 530.8,98.6 533.5,98.6 533.5,97.8 
			533.5,87.3 533.5,86.5 		"/>
		<polygon class="st32" points="529.2,127.1 526,134.6 533.3,127.1 529.8,127.1 		"/>
		<polygon class="st32" points="528.5,129 531.7,121.4 524.5,129 528,129 		"/>
		
			<rect x="591.1" y="86.4" transform="matrix(1 -2.792501e-03 2.792501e-03 1 -0.2501 1.768)" class="st33" width="83.8" height="8.1"/>
		
			<rect x="591.1" y="63.3" transform="matrix(1 -2.792501e-03 2.792501e-03 1 -0.2066 1.7679)" class="st10" width="83.8" height="23.1"/>
		
			<rect x="591" y="21.4" transform="matrix(1 -2.792501e-03 2.792501e-03 1 -0.1158 1.7675)" class="st34" width="83.8" height="41.9"/>
		<polygon class="st35" points="671.9,44.3 672,86.4 618,86.5 617.9,44.5 644.8,19.9 		"/>
		<g>
			<polygon class="st36" points="617.9,48.7 616,46.7 646.2,19.9 675.6,45.7 673.7,47.8 646.2,23.6 			"/>
		</g>
		<polygon class="st36" points="616.6,47.3 614.8,45.3 644.9,18.1 675,45.1 673.2,47.2 644.9,21.8 		"/>
		
			<rect x="618" y="86.4" transform="matrix(1 -2.792501e-03 2.792501e-03 1 -0.2501 1.8015)" class="st37" width="54" height="8.1"/>
		
			<rect x="639.2" y="65.5" transform="matrix(1 -2.792501e-03 2.792501e-03 1 -0.2097 1.8015)" class="st38" width="11.6" height="21"/>
		
			<rect x="622.5" y="61.8" transform="matrix(1 -2.792501e-03 2.792501e-03 1 -0.1932 1.7535)" class="st27" width="10.7" height="16.5"/>
		<g>
			<path class="st39" d="M634.7,79.8H623V62.3h11.7V79.8z M624,78.9h9.7V63.3H624V78.9z"/>
		</g>
		<path class="st40" d="M633.7,78.9H622V61.4h11.7V78.9z M623,77.9h9.7V62.3H623V77.9z"/>
		
			<rect x="658.3" y="61.7" transform="matrix(1 -2.792501e-03 2.792501e-03 1 -0.1928 1.8514)" class="st27" width="9.2" height="16.5"/>
		<g>
			<path class="st39" d="M668.9,79.7h-10.1V62.2h10.1V79.7z M659.8,78.7h8.2V63.2h-8.2V78.7z"/>
		</g>
		<path class="st40" d="M668,78.8h-10.1V61.3H668V78.8z M658.8,77.8h8.2V62.3h-8.2V77.8z"/>
		
			<rect x="634.8" y="38.6" transform="matrix(1 -2.792501e-03 2.792501e-03 1 -0.1283 1.8011)" class="st27" width="20.2" height="16.5"/>
		<g>
			<path class="st39" d="M656.5,56.6h-21.2V39.1h21.2V56.6z M636.3,55.7h19.2V40.1h-19.2V55.7z"/>
		</g>
		<path class="st40" d="M655.5,55.6l-21.1,0.1V38.2l21.2-0.1L655.5,55.6z M635.3,54.7h19.2V39.2l-19.2,0.1V54.7z"/>
		<g>
			<polygon class="st41" points="653.4,71.3 638.8,71.3 634.3,66.9 653.4,61.8 			"/>
		</g>
		<polygon class="st34" points="650.5,66.9 634.3,66.9 637.2,61.8 653.4,61.8 		"/>
		
			<rect x="634.3" y="66.5" transform="matrix(1 -2.792501e-03 2.792501e-03 1 -0.1836 1.7942)" class="st42" width="16.2" height="0.3"/>
		
			<rect x="637.4" y="86.4" transform="matrix(1 -2.792501e-03 2.792501e-03 1 -0.2425 1.8015)" class="st43" width="15.2" height="2.7"/>
		
			<rect x="636.1" y="89.1" transform="matrix(1 -2.792501e-03 2.792501e-03 1 -0.2501 1.8017)" class="st44" width="17.9" height="2.7"/>
		
			<rect x="635" y="91.8" transform="matrix(1 -2.792501e-03 2.792501e-03 1 -0.2576 1.8017)" class="st45" width="20.1" height="2.7"/>
		<path class="st46" d="M644.9,39v16.1V39z"/>
		<g>
			
				<rect x="645.5" y="39.9" transform="matrix(1 -2.792501e-03 2.792501e-03 1 -0.1315 1.8043)" class="st39" width="1.1" height="16.2"/>
		</g>
		
			<rect x="644.4" y="39" transform="matrix(1 -2.792501e-03 2.792501e-03 1 -0.129 1.8012)" class="st40" width="1.1" height="16.2"/>
		<path class="st47" d="M586.7,45.1h11.2c3.5,0,6.4,2.9,6.4,6.4v21.6c0,3.5-2.9,6.4-6.4,6.4h-11.2c-3.5,0-6.4-2.9-6.4-6.4V51.5
			C580.3,48,583.1,45.1,586.7,45.1z"/>
		<path class="st8" d="M592.3,77.9L592.3,77.9c-1.3,0-2.5-0.8-3.1-2l-1-2.2c-0.2-0.4-0.3-0.9-0.3-1.4v-6.5c0-1.7,1.3-3,3-3h2.8
			c1.7,0,3,1.3,3,3v6.5c0,0.5-0.1,1-0.3,1.4l-1,2.2C594.8,77.2,593.6,77.9,592.3,77.9z"/>
		<path class="st8" d="M602.5,89.1h-4.1c-4.4,0-8-3.6-8-8v-5.6h3.8v5.6c0,2.3,1.9,4.2,4.2,4.2h4.1c2.3,0,4.2-1.9,4.2-4.2V67.9
			c0-4.2-2.1-4.2-2.8-4.2v-3.8c4.1,0,6.6,3.1,6.6,8V81C610.5,85.5,606.9,89.1,602.5,89.1z"/>
		<path class="st48" d="M594,59.5c0,0.9-0.8,1.7-1.7,1.7c-0.9,0-1.7-0.8-1.7-1.7s0.8-1.7,1.7-1.7l0,0C593.2,57.8,594,58.5,594,59.5z
			"/>
		<path class="st48" d="M594,53.9c0,0.9-0.8,1.7-1.7,1.7c-0.9,0-1.7-0.8-1.7-1.7s0.8-1.7,1.7-1.7l0,0C593.2,52.2,594,53,594,53.9z"
			/>
		<g>
			<circle class="st49" cx="711.5" cy="24.9" r="24.9"/>
		</g>
		<path class="st27" d="M720.4,13.2l2.6-2.9c-2.8-0.8-5.8,0.8-6.6,3.6c-0.3,1.1-0.3,2.4,0.2,3.5l-15.4,17.1
			c-0.9,0.9-0.8,2.4,0.2,3.3l0,0L702,37c-0.4-0.3-0.4-0.8-0.1-1.2c0.3-0.4,0.8-0.4,1.2-0.1c0,0,0,0,0.1,0.1L718,19.4l1.9-2l0.8-0.8
			l0,0C719.6,15.6,719.5,14.2,720.4,13.2C720.3,13.2,720.3,13.2,720.4,13.2z"/>
		<path class="st24" d="M726.4,13.4l-2.6,2.9c-0.9,0.9-2.3,1-3.3,0.2l0,0l-17.4,19.2c0.3,0.3,0.4,0.8,0.1,1.2
			c-0.3,0.3-0.8,0.4-1.2,0.1l-0.7,0.8l0,0c0.9,0.9,2.4,0.8,3.3-0.2L720,20.5c2.8,0.8,5.8-0.8,6.6-3.7
			C726.9,15.7,726.8,14.5,726.4,13.4L726.4,13.4z"/>
		<path class="st24" d="M712.4,27.9l-0.3,0.3l-12.9-13.9l-0.8-0.5l0,0c-0.4-0.1-0.7-0.3-1-0.6c-0.7-1.1-2.1-3.4-2.1-3.4l0.2-0.2
			L712.4,27.9z"/>
		<path class="st27" d="M712.4,27.9l0.3-0.3L700,13.8c-0.1-0.3-0.4-0.8-0.5-1.1l0,0c-0.1-0.4-0.3-0.8-0.6-1c-1-0.7-3.1-2.2-3.1-2.2
			l-0.2,0.2L712.4,27.9z"/>
		<path class="st30" d="M710.7,22.6l10.9,11.9c0.8,0.9,0.8,2.4-0.2,3.3l0,0l-14.7-16.1l0,0C707.7,20.8,708.5,20.4,710.7,22.6z"/>
		<path class="st50" d="M706.8,21.7L706.8,21.7l14.7,16.1l0,0c-0.9,0.9-2.4,0.8-3.3-0.2l-10.9-11.9
			C705.3,23.7,705.8,22.5,706.8,21.7z"/>
		<g>
			<circle class="st49" cx="721.4" cy="97.7" r="23.5"/>
		</g>
		<path class="st7" d="M721.5,88.9v21.5h16.2V88.6c-0.2,0.2-0.4,0.3-0.7,0.3H721.5z M730.3,102.1c-1.7,0-3-1.3-3-3s1.3-3,3-3
			s3,1.3,3,3S731.9,102.1,730.3,102.1L730.3,102.1z"/>
		<path class="st51" d="M705.9,88.9c-0.3,0-0.5-0.1-0.7-0.3v21.8h16.2V88.9H705.9z M713.4,102.2c-1.7,0-3-1.3-3-3s1.3-3,3-3
			c1.7,0,3,1.3,3,3S715.1,102.2,713.4,102.2L713.4,102.2z"/>
		<path class="st52" d="M713.4,96.3c-1.7,0-3,1.3-3,3s1.3,3,3,3c1.7,0,3-1.3,3-3S715.1,96.3,713.4,96.3z M711.1,99.7v-1h4.6v1H711.1
			z"/>
		<rect x="711.1" y="98.8" class="st53" width="4.6" height="1"/>
		<path class="st54" d="M730.3,96.2c-1.7,0-3,1.3-3,3s1.3,3,3,3s3-1.3,3-3l0,0C733.3,97.5,731.9,96.2,730.3,96.2z M732.6,99.6h-1.8
			v1.8h-1v-1.8H728v-1h1.8v-1.8h1v1.8h1.8V99.6z"/>
		<rect x="729.8" y="99.6" class="st53" width="1" height="1.8"/>
		<rect x="729.8" y="96.8" class="st53" width="1" height="1.8"/>
		<rect x="730.7" y="98.7" class="st53" width="1.8" height="1"/>
		<rect x="728" y="98.7" class="st53" width="1.8" height="1"/>
		<rect x="729.8" y="98.7" class="st53" width="1" height="1"/>
		<path class="st52" d="M713.2,83.8c0-0.7-0.5-1.2-1.2-1.2l0,0h-3.1c-0.7,0-1.2,0.5-1.2,1.2l0,0v1.4h5.5L713.2,83.8L713.2,83.8z"/>
		<path class="st54" d="M735.2,83.8c0-0.7-0.5-1.2-1.2-1.2l0,0h-3.1c-0.7,0-1.2,0.5-1.2,1.2l0,0v1.4h5.5L735.2,83.8L735.2,83.8z"/>
		<path class="st55" d="M738,86.2v1.7c0,0.3-0.1,0.5-0.3,0.7s-0.4,0.3-0.7,0.3h-15.5v-3.7H737C737.5,85.2,738,85.7,738,86.2z"/>
		<rect x="713.2" y="85.2" class="st10" width="8.2" height="1.2"/>
		<path class="st10" d="M707.7,86.5v-1.2h-1.8c-0.6,0-1,0.4-1,1V88c0,0.3,0.1,0.5,0.3,0.7v-2.2H707.7z"/>
		<path class="st10" d="M721.5,88.9v-2.4h-16.2v2.2c0.2,0.2,0.4,0.3,0.7,0.3L721.5,88.9L721.5,88.9z"/>
		<rect x="707.7" y="85.2" class="st10" width="5.5" height="1.2"/>
		<path class="st53" d="M379.3,96.1h-3.1c-2.2,0-4-1.8-4-4v-14h1v14.1c0,1.7,1.3,3,3,3h3.1c1.7,0,3-1.3,3-3V72.9h1v19.3
			C383.3,94.4,381.5,96.1,379.3,96.1z"/>
		<rect x="381.4" y="67.9" class="st56" width="3.5" height="5.2"/>
		<path class="st56" d="M372.8,67.3L372.8,67.3c0,3.2-1.3,6.3-3.5,8.6l-1.4,1.4v-10H372.8z"/>
		<path class="st54" d="M376.4,69.1h3.5c2.1,0,3.8,1.7,3.8,3.8l0,0v21.2c0,2.1-1.7,3.8-3.8,3.8l0,0h-3.5v15.4h11.7v-49h-11.7
			C376.4,64.3,376.4,69.1,376.4,69.1z"/>
		<path class="st57" d="M372.9,98c-2.1,0-3.8-1.7-3.8-3.8l0,0V72.9c0-2.1,1.7-3.8,3.8-3.8l0,0h3.5v-4.8h-11.7v49.1h11.7V98H372.9z"
			/>
		<polygon class="st34" points="376.4,61.3 363.6,61.3 363.6,64.3 364.7,64.3 376.4,64.3 		"/>
		<polygon class="st57" points="376.4,61.3 376.4,64.3 388.1,64.3 389.2,64.3 389.2,61.3 		"/>
		<path class="st7" d="M370.6,71c0,0,3.2,1.6,3.2,3.8s0,4,0,4h-1.6c0,0-0.4-3.7-1.9-4.1S370.6,71,370.6,71z"/>
		<rect x="363.2" y="113.3" class="st33" width="13.2" height="7.4"/>
		<rect x="376.4" y="113.3" class="st47" width="13.2" height="7.4"/>
		<rect x="395.3" y="113.3" class="st37" width="9.5" height="7.4"/>
		<rect x="404.8" y="113.3" class="st33" width="9.5" height="7.4"/>
		<rect x="403.3" y="72.3" class="st33" width="1.5" height="41"/>
		<rect x="404.8" y="72.3" class="st47" width="1.5" height="41"/>
		<path class="st34" d="M404.8,81h-7.4c-1.1,0-2.1-0.9-2.1-2l0,0V62.8c0-1.1,0.9-2,2.1-2h7.4V81z"/>
		<path class="st57" d="M404.8,81h7.4c1.1,0,2.1-0.9,2.1-2l0,0V62.8c0-1.1-0.9-2-2.1-2h-7.4V81z"/>
		<path class="st29" d="M404.8,79.8h-6.5c-1.1,0-2.1-0.9-2.1-2.1V64c0-1.1,0.9-2.1,2.1-2.1h6.5V79.8z"/>
		<path class="st58" d="M411.3,79.8h-6.5V62h6.5c1.1,0,2.1,0.9,2.1,2.1v13.7C413.3,78.8,412.4,79.8,411.3,79.8z"/>
		<polygon class="st31" points="405.1,68.8 402.5,76.3 408.4,68.8 405.5,68.8 		"/>
		<polygon class="st31" points="404.5,70.7 407.1,63.1 401.2,70.7 404.1,70.7 		"/>
		<path class="st24" d="M437.2,99.2h-1.6c-2,0-3.7-1.7-3.7-3.7l0,0V87c0-2.1,1.7-3.7,3.7-3.7h14.2v0.8h-14.2c-1.6,0-2.9,1.3-2.9,2.9
			v8.5c0,1.6,1.3,2.9,2.9,2.9h1.6V99.2z"/>
		<path class="st31" d="M452.1,79.6h2.7V88h-2.7c-2.2-0.1-3.9-2-3.8-4.2l0,0l0,0l0,0C448.2,81.6,449.9,79.7,452.1,79.6L452.1,79.6z"
			/>
		<path class="st24" d="M460.7,80.3c0.3,0,0.6,0.3,0.6,0.6l0,0l0,0c0,0.3-0.3,0.6-0.6,0.6l0,0H457v-1.2H460.7z"/>
		<path class="st24" d="M460.7,86.1c0.3,0,0.6,0.3,0.6,0.6l0,0l0,0c0,0.3-0.3,0.6-0.6,0.6l0,0H457v-1.2H460.7z"/>
		<polygon class="st9" points="457,78.9 457,80.3 457,81.5 457,86.1 457,87.3 457,88.7 454.8,88.7 454.8,88 454.8,79.6 454.8,78.9 
					"/>
		<path class="st47" d="M451.9,103.1l1.7,6.3c0.2,0.9,1.2,1.5,2.1,1.2c0.3-0.1,0.6-0.2,0.8-0.5l10.8-11.3l-10.9,1.7l-4.6,1.6
			L451.9,103.1z"/>
		<rect x="436.5" y="98.2" class="st51" width="12.8" height="1.1"/>
		<path class="st51" d="M439.1,102.4c-6.4,0-11.5,5.2-11.5,11.5s5.2,11.5,11.5,11.5s11.5-5.2,11.5-11.5l0,0
			C450.6,107.6,445.4,102.4,439.1,102.4z M439.1,124.7c-5.9,0-10.7-4.8-10.7-10.7c0-5.9,4.8-10.7,10.7-10.7s10.7,4.8,10.7,10.7l0,0
			C449.8,119.9,445,124.7,439.1,124.7L439.1,124.7z"/>
		<path class="st53" d="M439.1,103.2c-5.9,0-10.7,4.8-10.7,10.7c0,5.9,4.8,10.7,10.7,10.7s10.7-4.8,10.7-10.7S445,103.2,439.1,103.2
			L439.1,103.2z M439.1,123.9c-5.5,0-9.9-4.4-9.9-9.9s4.4-9.9,9.9-9.9s9.9,4.4,9.9,9.9S444.6,123.9,439.1,123.9z"/>
		<rect x="439" y="103.2" class="st51" width="0.2" height="21.7"/>
		
			<rect x="439" y="103.2" transform="matrix(0.7071 -0.7071 0.7071 0.7071 47.9555 343.869)" class="st51" width="0.2" height="21.7"/>
		<rect x="428.2" y="114" class="st51" width="21.7" height="0.2"/>
		
			<rect x="428.2" y="114" transform="matrix(0.7069 -0.7074 0.7074 0.7069 47.9958 344.0356)" class="st51" width="21.7" height="0.2"/>
		
			<rect x="439" y="103.2" transform="matrix(0.9249 -0.3801 0.3801 0.9249 -10.3892 175.4597)" class="st51" width="0.2" height="21.7"/>
		
			<rect x="439" y="103.2" transform="matrix(0.3853 -0.9228 0.9228 0.3853 164.6452 475.2686)" class="st51" width="0.2" height="21.7"/>
		
			<rect x="428.2" y="114" transform="matrix(0.9251 -0.3796 0.3796 0.9251 -10.4501 175.2146)" class="st51" width="21.7" height="0.2"/>
		<polygon class="st51" points="435,124.1 434.8,124.1 443.2,104 443.4,104.1 		"/>
		<path class="st51" d="M475.4,102.4c-6.4,0-11.5,5.2-11.5,11.5s5.2,11.5,11.5,11.5s11.5-5.2,11.5-11.5l0,0
			C486.9,107.6,481.7,102.4,475.4,102.4z M475.4,124.7c-5.9,0-10.7-4.8-10.7-10.7c0-5.9,4.8-10.7,10.7-10.7s10.7,4.8,10.7,10.7l0,0
			C486.1,119.9,481.3,124.7,475.4,124.7L475.4,124.7z"/>
		<path class="st51" d="M475.4,103.2c-5.9,0-10.7,4.8-10.7,10.7c0,5.9,4.8,10.7,10.7,10.7s10.7-4.8,10.7-10.7
			C486.1,108,481.3,103.2,475.4,103.2L475.4,103.2z M475.4,123.9c-5.5,0-9.9-4.4-9.9-9.9s4.4-9.9,9.9-9.9s9.9,4.4,9.9,9.9
			S480.9,123.9,475.4,123.9z"/>
		<rect x="475.3" y="103.2" class="st51" width="0.2" height="21.7"/>
		
			<rect x="475.3" y="103.2" transform="matrix(0.7071 -0.7071 0.7071 0.7071 58.5914 369.5393)" class="st51" width="0.2" height="21.7"/>
		<rect x="464.5" y="114" class="st51" width="21.7" height="0.2"/>
		
			<rect x="464.5" y="114" transform="matrix(0.7069 -0.7074 0.7074 0.7069 58.6377 369.7115)" class="st51" width="21.7" height="0.2"/>
		
			<rect x="475.3" y="103.2" transform="matrix(0.9249 -0.3801 0.3801 0.9249 -7.6647 189.2553)" class="st51" width="0.2" height="21.7"/>
		
			<rect x="475.3" y="103.2" transform="matrix(0.3853 -0.9228 0.9228 0.3853 186.9708 508.7655)" class="st51" width="0.2" height="21.7"/>
		
			<rect x="464.5" y="114" transform="matrix(0.9251 -0.3796 0.3796 0.9251 -7.7335 188.9944)" class="st51" width="21.7" height="0.2"/>
		<polygon class="st51" points="471.3,124.1 471.1,124.1 479.5,104 479.6,104.1 		"/>
		<path class="st51" d="M475.4,102.4c-6.4,0-11.5,5.2-11.5,11.5s5.2,11.5,11.5,11.5s11.5-5.2,11.5-11.5l0,0
			C486.9,107.6,481.7,102.4,475.4,102.4z M475.4,124.7c-5.9,0-10.7-4.8-10.7-10.7c0-5.9,4.8-10.7,10.7-10.7s10.7,4.8,10.7,10.7l0,0
			C486.1,119.9,481.3,124.7,475.4,124.7L475.4,124.7z"/>
		<path class="st53" d="M475.4,103.2c-5.9,0-10.7,4.8-10.7,10.7c0,5.9,4.8,10.7,10.7,10.7s10.7-4.8,10.7-10.7
			C486.1,108,481.3,103.2,475.4,103.2L475.4,103.2z M475.4,123.9c-5.5,0-9.9-4.4-9.9-9.9s4.4-9.9,9.9-9.9s9.9,4.4,9.9,9.9
			S480.9,123.9,475.4,123.9z"/>
		<path class="st54" d="M453.2,115.8c-0.3,0-0.5-0.2-0.6-0.5l-4.1-19.4c-0.1-0.3,0.1-0.6,0.5-0.7c0.4-0.1,0.6,0.1,0.7,0.5l4.1,19.5
			c0.1,0.3-0.1,0.6-0.4,0.7l0,0L453.2,115.8L453.2,115.8z"/>
		<path class="st25" d="M463.3,95.2c-0.4,0-0.8-0.3-0.9-0.7c0-0.4,0.3-0.8,0.7-0.8c5.1-1.1,7.1-2.2,7.4-4.2c0-0.2,0-0.3-0.1-0.4
			c-1.1-0.7-2.5-0.9-3.8-0.4c-0.5,0.3-0.9-0.1-0.9-0.7c-0.1-0.4,0.2-0.8,0.7-0.9c0.6-0.1,3.8-0.5,5.1,0.8c0.5,0.5,0.7,1.1,0.6,1.8
			c-0.4,3.1-3.6,4.4-8.6,5.5C463.4,95.2,463.4,95.2,463.3,95.2z"/>
		<path class="st59" d="M439.1,117.2c-1.7,0-3.1-1.4-3.1-3.1s1.4-3.1,3.1-3.1c1.7,0,3.1,1.4,3.1,3.1l0,0
			C442.1,115.8,440.8,117.2,439.1,117.2z M439.1,111.8c-1.2,0-2.3,1-2.3,2.3s1,2.3,2.3,2.3c1.2,0,2.3-1,2.3-2.3l0,0
			C441.3,112.8,440.3,111.8,439.1,111.8z"/>
		<path class="st51" d="M445.2,94.7c-0.1-0.9,0.5-1.7,1.4-1.8c0.1,0,0.1,0,0.2,0c1,0,2,0.3,2.8,0.8c2.1,1.3,1.8,0.7,2.8,0.8
			s1.1,0.7,0.2,1.2c-0.9,0.5-1.4,0-3.8,0h-3.6L445.2,94.7z"/>
		<path class="st59" d="M475.4,117.1c-1.7,0-3.1-1.4-3.1-3.1s1.4-3.1,3.1-3.1s3.1,1.4,3.1,3.1S477.1,117.1,475.4,117.1L475.4,117.1z
			 M475.4,111.7c-1.2,0-2.3,1-2.3,2.3s1,2.3,2.3,2.3c1.2,0,2.3-1,2.3-2.3l0,0C477.6,112.7,476.6,111.7,475.4,111.7L475.4,111.7
			L475.4,111.7z"/>
		<path class="st54" d="M453.2,116h-0.1l-13.6-1.8c-0.4-0.1-0.7-0.5-0.7-0.9c0-0.2,0.1-0.3,0.2-0.4l6.7-7.1
			c3.1-3.3,7.2-5.6,11.7-6.4l14.6-2.7c0.4-0.1,0.9,0.2,0.9,0.6c0.1,0.3,0,0.6-0.2,0.7l-19,17.8C453.6,115.9,453.4,116,453.2,116z
			 M441.3,112.8l11.7,1.6l16.7-15.6l-11.5,2.1c-4.6,0.9-8.7,3.1-11.9,6.6L441.3,112.8z"/>
		<path class="st54" d="M475.4,114.6c-0.3,0-0.5-0.2-0.6-0.5l-4-23.9c-0.1-0.3,0.2-0.6,0.5-0.7l0,0c0.3-0.1,0.6,0.2,0.7,0.5l0,0
			l4,23.9c0.1,0.3-0.2,0.6-0.5,0.7l0,0H475.4z"/>
		
			<rect x="473.2" y="104.9" transform="matrix(0.9837 -0.1798 0.1798 0.9837 -11.6238 87.0528)" class="st53" width="2.4" height="5.5"/>
		<polygon class="st31" points="457.5,104.3 454.4,109 459.7,104.8 457.8,104.3 		"/>
		<polygon class="st31" points="456.8,105.4 459.9,100.7 454.6,104.9 456.5,105.4 		"/>
		<g>
			<circle class="st49" cx="560.8" cy="24.5" r="15.9"/>
		</g>
		<path class="st60" d="M551,17.5c0,0,0.1-0.8,0.4-0.9c0.5-0.3,0.9-0.5,1.4-0.8h-0.1c-0.7,0.4-1.5,0.8-2.2,1.2
			c-0.3,0.1-0.4,0.9-0.4,0.9c0,6.7,3.5,13,9.2,16.5c0,0,0.7,0.3,1,0.1l0.6-0.3c-0.2,0-0.5-0.1-0.7-0.2C554.5,30.5,551,24.3,551,17.5
			z"/>
		<path class="st61" d="M562.5,32.5c-1-1.1-2-2.2-2.9-3.4c-0.1-0.1-0.2-0.2-0.3-0.2c-0.2-0.1-0.4,0-0.6,0.1
			c-0.2,0.2-0.3,0.4-0.5,0.6l-0.6,0.7c-2.3-2.5-4-5.5-4.9-8.8l0.9-0.1l0.7-0.1c0.2-0.1,0.3-0.2,0.4-0.3c0.1-0.1,0.1-0.3,0-0.4
			c-0.5-1.4-1-2.8-1.4-4.2c-0.1-0.3-0.4-0.5-0.7-0.4c-0.5,0.2-1,0.5-1.4,0.8c-0.3,0.1-0.4,0.9-0.4,0.9c0,6.8,3.5,13,9.3,16.6
			c0.2,0.1,0.4,0.2,0.7,0.2l1.6-0.9C562.7,33.1,562.7,32.7,562.5,32.5L562.5,32.5z"/>
		<path class="st62" d="M564.5,33.5L564.5,33.5c-0.1-0.1-0.2-0.2-0.1-0.3c0.7-1.3,0.2-2.9-1.1-3.5c-0.1-0.1-0.2-0.2-0.1-0.3l0,0
			c0.1-0.1,0.2-0.2,0.3-0.1c0.7,0.4,1.3,1,1.5,1.8c0.3,0.8,0.2,1.6-0.2,2.4C564.8,33.5,564.6,33.5,564.5,33.5L564.5,33.5z"/>
		<path class="st62" d="M567.1,34.4L567.1,34.4c-0.1,0-0.2-0.2-0.1-0.3c1.1-2.2,0.3-4.9-1.9-6c-0.1-0.1-0.2-0.2-0.1-0.3
			c0.1-0.1,0.2-0.2,0.3-0.1c2.4,1.3,3.4,4.2,2.1,6.7C567.4,34.4,567.2,34.4,567.1,34.4z"/>
		<path class="st62" d="M569.8,35.2L569.8,35.2c-0.1-0.1-0.2-0.2-0.1-0.3l0,0c1.6-3.1,0.4-6.9-2.7-8.5c-0.1-0.1-0.2-0.2-0.1-0.3
			c0.1-0.1,0.2-0.2,0.3-0.1c3.3,1.7,4.6,5.8,2.9,9.1C570.1,35.2,570,35.3,569.8,35.2C569.8,35.3,569.8,35.2,569.8,35.2z"/>
		<path class="st63" d="M564.5,24.4H560c-0.2,0-0.4-0.1-0.6-0.3c-0.1-0.2-0.2-0.4-0.2-0.6c0,0,0.2-1,0.3-1.6s0.5-1.1,2.5-2.5
			c1.3-1,1.6-1.3,1.8-1.7c0.1-0.5,0-1-0.2-1.4c-0.4-0.4-0.9-0.6-1.4-0.6c-0.3,0-0.7,0.1-0.9,0.3c-0.2,0.3-0.4,0.7-0.4,1.1
			s-0.3,0.8-0.7,0.8s-0.8-0.3-0.8-0.7l0,0c0-0.8,0.3-1.6,0.8-2.3c0.5-0.5,1.2-0.8,2-0.8c1-0.1,2,0.4,2.7,1.2
			c0.6,0.8,0.7,1.8,0.5,2.8c-0.3,1-1,1.6-2.4,2.6c-1.6,1.2-1.9,1.6-1.9,1.6l-0.1,0.5h3.6c0.4,0,0.8,0.4,0.8,0.8
			S564.9,24.4,564.5,24.4L564.5,24.4z"/>
		<path class="st63" d="M569.7,24.4c-0.4,0-0.8-0.4-0.8-0.8v-2h-2.8c-0.3,0-0.5-0.2-0.7-0.4c-0.1-0.2-0.1-0.6,0-0.8l3.6-5.9
			c0.2-0.3,0.6-0.5,0.9-0.4s0.6,0.4,0.6,0.8V20h0.2c0.4,0,0.8,0.4,0.8,0.8s-0.4,0.8-0.8,0.8h-0.2v2C570.6,24,570.2,24.4,569.7,24.4
			C569.8,24.4,569.8,24.4,569.7,24.4z M567.5,20h1.5v-2.4L567.5,20z"/>
		<path class="st64" d="M564.2,24.1h-4.5c-0.2,0-0.4-0.1-0.6-0.3c-0.1-0.2-0.2-0.4-0.2-0.6c0,0,0.2-1,0.3-1.6s0.5-1.1,2.5-2.5
			c1.4-1,1.6-1.3,1.8-1.7c0.1-0.5,0-1-0.2-1.4c-0.3-0.4-0.9-0.6-1.4-0.6c-0.3,0-0.7,0.1-0.9,0.3c-0.2,0.3-0.4,0.7-0.4,1.1
			c0.1,0.4-0.2,0.8-0.6,0.9c-0.4,0.1-0.8-0.2-0.9-0.6c0-0.1,0-0.1,0-0.2c0-0.8,0.2-1.6,0.8-2.3c0.5-0.5,1.2-0.8,2-0.8
			c1-0.1,2,0.4,2.7,1.2c0.6,0.8,0.7,1.8,0.5,2.8c-0.3,1-1,1.6-2.4,2.6c-1.6,1.2-1.9,1.6-1.9,1.6c0,0.2-0.1,0.4-0.1,0.5h3.6
			c0.4,0,0.7,0.4,0.7,0.9C564.9,23.8,564.6,24.1,564.2,24.1L564.2,24.1z"/>
		<path class="st64" d="M569.5,24.1c-0.4,0-0.8-0.3-0.8-0.8l0,0v-2h-2.8c-0.3,0-0.5-0.2-0.7-0.4c-0.1-0.2-0.1-0.6,0-0.8l3.6-5.9
			c0.2-0.3,0.5-0.4,0.9-0.3c0.3,0.1,0.6,0.4,0.6,0.8v5.2h0.2c0.4,0,0.8,0.4,0.8,0.8s-0.4,0.8-0.8,0.8h-0.2v2
			C570.3,23.8,569.9,24.1,569.5,24.1z M567.3,19.8h1.4v-2.4L567.3,19.8z"/>
	</g>
</g>
</svg>
