<?xml version="1.0" encoding="utf-8"?>
<!-- Generator: Adobe Illustrator 26.0.1, SVG Export Plug-In . SVG Version: 6.00 Build 0)  -->
<svg version="1.1" id="레이어_1" xmlns="http://www.w3.org/2000/svg" xmlns:xlink="http://www.w3.org/1999/xlink" x="0px"
	 y="0px" viewBox="0 0 976 181.6" style="enable-background:new 0 0 976 181.6;" xml:space="preserve">
<style type="text/css">
	.st0{fill:#9BF6D9;}
	.st1{fill:#4A4A51;}
	.st2{fill:#8E0300;}
	.st3{fill:#F72823;}
	.st4{fill:#F9473E;}
	.st5{fill:#FF6353;}
	.st6{fill:#000B3A;}
	.st7{fill:#A4C2D1;}
	.st8{fill:#719DAF;}
	.st9{fill:#C7DDE5;}
	.st10{fill:#C4FDF7;}
	.st11{fill:#92FFF2;}
	.st12{fill:#FFB600;}
	.st13{fill:#10C1B0;}
	.st14{fill:#2A2933;}
	.st15{fill:#D0452E;}
	.st16{opacity:0.43;}
	.st17{opacity:0.37;}
	.st18{fill:#FAFCFC;}
	.st19{fill:#FBB040;}
	.st20{fill:#FF941F;}
	.st21{fill:#071749;}
	.st22{fill:#FFC648;}
	.st23{fill:#8ED3D6;}
	.st24{fill:#9AE9ED;}
	.st25{fill:#000D2D;}
	.st26{fill:#A7CE33;}
	.st27{fill:#88C836;}
	.st28{fill:#00AA24;}
	.st29{fill:#00AAFF;}
	.st30{fill:#00C3FF;}
	.st31{fill:#F6FBF7;}
	.st32{fill:#80FFF0;}
	.st33{fill:#EEFFFD;}
	.st34{fill:#012312;}
	.st35{fill:#315103;}
	.st36{fill:#C5C8D1;}
	.st37{fill:#FCFDFA;}
	.st38{fill:#C6C369;}
	.st39{fill:#A4BAFF;}
	.st40{fill:#F8B83C;}
	.st41{fill:#CFDDFE;}
	.st42{fill:#86C43D;}
	.st43{fill:#7099FC;}
	.st44{fill:#FACD77;}
	.st45{fill:#FFB03E;}
	.st46{fill:#ED1C24;}
	.st47{fill:#D10922;}
	.st48{fill:#FAF711;}
	.st49{fill:#EDE807;}
	.st50{fill:#00AFD8;}
	.st51{fill:#EF4136;}
	.st52{fill:#132759;}
	.st53{fill:#FFFFFF;}
	.st54{fill:#056AAF;}
	.st55{fill:#004A7C;}
	.st56{fill:#2397E5;}
	.st57{fill:#FFBB12;}
	.st58{fill:#FFA943;}
	.st59{fill:#006299;}
	.st60{fill:#1C75BC;}
	.st61{fill:#F7941E;}
	.st62{fill:#00466D;}
	.st63{fill:#FFDF9F;}
	.st64{fill:#FF4800;}
</style>
<g>
	<g id="_迹_1">
		<rect class="st0" width="976" height="181.6"/>
		<path class="st1" d="M403.5,62.1h-3.1c-2.2,0-4-1.8-4-4V44h1v14.1c0,1.7,1.3,3,3,3h3.1c1.7,0,3-1.3,3-3V38.8h1v19.3
			C407.5,60.3,405.7,62.1,403.5,62.1z"/>
		<rect x="405.7" y="33.9" class="st2" width="3.5" height="5.2"/>
		<path class="st2" d="M397,33.2L397,33.2c0,3.3-1.3,6.3-3.5,8.6l-1.5,1.4v-10H397z"/>
		<path class="st3" d="M400.6,35.1h3.5c2.1,0,3.8,1.7,3.8,3.8v21.2c0,2.1-1.7,3.8-3.8,3.8h-3.5v15.4h11.7V30.2h-11.7V35.1z"/>
		<path class="st4" d="M397.1,63.9c-2.1,0-3.8-1.7-3.8-3.8V38.9c0-2.1,1.7-3.8,3.8-3.8l0,0h3.5v-4.9h-11.7v49.1h11.7V63.9H397.1z"/>
		<polygon class="st5" points="400.6,27.2 387.9,27.2 387.9,30.3 388.9,30.3 400.6,30.3 		"/>
		<polygon class="st4" points="400.6,27.2 400.6,30.3 412.3,30.3 413.4,30.3 413.4,27.2 		"/>
		<path class="st6" d="M394.8,37c0,0,3.2,1.6,3.2,3.8c0.1,2.1,0,4,0,4h-1.6c0,0-0.4-3.7-1.9-4.1C393,40.3,394.8,37,394.8,37z"/>
		<rect x="387.4" y="79.3" class="st7" width="13.2" height="7.4"/>
		<rect x="400.6" y="79.3" class="st8" width="13.2" height="7.4"/>
		<rect x="419.5" y="79.3" class="st9" width="9.5" height="7.4"/>
		<rect x="429" y="79.3" class="st7" width="9.5" height="7.4"/>
		<rect x="427.5" y="38.3" class="st7" width="1.5" height="41"/>
		<rect x="429" y="38.3" class="st8" width="1.5" height="41"/>
		<path class="st5" d="M429,46.9h-7.4c-1.1,0-2-0.9-2-2V28.7c0-1.1,0.9-2,2-2.1h7.4V46.9z"/>
		<path class="st4" d="M429,46.9h7.4c1.1,0,2-0.9,2.1-2V28.7c0-1.1-0.9-2.1-2.1-2.1H429V46.9z"/>
		<path class="st10" d="M429,45.7h-6.5c-1.1,0-2.1-0.9-2.1-2c0,0,0,0,0,0V30c0-1.1,0.9-2,2.1-2h6.5V45.7z"/>
		<path class="st11" d="M435.5,45.7H429V27.9h6.5c1.1,0,2,0.9,2.1,2v13.7C437.5,44.8,436.6,45.7,435.5,45.7z"/>
		<polygon class="st12" points="429.3,34.7 426.7,42.3 432.6,34.7 429.7,34.7 		"/>
		<polygon class="st12" points="428.7,36.6 431.3,29.1 425.4,36.6 428.3,36.6 		"/>
		<polygon class="st13" points="486.2,22.7 479.5,38.2 494.5,22.7 487.2,22.7 		"/>
		<polygon class="st13" points="484.7,26.5 491.3,11 476.4,26.5 483.6,26.5 		"/>
		<path class="st13" d="M377.4,87.1h141.1c4.7,0,8.5,3.8,8.5,8.5v0.2c0,4.7-3.8,8.5-8.5,8.5H377.4c-4.7,0-8.5-3.8-8.5-8.5v-0.2
			C368.9,90.9,372.7,87.1,377.4,87.1z"/>
		<path class="st14" d="M452.4,77.5h1.8c1,0,1.7,0.8,1.7,1.7V86c0,1-0.8,1.7-1.7,1.7h-1.8c-1,0-1.7-0.8-1.7-1.7v-6.8
			C450.7,78.2,451.5,77.5,452.4,77.5z"/>
		<path class="st14" d="M492.8,77.5h1.8c1,0,1.7,0.8,1.7,1.7V86c0,1-0.8,1.7-1.7,1.7h-1.8c-1,0-1.7-0.8-1.7-1.7v-6.8
			C491.1,78.2,491.8,77.5,492.8,77.5z"/>
		<path class="st4" d="M473.5,79.2h23.6c0-0.2,0-0.4,0-0.7v-5.9c0.5-1.8-0.5-3.8-2.2-4.5l-4-1.8h-17.5V79.2z"/>
		<path class="st3" d="M473.5,79.2V85h13.3c3.7,0,7.2-1.6,9.5-4.4c0.4-0.4,0.6-0.9,0.8-1.4H473.5z"/>
		<path class="st4" d="M473.5,79.2h-23.8c0.1,0.5,0.4,1,0.8,1.4c2.3,2.8,5.8,4.4,9.5,4.4h13.5V79.2z"/>
		<g>
			<path class="st4" d="M460,83.6c-2.8,0-5.6-1-7.6-3h42c-2.1,2-4.8,3-7.6,3H460z"/>
		</g>
		<path class="st5" d="M473.5,76.5V66.3h-17.1h-0.1l-4.5,1.8c-1.7,0.8-2.6,2.7-2.2,4.5v5.9c0,0.2,0,0.4,0.1,0.7h23.8L473.5,76.5z"/>
		<path class="st14" d="M467.1,62.4h-14.8c-0.3,0-0.6,0.2-0.6,0.5v1.4c0.1,1,1,1.7,2,1.7h13.4L467.1,62.4z"/>
		<path class="st14" d="M494.5,62.4h-14.8V66h13.4c1,0.1,1.9-0.6,2-1.7v-1.5C495,62.6,494.8,62.4,494.5,62.4z"/>
		<path class="st7" d="M473.5,57.6v8.8h14.1c-0.9-3.1-1.8-5-2.6-7.5c-0.2-0.7-0.9-1.3-1.7-1.2H473.5z"/>
		<path class="st9" d="M462.3,59.4c-0.8,2.6-1.9,4-2.9,6.9h14v-8.8h-8.6C463.7,57.6,462.7,58.3,462.3,59.4z"/>
		<path class="st4" d="M467.8,54.6h-2c-2.4,0-4.5,1.3-5.6,3.4c-1.5,2.7-2.8,5.5-3.8,8.4h0.1h3.1c1-2.9,2-4.3,2.9-6.9
			c0.4-1.1,1.4-1.9,2.6-1.8h8.6v-3L467.8,54.6z"/>
		<path class="st15" d="M487.6,58.2c-1-2.2-3.3-3.7-5.8-3.7h-8.3v3h9.9c0.8,0,1.5,0.5,1.7,1.2c0.8,2.5,1.7,4.4,2.6,7.5h3.1
			C489.9,63.5,488.8,60.8,487.6,58.2z"/>
		<rect x="473.5" y="72.7" class="st8" width="10.9" height="3.9"/>
		<rect x="462.8" y="72.7" class="st7" width="10.7" height="3.9"/>
		<rect x="462.8" y="72.7" class="st4" width="10.7" height="0.6"/>
		<rect x="462.8" y="73.9" class="st4" width="10.7" height="0.6"/>
		<rect x="462.8" y="75" class="st4" width="10.7" height="0.6"/>
		<rect x="462.8" y="76.1" class="st4" width="10.7" height="0.6"/>
		<rect x="473.5" y="72.7" class="st15" width="10.9" height="0.6"/>
		<rect x="473.5" y="73.9" class="st15" width="10.9" height="0.6"/>
		<rect x="473.5" y="75" class="st15" width="10.9" height="0.6"/>
		<rect x="473.5" y="76.1" class="st15" width="10.9" height="0.6"/>
		<g class="st16">
			<path class="st5" d="M494.5,68.9l-3.5,0.9c-11.5,3.1-23.5,3.1-35,0l-3.4-0.9l4-1.9h33.8L494.5,68.9z"/>
		</g>
		<rect x="462" y="64.8" class="st1" width="9.1" height="1.6"/>
		<rect x="476.1" y="64.8" class="st1" width="9.1" height="1.6"/>
		<path class="st1" d="M472.6,58.6h3.6c0.4,0,0.8,0.4,0.8,0.8v0.7c0,0.4-0.4,0.8-0.8,0.8h-3.6c-0.4,0-0.8-0.4-0.8-0.8v-0.7
			C471.8,59,472.2,58.6,472.6,58.6z"/>
		<rect x="474" y="57.6" class="st1" width="0.8" height="1.1"/>
		<g class="st17">
			<polygon class="st10" points="481.1,66.3 478.6,66.3 474.2,57.6 476.7,57.6 			"/>
		</g>
		<g class="st17">
			<polygon class="st10" points="487.1,66.3 484.6,66.3 480.1,57.6 482.6,57.6 			"/>
		</g>
		<path class="st10" d="M456.8,76.9c-1.1,0-2.3-0.2-3.3-0.6c-0.1,0-0.2-0.1-0.3-0.1c-1.4-0.8-2.1-2.5-1.7-4.1c0.2-0.6,0.8-1,1.5-0.9
			c0.2,0,0.4,0,0.5,0.1l4.8,1.2l1.3,0.3c0.6,0.2,1,0.6,1,1.1l-0.2,1.8c-0.1,0.6-0.6,1-1.1,1C458.5,76.8,457.7,76.9,456.8,76.9z"/>
		<path class="st7" d="M453,71.2c0.2,0,0.3,0,0.5,0.1l4.8,1.3l1.3,0.3c0.5,0.2,0.9,0.5,0.9,0.9l-0.2,1.8c0,0.4-0.4,0.8-1,0.8
			c-0.8,0.1-1.6,0.2-2.4,0.2c-1.1,0-2.2-0.2-3.3-0.6l-0.3-0.1c-1.4-0.8-2.1-2.4-1.6-3.9C451.9,71.5,452.4,71.2,453,71.2L453,71.2z
			 M453,71L453,71c-0.7-0.1-1.4,0.3-1.6,1c-0.5,1.6,0.3,3.4,1.8,4.2l0.3,0.1c1.1,0.4,2.2,0.6,3.4,0.6c0.8,0,1.6-0.1,2.4-0.2
			c0.6,0,1.1-0.5,1.2-1.1l0.2-1.8c0.1-0.5-0.4-1-1-1.2l-1.3-0.3l-4.8-1.3C453.4,71,453.2,71,453,71L453,71z"/>
		<g>
			<path class="st11" d="M458.2,72.6c-1.5,0.3-3.1,0.8-3.7,1.7c-0.4,0.6-0.8,1.2-1,1.9l-0.3-0.1c-1.4-0.8-2.1-2.4-1.6-3.9
				c0.1-0.6,1-1,1.8-0.8L458.2,72.6z"/>
		</g>
		<path class="st18" d="M453.5,72.8c0,0.2-0.3,0.4-0.5,0.4c-0.2,0-0.3-0.2-0.4-0.4c0-0.2,0.3-0.4,0.5-0.4
			C453.4,72.4,453.5,72.6,453.5,72.8z"/>
		<path class="st10" d="M490,76.9c-0.8,0-1.6-0.1-2.4-0.2c-0.6,0-1-0.4-1.1-1l-0.2-1.8c0-0.5,0.3-0.9,1-1.1l1.3-0.3l4.8-1.3
			c0.2,0,0.3-0.1,0.5-0.1c0.6-0.1,1.2,0.3,1.5,0.9c0.4,1.6-0.3,3.3-1.7,4.1c-0.1,0.1-0.2,0.1-0.3,0.1
			C492.3,76.6,491.2,76.8,490,76.9L490,76.9z"/>
		<path class="st7" d="M493.9,71.2c0.6-0.1,1.1,0.3,1.3,0.8c0.4,1.5-0.2,3.2-1.6,3.9l-0.3,0.1c-1,0.4-2.2,0.6-3.3,0.6
			c-0.8,0-1.6-0.1-2.4-0.2c-0.6-0.1-1-0.4-1-0.8l-0.2-1.8c0-0.4,0.3-0.8,0.9-0.9l1.3-0.3l4.8-1.3C493.6,71.3,493.7,71.2,493.9,71.2
			L493.9,71.2z M493.9,71c-0.2,0-0.4,0-0.5,0.1l-4.8,1.3l-1.3,0.3c-0.7,0.2-1.1,0.7-1,1.2l0.2,1.8c0.1,0.6,0.6,1,1.2,1.1
			c0.8,0.1,1.6,0.2,2.4,0.2c1.2,0,2.3-0.2,3.4-0.6l0.3-0.1c1.5-0.8,2.2-2.6,1.8-4.2C495.3,71.4,494.6,70.9,493.9,71L493.9,71z"/>
		<g>
			<path class="st11" d="M488.6,72.6c1.5,0.3,3.1,0.8,3.7,1.7c0.4,0.6,0.8,1.2,1,1.9l0.3-0.1c1.4-0.8,2.1-2.4,1.6-3.9
				c-0.1-0.6-1-1-1.8-0.8L488.6,72.6z"/>
		</g>
		<path class="st18" d="M493.3,72.8c0,0.2,0.3,0.4,0.5,0.4c0.2,0,0.3-0.2,0.4-0.4c0-0.2-0.3-0.4-0.5-0.4
			C493.5,72.4,493.3,72.6,493.3,72.8z"/>
		<polygon class="st19" points="585.2,12.9 580.9,10.8 580.3,11.7 585.2,14.2 		"/>
		<polygon class="st20" points="580.3,11.7 578.4,14.9 585.2,20.5 585.2,14.2 		"/>
		<path class="st21" d="M570.9,24.6v-1h8.9h0.2c0.2,0,0.3,0,0.5,0.1c0.6,0.2,1.2,0.5,1.6,1.1c0.4,0.6,0.7,1.2,0.7,1.9v29.4
			c0,0.1,0,0.1,0,0.2v0.2l0.1,0.4c0.1,0.3,0.1,0.5,0.3,0.7c0.5,1,1.4,1.7,2.4,1.9c1.1,0.2,2.2-0.1,3-0.8c0.4-0.3,0.7-0.8,0.9-1.2
			l0.1-0.4c0-0.1,0.1-0.2,0.1-0.4c0-0.1,0-0.2,0-0.4v-0.2c0-0.1,0-0.2,0-0.2V24.6h1V56c0,0.7-0.1,1.3-0.3,1.9
			c-0.3,0.6-0.7,1.2-1.2,1.6c-0.5,0.4-1.1,0.8-1.8,0.9c-0.7,0.2-1.3,0.2-2,0.1c-2.1-0.4-3.6-2.3-3.5-4.4V26.8c0-0.5-0.2-0.9-0.5-1.3
			c-0.3-0.4-0.7-0.6-1.1-0.7c-0.4-0.1-0.9-0.1-1.3-0.1L570.9,24.6L570.9,24.6z"/>
		<path class="st21" d="M570.9,25.6v-1h8c0.4,0,0.9,0,1.3,0.1c0.4,0.1,0.8,0.4,1.1,0.7c0.3,0.4,0.4,0.9,0.5,1.3v29.4
			c0,2.1,1.4,4,3.5,4.4c0.7,0.1,1.3,0.1,2-0.1c0.7-0.2,1.3-0.5,1.8-0.9c0.5-0.4,0.9-1,1.2-1.6c0.2-0.6,0.4-1.3,0.3-1.9V24.6h1v31.7
			v0.3c0,0.2,0,0.4-0.1,0.6c0,0.2-0.1,0.4-0.1,0.6c-0.1,0.2-0.1,0.4-0.2,0.6c-0.3,0.7-0.8,1.4-1.4,1.9c-0.6,0.5-1.4,0.9-2.2,1.1
			c-0.4,0.1-0.8,0.2-1.2,0.2c-0.2,0-0.4,0-0.6,0s-0.4-0.1-0.6-0.1c-2.1-0.4-3.7-2-4.2-4.1c0-0.2-0.1-0.4-0.1-0.6v-0.3
			c0-0.1,0-0.2,0-0.3V26.8c0-0.3-0.1-0.5-0.2-0.7c-0.1-0.2-0.4-0.3-0.6-0.4c-0.1,0-0.1,0-0.2,0L570.9,25.6L570.9,25.6z"/>
		<path class="st12" d="M569.1,15c1.9,0,3.4,1.5,3.5,3.4v7.5c0,1.9-1.6,3.4-3.5,3.4h-7.8v34h15.4V14.3c0-3-2-5.5-4.5-5.5h-10.9V15
			L569.1,15z"/>
		<path class="st22" d="M561.4,29.2h-7.7c-1.9,0-3.4-1.5-3.5-3.3c0,0,0,0,0,0v-7.5c0-1.9,1.6-3.4,3.5-3.4h7.7V8.8h-10.9
			c-2.5,0-4.5,2.5-4.5,5.5v48.9h15.4V29.2z"/>
		<polygon class="st7" points="546,63.2 542.6,63.2 542.6,68.5 561.4,68.5 561.4,63.2 		"/>
		<polygon class="st8" points="580.3,63.2 576.2,63.2 561.4,63.2 561.4,68.5 580.3,68.5 		"/>
		<path class="st8" d="M572.6,25.9v-7.5c0-1.9-1.6-3.4-3.5-3.4h-7.8v0.7h7.8c1.5,0,2.7,1.2,2.8,2.6c0,0,0,0,0,0v7.5
			c0,1.5-1.3,2.7-2.8,2.7h-7.8v0.7h7.8C571,29.2,572.6,27.7,572.6,25.9z"/>
		<path class="st23" d="M553.6,28.5c-1.5,0-2.7-1.2-2.8-2.7v-7.5c0-1.5,1.3-2.7,2.8-2.7c0,0,0,0,0,0h7.7V15h-7.7
			c-1.9,0-3.4,1.5-3.5,3.4v7.5c0,1.9,1.6,3.4,3.5,3.4c0,0,0,0,0,0h7.7v-0.7H553.6z"/>
		<path class="st23" d="M569.1,16.4c1.1,0,2,0.8,2.1,1.9c0,0,0,0,0,0v7.5c0,1.1-0.9,2-2,2c0,0,0,0-0.1,0h-7.8v0.7h7.8
			c1.5,0,2.7-1.2,2.8-2.7v-7.6c0-1.5-1.3-2.7-2.8-2.7c0,0,0,0,0,0h-7.8v0.7H569.1z"/>
		<path class="st24" d="M550.9,18.3v7.5c0,1.5,1.3,2.7,2.8,2.7h7.7v-0.7h-7.7c-1.1,0-2-0.8-2.1-1.9c0,0,0,0,0-0.1v-7.5
			c0-1.1,0.9-2,2-2c0,0,0,0,0,0h7.7v-0.7h-7.7C552.1,15.6,550.9,16.8,550.9,18.3C550.9,18.3,550.9,18.3,550.9,18.3z"/>
		<path class="st19" d="M586,24.2l5.6,3.2v-8.9c0-1.2-0.6-2.3-1.7-2.8l-5.6-3.2v8.9C584.3,22.5,585,23.6,586,24.2z"/>
		<path class="st8" d="M586.8,22.7c-0.5-0.3-0.8-0.8-0.8-1.3v-5.9l3,1.7c0.5,0.3,0.8,0.8,0.8,1.3v5.9L586.8,22.7z"/>
		<path class="st21" d="M555.7,16.4h-2c-1.1,0-2,0.8-2.1,1.9c0,0,0,0,0,0v7.5c0,1.1,0.9,2,2,2c0,0,0,0,0.1,0h13.5L555.7,16.4z"/>
		<path class="st25" d="M569.1,27.8c1.1,0,2-0.8,2.1-1.9c0,0,0,0,0-0.1v-7.5c0-1.1-0.9-2-2-2c0,0,0,0,0,0h-13.5l11.4,11.4
			L569.1,27.8z"/>
		<path class="st26" d="M568.6,34.4c-0.8,3.2-1.9,6.4-3.4,9.4c-0.8,1.9-2.1,3.6-3.8,4.9c-1.3,1-2.8,1.9-4.4,2.6
			c-0.5-1.9-0.6-3.9-0.3-5.8c0.5-3.3,5.5-4.9,7.8-6.2C567.6,37.5,567.8,36.4,568.6,34.4z"/>
		<path class="st27" d="M568.6,34.4c-0.8,3.2-1.9,6.4-3.4,9.4c-0.8,1.9-2.1,3.6-3.8,4.9c-1.3,1-2.8,1.9-4.4,2.6
			c1.1,1.7,3,2.6,4.9,2.5c2.6-0.3,4.8-2.6,6.1-4.7C570.6,44.6,569.6,39,568.6,34.4z"/>
		<path class="st27" d="M553,52.8l-0.2-0.8c3.9-0.9,7.9-2.5,10.7-5.4C560.9,49.7,557,51.6,553,52.8z"/>
		<path class="st28" d="M553,52.8l0.2,0.8c3.9-1.5,7.7-3.6,10.3-6.9C560.9,49.7,557,51.6,553,52.8z"/>
		<path class="st29" d="M349.5,129.1l63.7-1.3l0.7-0.8c1.1,0.7,2,1.6,2.8,2.6c0.2,0.3,0.4,0.5,0.6,0.8s0.4,0.6,0.6,0.9
			c0.2,0.3,0.3,0.6,0.5,0.8s0.3,0.6,0.4,0.9s0.2,0.6,0.3,0.8c0.1,0.4,0.3,0.7,0.4,1.1c0.1,0.5,0.3,1,0.4,1.5l0.3,1.9v0
			c0.1,0.6-0.3,1.2-1,1.2c0,0-0.1,0-0.1,0l-67.9-0.1c-0.8,0-1.5-0.5-1.8-1.3l-1-6.9C348.1,130.3,348.6,129.4,349.5,129.1z"/>
		<path class="st30" d="M349.5,129.1L349.5,129.1L349.5,129.1c0-4.4,1.4-8.6,4-12.1l0.9-1.2c3.5-4,24.9-4.1,24.9-4.1
			c3-0.3,5.9,1.4,8.4,3.2l8.1,7.3l15.9,3.7c0.7,0.3,1.4,0.6,2.1,1.1l-0.7,0.8L349.5,129.1z"/>
		<path class="st11" d="M375.9,115l-4.1,0.5v9.7l21.8,0.6l-0.6-1.2c-1.1-2.1-2.7-3.9-4.5-5.4l-0.1-0.1
			C384.8,116.1,380.4,114.7,375.9,115z"/>
		<path class="st11" d="M355.1,124.6l14.2,0.4v-9.5l-8.4,0.8c-1.5,0.1-2.8,1-3.4,2.4L355.1,124.6z"/>
		<path class="st14" d="M391.6,121.9l-2.5,0.5c-1,0.2-1.6,1.2-1.5,2.2l0,0c0.1,1,1,1.7,1.9,1.7h3.7c0.6,0,1.1-0.5,1.1-1.1
			c0-0.2-0.1-0.4-0.2-0.6l-1.4-2.1C392.5,122,392,121.8,391.6,121.9z"/>
		<path class="st8" d="M409.7,135.4l2.4,3h8l0,0l-0.3-1.9c-0.1-0.5-0.2-1-0.4-1.5c-1.6,0.2-3.1,0.4-4.7,0.4L409.7,135.4z"/>
		<path class="st21" d="M412.5,129.6v0.8h4.7c-0.2-0.3-0.4-0.6-0.6-0.8H412.5z"/>
		<path class="st21" d="M414.3,131.3v0.8h4c-0.1-0.3-0.3-0.6-0.4-0.8H414.3z"/>
		<path class="st21" d="M416,133.1v0.8h3c-0.1-0.3-0.2-0.6-0.3-0.8H416z"/>
		<path class="st31" d="M398.4,139.7c0,0.7,0.5,1.2,1.2,1.2c0.7,0,1.2-0.5,1.2-1.2s-0.5-1.2-1.2-1.2
			C398.9,138.5,398.4,139,398.4,139.7z"/>
		<path class="st32" d="M411.5,133c0.3,0,0.5-0.2,0.6-0.5c0-0.1,0-0.2,0-0.2c-0.4-1.3-1.3-2.4-2.4-3.2c-1.9-0.9-2.9-0.5-3.3,0
			c-0.4,0.5,1.5,3.4,1.5,3.4L411.5,133z"/>
		<path class="st7" d="M411.6,133.2L411.6,133.2l-3.9-0.5l0-0.1c-0.6-0.9-2-3.1-1.4-3.7c0.4-0.4,0.9-0.6,1.5-0.6
			c0.7,0,1.4,0.2,2.1,0.6c1.2,0.8,2.1,1.9,2.5,3.3c0.1,0.2,0.1,0.5-0.1,0.7C412.1,133.1,411.8,133.2,411.6,133.2z M407.9,132.3
			l3.7,0.4l0,0c0.1,0,0.2,0,0.3-0.1c0-0.1,0-0.2,0-0.3c-0.4-1.3-1.2-2.3-2.3-3.1c-0.6-0.3-1.2-0.5-1.9-0.5c-0.5,0-0.9,0.1-1.2,0.5
			C406.3,129.4,407,130.9,407.9,132.3L407.9,132.3z"/>
		<path class="st33" d="M411.1,132c0,0-1.6-2.1-3.2-2.2c-1.6-0.2-0.8-0.5-0.5-0.6C410.1,128.8,411.1,132,411.1,132z"/>
		<rect x="376.8" y="129.7" class="st21" width="1.6" height="7.6"/>
		<rect x="380.6" y="129.7" class="st21" width="1.6" height="7.6"/>
		<rect x="377.6" y="132.4" class="st21" width="3.8" height="0.6"/>
		<path class="st21" d="M384.5,139.1h-1.8l0.1-0.4c0.1-0.4,0.3-0.7,0.6-1c0.4-0.4,0.5-0.5,0.5-0.7c0-0.1,0-0.2-0.1-0.3
			c0,0-0.1-0.1-0.1-0.1c-0.2,0-0.4,0.2-0.4,0.4c0,0,0,0,0,0h-0.6c0-0.5,0.4-0.9,0.9-0.9c0.2,0,0.4,0.1,0.5,0.2
			c0.2,0.2,0.2,0.5,0.2,0.7c-0.1,0.4-0.3,0.7-0.7,1c-0.1,0.1-0.2,0.2-0.3,0.4h1L384.5,139.1z"/>
		<circle class="st14" cx="399.6" cy="139.7" r="7.2"/>
		<path class="st31" d="M396.6,136.7c1.6-1.6,4.3-1.6,5.9,0c1.6,1.6,1.6,4.3,0,5.9c-1.6,1.6-4.3,1.6-5.9,0c-0.8-0.8-1.2-1.8-1.2-2.9
			C395.4,138.6,395.8,137.5,396.6,136.7z"/>
		<path class="st6" d="M396.3,139.4c-0.3,0-0.6-0.3-0.6-0.6c0,0,0-0.1,0-0.1c0.1-0.3,0.2-0.7,0.4-1c0.2-0.3,0.5-0.4,0.8-0.2
			c0,0,0.1,0.1,0.1,0.1l1.8,1.8L396.3,139.4z"/>
		<path class="st6" d="M400.6,135.9c0.4,0.1,0.7,0.2,1,0.4c0.3,0.2,0.4,0.5,0.2,0.8c0,0-0.1,0.1-0.1,0.1l-1.8,1.8v-2.6
			c0-0.3,0.2-0.6,0.6-0.6C400.5,135.8,400.5,135.9,400.6,135.9z"/>
		<path class="st6" d="M397.6,136.3c0.3-0.2,0.6-0.3,1-0.4c0.3-0.1,0.6,0.1,0.7,0.4c0,0,0,0.1,0,0.1v2.6l-1.8-1.8
			c-0.2-0.2-0.2-0.6,0-0.8C397.5,136.3,397.5,136.3,397.6,136.3z"/>
		<path class="st6" d="M399.3,140.3v2.6c0,0.3-0.3,0.6-0.6,0.6c0,0-0.1,0-0.1,0c-0.3-0.1-0.7-0.2-1-0.4c-0.3-0.2-0.4-0.5-0.2-0.8
			c0,0,0-0.1,0.1-0.1L399.3,140.3z"/>
		<path class="st6" d="M396.3,139.9h2.6l-1.8,1.8c-0.2,0.2-0.6,0.2-0.8,0c0,0,0-0.1-0.1-0.1c-0.2-0.3-0.3-0.7-0.4-1
			c-0.1-0.3,0.1-0.6,0.4-0.7C396.2,139.9,396.3,139.9,396.3,139.9z"/>
		<path class="st6" d="M401.6,143c-0.3,0.2-0.7,0.3-1,0.4c-0.3,0.1-0.6-0.1-0.7-0.4c0,0,0-0.1,0-0.1v-2.6l1.8,1.8
			c0.2,0.2,0.2,0.6,0,0.8C401.6,143,401.6,143,401.6,143z"/>
		<path class="st6" d="M402.8,139.4h-2.6l1.8-1.8c0.2-0.2,0.6-0.2,0.8,0c0,0,0.1,0.1,0.1,0.1c0.2,0.3,0.3,0.6,0.4,1
			c0.1,0.3-0.1,0.6-0.4,0.7C402.9,139.4,402.9,139.4,402.8,139.4z"/>
		<path class="st6" d="M402.8,139.9c0.3,0,0.6,0.3,0.6,0.6c0,0,0,0.1,0,0.1c-0.1,0.4-0.2,0.7-0.4,1c-0.2,0.3-0.5,0.4-0.8,0.2
			c0,0-0.1-0.1-0.1-0.1l-1.8-1.8L402.8,139.9z"/>
		<circle class="st14" cx="361.2" cy="139.7" r="7.2"/>
		<path class="st31" d="M358.2,136.7c1.6-1.6,4.3-1.6,5.9,0c1.6,1.6,1.6,4.3,0,5.9c-1.6,1.6-4.3,1.6-5.9,0c-0.8-0.8-1.2-1.8-1.2-2.9
			C357,138.6,357.4,137.5,358.2,136.7z"/>
		<path class="st6" d="M358,139.4c-0.3,0-0.6-0.3-0.6-0.6c0,0,0-0.1,0-0.1c0.1-0.3,0.2-0.7,0.4-1c0.2-0.3,0.5-0.4,0.8-0.2
			c0,0,0.1,0.1,0.1,0.1l1.8,1.8L358,139.4z"/>
		<path class="st6" d="M362.2,135.9c0.4,0.1,0.7,0.2,1,0.4c0.3,0.2,0.4,0.5,0.2,0.8c0,0-0.1,0.1-0.1,0.1l-1.8,1.8v-2.6
			c0-0.3,0.2-0.6,0.6-0.6C362.1,135.8,362.1,135.9,362.2,135.9z"/>
		<path class="st6" d="M359.2,136.3c0.3-0.2,0.6-0.3,1-0.4c0.3-0.1,0.6,0.1,0.7,0.4c0,0,0,0.1,0,0.1v2.6l-1.8-1.8
			c-0.2-0.2-0.2-0.6,0-0.8C359.1,136.3,359.2,136.3,359.2,136.3z"/>
		<path class="st6" d="M360.9,140.3v2.6c0,0.3-0.3,0.6-0.6,0.6c0,0-0.1,0-0.1,0c-0.3-0.1-0.7-0.2-1-0.4c-0.3-0.2-0.4-0.5-0.2-0.8
			c0,0,0-0.1,0.1-0.1L360.9,140.3z"/>
		<path class="st6" d="M358,139.9h2.6l-1.8,1.8c-0.2,0.2-0.6,0.2-0.8,0c0,0,0-0.1-0.1-0.1c-0.2-0.3-0.3-0.7-0.4-1
			c-0.1-0.3,0.1-0.6,0.4-0.7C357.8,139.9,357.9,139.9,358,139.9z"/>
		<path class="st6" d="M363.2,143c-0.3,0.2-0.7,0.3-1,0.4c-0.3,0.1-0.6-0.1-0.7-0.4c0,0,0-0.1,0-0.1v-2.6l1.8,1.8
			c0.2,0.2,0.2,0.6,0,0.8C363.3,143,363.2,143,363.2,143z"/>
		<path class="st6" d="M364.5,139.4h-2.6l1.8-1.8c0.2-0.2,0.6-0.2,0.8,0c0,0,0.1,0.1,0.1,0.1c0.2,0.3,0.3,0.6,0.4,1
			c0.1,0.3-0.1,0.6-0.4,0.7C364.5,139.4,364.5,139.4,364.5,139.4z"/>
		<path class="st6" d="M364.5,139.9c0.3,0,0.6,0.3,0.6,0.6c0,0,0,0.1,0,0.1c-0.1,0.4-0.2,0.7-0.4,1c-0.2,0.3-0.5,0.4-0.8,0.2
			c0,0-0.1-0.1-0.1-0.1l-1.8-1.8L364.5,139.9z"/>
		<rect x="303.5" y="106" class="st7" width="5.7" height="36.3"/>
		<rect x="309.2" y="106" class="st8" width="5.7" height="36.3"/>
		<rect x="323.4" y="89.2" class="st7" width="5.7" height="53.2"/>
		<rect x="329.1" y="89.2" class="st8" width="5.7" height="53.2"/>
		<rect x="329" y="112.6" class="st1" width="4.8" height="7.3"/>
		<path class="st34" d="M333,116.3c0,0.9-0.7,1.7-1.6,1.7s-1.7-0.7-1.7-1.7c0-0.9,0.7-1.7,1.7-1.7l0,0
			C332.2,114.7,333,115.4,333,116.3z"/>
		<rect x="300" y="82.8" class="st35" width="39.6" height="9"/>
		<rect x="300" y="141.7" class="st36" width="38.6" height="4.1"/>
		<path class="st21" d="M306.5,113.8h5.2c0.9,0,1.6,0.7,1.6,1.6v1.8c0,0.9-0.7,1.6-1.6,1.6h-5.2c-0.9,0-1.6-0.7-1.6-1.6v-1.8
			C304.9,114.5,305.6,113.8,306.5,113.8z"/>
		<path class="st23" d="M311.7,119h-5.2c-1,0-1.8-0.8-1.8-1.8v-1.8c0-1,0.8-1.8,1.8-1.8h5.2c1,0,1.8,0.8,1.8,1.8v1.8
			C313.5,118.2,312.7,119,311.7,119z M306.5,114.1c-0.7,0-1.3,0.6-1.3,1.3v1.8c0,0.7,0.6,1.3,1.3,1.3h5.2c0.7,0,1.3-0.6,1.3-1.3
			v-1.8c0-0.7-0.6-1.3-1.3-1.3L306.5,114.1z"/>
		<path class="st35" d="M307.4,109.2h3.8c0.7,0,1.3,0.6,1.3,1.3v0.4c0,0.7-0.6,1.3-1.3,1.3h-3.8c-0.7,0-1.3-0.6-1.3-1.3v-0.4
			C306,109.8,306.6,109.2,307.4,109.2z"/>
		<rect x="314.9" y="108.6" class="st34" width="2.9" height="1.2"/>
		<path class="st34" d="M328.9,141h-6.6c-1.5,0-2.7-1.2-2.7-2.7l0,0v-26.6c0-1.2-1-2.2-2.2-2.2h-0.4V109h0.4c1.5,0,2.7,1.2,2.7,2.7
			v26.6c0,1.2,1,2.2,2.2,2.2l0,0h6.6c1.2,0,2.2-1,2.2-2.2v-22h0.5v22C331.6,139.8,330.4,141,328.9,141L328.9,141z"/>
		<rect x="326.8" y="95.6" class="st35" width="1.5" height="7.1"/>
		<rect x="330.2" y="95.6" class="st35" width="1.5" height="7.1"/>
		<rect x="327.5" y="98.1" class="st35" width="3.5" height="0.6"/>
		<path class="st35" d="M333.9,104.3h-1.7l0.1-0.3c0.1-0.3,0.3-0.6,0.5-0.9c0.3-0.3,0.4-0.5,0.5-0.6c0-0.1,0-0.2-0.1-0.2
			c0,0-0.1,0-0.1,0c-0.2,0-0.3,0.1-0.3,0.3h-0.5c0-0.5,0.4-0.9,0.9-0.9l0,0c0.2,0,0.4,0.1,0.5,0.2c0.1,0.2,0.2,0.4,0.2,0.7
			c-0.1,0.4-0.3,0.7-0.6,0.9c-0.1,0.1-0.2,0.2-0.2,0.3h0.9V104.3z"/>
		<rect x="300" y="141.7" class="st9" width="19.3" height="3.9"/>
		<rect x="319.3" y="141.7" class="st7" width="19.3" height="3.9"/>
		<rect x="343.3" y="47.3" class="st13" width="4.7" height="22.8"/>
		<rect x="354.5" y="47.3" class="st13" width="4.7" height="22.8"/>
		<rect x="345.7" y="55.3" class="st13" width="11.2" height="1.8"/>
		<path class="st13" d="M366.2,75.3h-5.5l0.3-1c0.3-1.1,0.9-2,1.7-2.8c1.1-1.1,1.5-1.5,1.6-2.1c0-0.3,0-0.5-0.2-0.8
			c-0.1-0.1-0.2-0.2-0.3-0.2c-0.6,0-1.2,0.5-1.2,1.2H361c0-1.5,1.2-2.8,2.8-2.8c0.6,0,1.2,0.3,1.6,0.7c0.5,0.6,0.7,1.4,0.6,2.1
			c-0.2,1.1-0.9,1.8-2,2.9c-0.3,0.4-0.6,0.8-0.9,1.2h3.1L366.2,75.3z"/>
		<path class="st13" d="M644.7,106.8c-1.3-1.9-4.2-6.8,1.1-12s3-10.2,3-10.2s5.5,2.7,8.1,6.6c7.7,11.7-4.1,18.2-4.1,18.2
			s4.5-5.9,2.3-12.4c-1.2-3.7-2.8-4.3-2.8-4.3c-0.5,2.2-1.5,4.2-2.8,6.1c-4.3,5.7,2.4,10.7,2.4,10.7S647,110,644.7,106.8z"/>
		<path class="st13" d="M308.5,145.8h100.3c4.7,0,8.5,3.8,8.5,8.5v0.2c0,4.7-3.8,8.5-8.5,8.5H308.5c-4.7,0-8.5-3.8-8.5-8.5v-0.2
			C300,149.6,303.8,145.8,308.5,145.8z"/>
		<polygon class="st37" points="432.5,157.1 432.9,156.7 433.6,154.4 433,155.7 432.5,157.1 		"/>
		<path class="st37" d="M457.9,149.2c-0.3,0.4-0.9,1.2-1.2,1.6c-0.3,0.6-0.5,1.1-0.7,1.7c-0.2,0.6-0.3,1.3-0.4,1.9
			c-0.1,0.5-0.1,2.1-0.1,2.1l-0.1,1.8l-0.1,1.8l-0.1,2.1l2,0.5l0.1-2.1l0.1-1.8l0.1-1.8c0,0,0-1.6,0.1-2.1c0.1-0.8,0.3-1.7,0.5-2.5
			c0.4-0.7,0.8-1.4,1.3-2.1c0.4-0.4,0.9-0.8,1.4-1.2v-2.1c0,0-1.2,0.6-1.6,0.9S457.8,149.2,457.9,149.2L457.9,149.2z"/>
		<polygon class="st38" points="458.3,155.4 458.3,156.3 460.6,156.9 460.6,154.7 460.7,152.7 460.7,150.4 459.5,151.9 458.7,153.6 
			458.3,155.4 		"/>
		<polygon class="st39" points="458.2,157.6 458.2,159.3 458.1,160.8 458,162.5 460.5,163.1 460.5,161.4 460.5,159.9 460.6,158.2 
			458.2,157.6 		"/>
		<polygon class="st40" points="445.9,156.7 445.7,157.6 460.7,164.4 460.7,163.5 		"/>
		<polygon class="st40" points="460.7,133.3 460.7,132.4 450.6,128.6 450.4,129.5 		"/>
		<polygon class="st41" points="449,138.4 449.4,136 449.7,134 450,131.9 450.4,129.5 448.9,130 447.3,130.6 446.9,132.8 
			446.4,135.1 445.6,137.1 444.1,139 442.1,140.5 439.8,141.5 437,142.3 436.5,144.1 439.2,143.4 441.6,142.7 443.9,142.1 
			446.5,141.3 447.8,139.9 449,138.4 		"/>
		<polygon class="st41" points="436.1,145.5 435.4,147.9 434.8,149.9 434.2,152 433.6,154.4 435.8,152.3 437.8,150.4 439.5,148.7 
			441.2,147 443,145.2 444.9,143.1 442.6,143.7 440.6,144.3 438.5,144.9 436.1,145.5 		"/>
		<path class="st41" d="M432.5,157.1l-1.4,5.6l14.8-6l0.2,0.4l0.4-2.4l0.3-2.2l0.3-2.1l0.3-2.1l0.4-2.2l0.4-2.4l0.4-2.7l-2,2.2
			l-1.8,2L443,147l-1.8,1.8l-1.8,1.8l-1.9,1.9l-2.1,2l-2.5,2.2L432.5,157.1z"/>
		<polygon class="st39" points="460.7,133.3 459,132.7 448.4,140.9 448,143.6 447.6,145.9 447.2,148.2 446.9,150.3 446.6,152.4 
			446.2,154.7 445.8,157.1 445.6,156.7 460.7,163.5 		"/>
		<polygon class="st39" points="457.2,132 455.3,131.3 453.7,130.8 452.2,130.2 450.4,129.5 450,131.9 449.7,134 449.4,136 
			449,138.4 450.9,137 452.5,135.8 454,134.6 455.5,133.4 457.2,132 		"/>
		<polygon class="st42" points="446.4,135.1 446.9,132.8 447.3,130.6 445.3,131.2 443.6,131.8 441.8,132.3 439.7,133 439,135.5 
			438.4,137.6 437.7,139.8 437,142.3 439.8,141.5 442.1,140.5 444.1,139 445.6,137.1 446.4,135.1 		"/>
		<polygon class="st37" points="446.5,141.3 443.9,142.1 441.6,142.7 439.2,143.4 436.5,144.1 436.1,145.5 438.5,144.9 440.6,144.3 
			442.6,143.7 444.9,143.1 446.5,141.3 		"/>
		<polygon class="st37" points="448.6,140.9 450.7,139.4 452.5,138 454.2,136.8 455.8,135.5 457.4,134.2 459.2,132.7 457.2,132 
			455.5,133.4 454,134.6 452.5,135.8 450.9,137 449,138.4 448.8,139.7 448.6,140.9 		"/>
		<polygon class="st37" points="446.5,141.3 444.9,143.1 443,145.2 441.2,147 439.5,148.7 437.8,150.4 435.8,152.3 433.6,154.4 
			432.9,156.7 435.4,154.4 437.5,152.4 439.5,150.6 441.3,148.8 443,147 444.8,145.1 446.6,143.1 448.6,140.9 448.8,139.7 
			449,138.4 447.8,139.9 446.5,141.3 		"/>
		<polygon class="st43" points="435.9,155.3 435.3,157.3 434.9,159.1 434.4,161.1 444.5,156.3 445.2,152.9 442.9,153.5 440.6,154.1 
			438.2,154.7 435.9,155.3 		"/>
		<polygon class="st43" points="440.6,154.1 442.9,153.5 445.2,152.9 445.5,151 445.8,149 443.6,149.6 441.4,150.2 441,152.1 
			440.6,154.1 		"/>
		<polygon class="st43" points="448.7,149.2 447.3,157.1 454.3,159.5 454.5,157.4 454.6,155.5 454.8,153.4 455,151 452.8,150.4 
			450.8,149.8 448.7,149.2 		"/>
		<polygon class="st43" points="456.8,137.9 454.6,139.6 452.7,141.1 450.8,142.5 448.4,144.2 449.9,145.8 451.2,147.2 452.8,148.8 
			455,147.2 456.9,145.8 458.8,144.5 460.7,142.9 460.7,142.2 459.4,140.7 458.2,139.4 456.8,137.9 		"/>
		<polygon class="st44" points="431.1,162.7 439.7,133 441.8,132.3 443.6,131.8 445.3,131.2 447.3,130.6 448.9,130 450.4,129.5 
			450.6,128.6 438.9,132.4 429.3,164.4 445.7,157.6 445.9,156.7 		"/>
		<polygon class="st45" points="489.8,162.7 489.3,160.9 488.8,158.9 488.3,156.7 488.7,157.1 488.2,155.7 487.7,154.4 487.1,152 
			486.6,149.9 486.1,147.9 485.5,145.5 485.2,144.1 484.7,142.3 484.1,139.8 483.5,137.6 483,135.5 482.4,133 480.3,132.3 
			478.6,131.8 476.8,131.2 474.9,130.6 473.3,130 471.8,129.5 471.7,128.6 483.2,132.4 491.6,164.4 475.8,157.6 475.7,156.7 		"/>
		<polygon class="st40" points="475.7,156.7 475.8,157.6 460.7,164.4 460.7,163.5 		"/>
		<polygon class="st40" points="460.7,133.3 460.7,132.4 471.7,128.6 471.8,129.5 		"/>
		<polygon class="st41" points="472.9,138.4 472.6,136 472.3,134 472.1,131.9 471.8,129.5 473.3,130 474.9,130.6 475.2,132.8 
			475.6,135.1 476.3,137.1 477.7,139 479.7,140.5 482,141.5 484.7,142.3 488.3,156.7 477.2,152 472.9,138.4 		"/>
		<polygon class="st41" points="485.5,145.5 486.1,147.9 486.6,149.9 487.1,152 487.7,154.4 485.5,152.3 483.7,150.4 482,148.7 
			480.3,147 478.6,145.2 476.8,143.1 479.1,143.7 481.1,144.3 483.1,144.9 485.5,145.5 		"/>
		<path class="st41" d="M488.3,156.7l0.6,2.3l0.5,2l0.4,1.8l-14.1-6l-2.5-15.8l1.9,2.2l1.8,2l1.7,1.9l1.7,1.8l1.7,1.8l1.8,1.9l2.1,2
			L488.3,156.7L488.3,156.7z"/>
		<polygon class="st39" points="460.7,132.7 462.9,132.7 473.2,140.9 475.7,156.7 460.7,163.5 		"/>
		<polygon class="st39" points="464.9,132 466.8,131.3 468.4,130.8 470,130.2 471.8,129.5 472.1,131.9 472.3,134 472.6,136 
			472.9,138.4 471,137 469.5,135.8 468,134.6 466.6,133.4 464.9,132 		"/>
		<path class="st42" d="M471.8,129.5l3.1,1l2,0.6l1.7,0.6l1.8,0.6l2.1,0.6l0.6,2.5l0.5,2.1l0.5,2.2l0.6,2.5l-2.7-0.8l0,0
			c-1.2,0.7-2.7,0.5-3.8-0.5l-2.2-2c-1.5-0.6-2.7-1.9-3.1-3.5L471.8,129.5z"/>
		<polygon class="st37" points="473.2,140.9 471.1,139.4 469.4,138 467.8,136.8 466.2,135.5 464.6,134.2 462.9,132.7 464.9,132 
			466.6,133.4 468,134.6 469.5,135.8 471,137 472.9,138.4 473,139.7 473.2,140.9 		"/>
		<polygon class="st37" points="485.5,152.3 487.7,154.4 488.3,156.7 473.2,140.9 473,139.7 472.9,138.4 		"/>
		<polygon class="st43" points="485.4,155.3 486.7,161.1 477.2,155.7 476.2,152.9 485.4,155.3 		"/>
		<path class="st43" d="M485.4,147.5l-2-0.5l-1-0.3c-0.6-0.1-1-0.5-1.2-1.1l-0.2-1v-0.2c-0.2-0.8,0.6-1.4,1.6-1.1l0,0l1,0.3
			c0.6,0.1,1,0.6,1.2,1.1l0.2,1L485.4,147.5L485.4,147.5z"/>
		<polygon class="st43" points="472.8,149.2 474.2,157.1 461.3,162.9 461.4,153.3 472.8,149.2 		"/>
		<polygon class="st43" points="465.1,137.9 467.2,139.6 469,141.1 471,142.5 468.7,148.8 462.9,148.9 464.7,145.8 462.9,144.5 
			460.7,142.9 460.7,142.2 462.4,140.7 463.7,139.4 465.1,137.9 		"/>
		<polygon class="st43" points="460.9,142.2 460.9,142.9 461.2,142.3 460.9,142.2 		"/>
		<path class="st46" d="M453.5,121.4c0-3.9,3.1-7,7-7v-4.6c-6.4,0-11.5,5.1-11.6,11.5c0,0,0,0.1,0,0.1c0,6.4,11.5,29.9,11.5,29.9
			v-23C456.6,128.3,453.5,125.3,453.5,121.4z"/>
		<path class="st47" d="M460.5,109.9v4.5c3.8,0.4,6.6,3.9,6.2,7.7c-0.4,3.3-2.9,5.9-6.2,6.2v23c0,0,11.5-23.6,11.5-29.9
			C472,115,466.8,109.9,460.5,109.9z"/>
		<path class="st46" d="M465.6,121.4c0,2.9-2.3,5.2-5.2,5.2c0,0,0,0,0,0v1.8c3.8-0.4,6.6-3.9,6.2-7.7c-0.4-3.3-2.9-5.9-6.2-6.2v1.8
			C463.3,116.2,465.6,118.6,465.6,121.4C465.6,121.4,465.6,121.4,465.6,121.4z"/>
		<path class="st47" d="M453.5,121.4c0,3.9,3.1,7,7,7v-1.8c-2.9,0-5.2-2.3-5.2-5.2c0-2.9,2.3-5.2,5.2-5.2v-1.8
			C456.6,114.4,453.5,117.6,453.5,121.4z"/>
		<path class="st48" d="M455.3,121.4c0,2.9,2.3,5.2,5.2,5.2l0,0v-10.4C457.6,116.2,455.3,118.5,455.3,121.4
			C455.3,121.4,455.3,121.4,455.3,121.4z"/>
		<path class="st49" d="M465.6,121.4c0-2.9-2.3-5.2-5.2-5.2c0,0,0,0,0,0v10.4C463.3,126.6,465.6,124.3,465.6,121.4
			C465.6,121.4,465.6,121.4,465.6,121.4z"/>
		<path class="st13" d="M535.4,66.4h71.1c4.1,0,7.5,3.3,7.5,7.5v0.2c0,4.1-3.3,7.5-7.5,7.5h-71.1c-4.1,0-7.5-3.3-7.5-7.5v-0.2
			C527.9,69.8,531.3,66.4,535.4,66.4z"/>
		<polygon class="st30" points="626.8,88.3 622.2,85.7 621.5,86.8 626.8,89.8 		"/>
		<polygon class="st30" points="621.5,86.8 619.4,90.7 626.8,97.4 626.8,89.8 		"/>
		<path class="st21" d="M611.3,102.3v-1.2h9.6h0.3c0.2,0,0.3,0,0.5,0.1c0.7,0.2,1.3,0.7,1.8,1.3c0.5,0.7,0.7,1.5,0.7,2.3v35.4
			c0,0.1,0,0.2,0,0.3v0.2c0,0.2,0,0.3,0.1,0.5c0.1,0.3,0.1,0.6,0.3,0.9c0.5,1.1,1.4,2,2.6,2.3c1.2,0.2,2.4-0.1,3.2-0.9
			c0.4-0.4,0.8-0.9,1-1.5c0-0.1,0.1-0.3,0.1-0.4c0-0.1,0.1-0.3,0.1-0.4c0-0.2,0-0.3,0.1-0.5v-0.2c0-0.1,0-0.2,0-0.3v-37.8h1v37.9
			c0,0.8-0.1,1.6-0.4,2.3c-0.3,0.7-0.7,1.4-1.3,1.9c-0.5,0.5-1.2,0.9-1.9,1.1c-0.7,0.2-1.5,0.2-2.2,0.1c-1.5-0.4-2.8-1.5-3.4-2.9
			c-0.3-0.8-0.5-1.6-0.5-2.4v-35.4c0-0.6-0.2-1.1-0.5-1.6c-0.3-0.4-0.7-0.7-1.2-0.9c-0.5-0.1-0.9-0.1-1.4-0.1L611.3,102.3
			L611.3,102.3z"/>
		<path class="st21" d="M611.3,103.5v-1.2h8.7c0.5,0,0.9,0,1.4,0.1c0.5,0.1,0.9,0.5,1.2,0.9c0.3,0.5,0.5,1,0.5,1.6v35.4
			c0,0.8,0.1,1.6,0.5,2.4c0.6,1.5,1.8,2.5,3.4,2.9c0.7,0.2,1.5,0.1,2.2-0.1c0.7-0.2,1.4-0.6,1.9-1.1c0.6-0.5,1-1.2,1.3-1.9
			c0.3-0.7,0.4-1.5,0.4-2.3v-37.9h1v37.9c0,0.1,0,0.2,0,0.3v0.4c0,0.2,0,0.5-0.1,0.7c0,0.2-0.1,0.5-0.1,0.7
			c-0.1,0.2-0.1,0.5-0.2,0.7c-0.3,0.9-0.9,1.7-1.6,2.4c-0.7,0.6-1.5,1.1-2.4,1.4c-0.4,0.1-0.9,0.2-1.3,0.2c-0.2,0-0.4,0-0.6,0
			c-0.2,0-0.4-0.1-0.7-0.1c-1.9-0.5-3.4-1.8-4.1-3.6c-0.2-0.5-0.3-0.9-0.4-1.4c0-0.2-0.1-0.5-0.1-0.7v-0.4c0-0.1,0-0.2,0-0.3v-35.4
			c0-0.3-0.1-0.6-0.3-0.9c-0.2-0.2-0.4-0.4-0.6-0.5c-0.1,0-0.1,0-0.2,0L611.3,103.5L611.3,103.5z"/>
		<path class="st50" d="M609.4,90.7c2.1,0.1,3.8,1.9,3.8,4v9.1c0.1,2.1-1.6,3.9-3.8,4H601v40.9h16.7V90c0-3.7-2.2-6.6-4.9-6.6H601
			v7.4H609.4z"/>
		<path class="st30" d="M601,107.9h-8.4c-2.1-0.1-3.8-1.9-3.8-4v-9.1c0-2.1,1.6-3.9,3.8-4h8.4v-7.5h-11.9c-2.7,0-4.9,3-4.9,6.6v58.9
			H601V107.9z"/>
		<polygon class="st7" points="584.2,148.8 580.6,148.8 580.6,155.2 601,155.2 601,148.8 		"/>
		<polygon class="st8" points="660,148.8 647.2,148.8 601,148.8 601,155.2 660,155.2 		"/>
		<path class="st8" d="M613.2,103.9v-9.1c0-2.1-1.6-3.9-3.8-4H601v0.8h8.4c1.7,0.1,3.1,1.5,3,3.2v9.1c0.1,1.7-1.3,3.1-3,3.2H601v0.8
			h8.4C611.5,107.9,613.2,106.1,613.2,103.9C613.2,103.9,613.2,103.9,613.2,103.9z"/>
		<path class="st23" d="M592.6,107.1c-1.7-0.1-3.1-1.5-3-3.2c0,0,0,0,0,0v-9.1c-0.1-1.7,1.3-3.1,3-3.2c0,0,0,0,0,0h8.4v-0.8h-8.4
			c-2.1,0.1-3.8,1.9-3.8,4v9.1c-0.1,2.1,1.6,3.9,3.8,4h8.4V107L592.6,107.1z"/>
		<path class="st23" d="M609.4,92.4c1.3,0,2.3,1.1,2.2,2.3c0,0,0,0,0,0v9.1c0,1.3-1,2.3-2.2,2.3H601v0.8h8.4c1.7-0.1,3.1-1.5,3-3.2
			v-9.1c0.1-1.7-1.3-3.1-3-3.2H601v0.8H609.4z"/>
		<path class="st24" d="M589.6,94.8v9.1c-0.1,1.7,1.3,3.1,3,3.2c0,0,0,0,0,0h8.4v-0.8h-8.4c-1.3,0-2.3-1.1-2.2-2.3v-9.1
			c0-1.3,1-2.3,2.2-2.3c0,0,0,0,0,0h8.4v-0.8h-8.4C590.9,91.6,589.5,93.1,589.6,94.8z"/>
		<path class="st30" d="M627.7,101.8l6.1,3.8V95c0-1.4-0.7-2.7-1.8-3.4l-6.1-3.8v10.7C625.9,99.8,626.5,101.1,627.7,101.8z"/>
		<path class="st8" d="M628.6,100c-0.5-0.3-0.9-0.9-0.8-1.6v-7l3.3,2c0.5,0.3,0.8,0.9,0.8,1.6v7.1L628.6,100z"/>
		<path class="st21" d="M594.8,92.4h-2.2c-1.3,0-2.3,1.1-2.2,2.3c0,0,0,0,0,0v9.1c0,1.3,1,2.3,2.2,2.3h14.6L594.8,92.4z"/>
		<path class="st25" d="M609.4,106.2c1.3,0,2.3-1.1,2.2-2.3v-9.1c0-1.3-1-2.3-2.2-2.3c0,0,0,0,0,0h-14.6l12.4,13.8H609.4z"/>
		<path class="st4" d="M645,148.8h-4.7v-20.2c0-2.7,2-4.9,4.7-5.1l0,0V148.8z"/>
		<path class="st3" d="M645,148.8h4.7v-20.2c0-2.7-2-4.9-4.7-5.1l0,0V148.8z"/>
		<rect x="643.7" y="122" class="st22" width="1.3" height="2.6"/>
		<rect x="645" y="122" class="st12" width="1.3" height="2.6"/>
		<rect x="643.3" y="117.9" class="st51" width="2.6" height="2.1"/>
		<path class="st51" d="M644,118.6c-2.3-0.2-4.5-0.1-6.8,0.3c0,0.3,0,0.7,0,1c2.2-0.4,4.4-0.5,6.6-0.3L644,118.6z"/>
		<path class="st51" d="M646,117.9c-2.9-1.8-6.1-3-9.5-3.5c0,0.2,0.1,0.5,0.1,0.8c2.8,0.7,5.4,1.9,7.8,3.5
			C644.9,118.4,645.4,118.2,646,117.9z"/>
		<polygon class="st21" points="652.7,123.6 652,124.3 650.7,122.9 651.4,122.1 		"/>
		<polygon class="st52" points="652.7,123.6 653.3,122.8 652.1,121.4 651.4,122.1 		"/>
		<polygon class="st21" points="658.3,129.8 652.7,123.6 652,124.3 656.6,131.7 		"/>
		<polygon class="st52" points="658.3,129.8 652.7,123.6 653.3,122.8 660,127.9 		"/>
		<path class="st21" d="M652.4,124.3l-1.8-2.1c-0.5-0.6-1.2-0.9-1.9-0.9h-1.7v-1.2h1.7c1,0,2,0.5,2.7,1.2l1.8,2.1L652.4,124.3z"/>
		<path class="st5" d="M645,122h-1.5c-0.5,0-0.9-0.5-0.9-1l0,0c0-0.5,0.4-1,0.9-1h1.5V122z"/>
		<path class="st15" d="M645,122h1.5c0.5,0,0.9-0.5,0.9-1l0,0c0-0.5-0.4-1-0.9-1H645V122z"/>
		<path class="st53" d="M594.1,141.6c-1.4-2.2-4.5-8.1,1.2-14.4c5.7-6.3,3.2-12.2,3.2-12.2s5.9,3.2,8.7,7.9
			c8.3,14-4.4,21.8-4.4,21.8s4.8-7.1,2.5-14.9c-1.3-4.4-3.1-5.2-3.1-5.2c-0.6,2.6-1.6,5-3,7.3c-4.7,6.8,2.5,12.8,2.5,12.8
			S596.5,145.4,594.1,141.6z"/>
		<path class="st14" d="M527.9,155.2h-4.8c-1,0-1.7-0.9-1.7-1.9c0,0,0,0,0,0v-8.4c-0.1-1,0.7-1.8,1.7-1.9c0,0,0,0,0,0h4.8
			c1,0.1,1.7,0.9,1.7,1.9v8.4C529.6,154.3,528.9,155.1,527.9,155.2z"/>
		<rect x="518.5" y="129.3" class="st54" width="25.9" height="12"/>
		<path class="st55" d="M544.4,148h-19.9c-3.3,0-6-3-6-6.6v-0.1h25.9L544.4,148z"/>
		<polygon class="st56" points="544.4,129.3 518.5,129.3 527.5,121.3 544.4,121.3 		"/>
		<polygon class="st1" points="532.5,122.7 544.4,122.7 544.4,140 525.3,139.1 522,129.3 		"/>
		<path class="st3" d="M520.8,129.3L520.8,129.3c0.7,0,1.4,0.5,1.6,1.2l1.9,5.1c0.4,1,0,2.1-1,2.5c-0.2,0.1-0.4,0.1-0.6,0.2h-2.4
			c-1-0.1-1.8-0.9-1.7-2c0,0,0-0.1,0-0.1l0.4-5.1C519,130.1,519.8,129.3,520.8,129.3z"/>
		<path class="st5" d="M520.4,137.6c-0.3,0-0.6-0.1-0.8-0.4c-0.2-0.3-0.3-0.6-0.3-0.9l0.4-5.1c0-0.6,0.5-1.1,1.1-1.1
			c0.5,0,0.9,0.3,1.1,0.8l1.9,5.1c0.1,0.4,0.1,0.8-0.1,1.2c-0.2,0.3-0.5,0.6-0.9,0.6H520.4z"/>
		<path class="st21" d="M544.4,124.1h-10.8c-0.6,0-5.1,5-5.1,5c-1.4,0.9-2,2.7-1.5,4.3l0.4,1.2c0.4,1.5,1.6,2.5,3.1,2.5h13.9V124.1z
			"/>
		<path class="st54" d="M544.4,121.4h-3.1c-4.7,0-9.4,1.2-13.6,3.4l-2.2,1.1l2.3-15.3c0.3-2.7,2.5-4.8,5.3-4.9h11.3L544.4,121.4z"/>
		<path class="st57" d="M544.4,130.1h-11.2v-2.4c0-0.9,0.7-1.7,1.6-1.8h9.6V130.1z"/>
		<path class="st58" d="M544.4,134.2h-9.6c-0.9,0-1.6-0.8-1.6-1.8v-2.4h11.2L544.4,134.2z"/>
		<path class="st14" d="M560.8,155.2h4.8c1-0.1,1.7-0.9,1.7-1.9v-8.4c0.1-1-0.7-1.8-1.7-1.9h-4.8c-1,0-1.7,0.9-1.7,1.9c0,0,0,0,0,0
			v8.4C559,154.3,559.8,155.1,560.8,155.2C560.8,155.2,560.8,155.2,560.8,155.2z"/>
		<rect x="544.4" y="129.3" class="st59" width="25.9" height="12"/>
		<path class="st55" d="M544.4,148h19.9c3.3,0,6-3,6-6.6v-0.1h-25.9V148z"/>
		<polygon class="st60" points="544.4,129.3 570.2,129.3 561.2,121.3 544.4,121.3 		"/>
		<polygon class="st1" points="556.2,122.7 544.4,122.7 544.4,140 563.4,139.1 566.8,129.3 		"/>
		<path class="st3" d="M568,129.3L568,129.3c-0.7,0-1.4,0.5-1.6,1.2l-1.9,5.1c-0.4,1,0,2.1,1,2.5c0.2,0.1,0.4,0.1,0.6,0.1h2.3
			c1-0.1,1.8-0.9,1.8-2c0,0,0-0.1,0-0.1l-0.4-5.1C569.7,130.1,568.9,129.3,568,129.3z"/>
		<path class="st5" d="M566,137.6c-0.4,0-0.7-0.2-0.9-0.6c-0.2-0.4-0.2-0.8-0.1-1.2l1.9-5.1c0.1-0.4,0.5-0.7,1-0.8
			c0.6,0,1.1,0.5,1.1,1.1l0.4,5.1c0,0.3-0.1,0.7-0.3,0.9c-0.2,0.3-0.5,0.4-0.8,0.4H566z"/>
		<path class="st6" d="M544.4,124.1h10.8c0.6,0,5.1,5,5.1,5c1.4,0.9,2,2.7,1.5,4.3l-0.4,1.2c-0.4,1.5-1.6,2.5-3.1,2.5h-13.9V124.1z"
			/>
		<path class="st19" d="M544.4,130.1h11.2v-2.4c0-0.9-0.7-1.7-1.6-1.8h-9.6V130.1z"/>
		<path class="st61" d="M544.4,134.2h9.6c0.9,0,1.6-0.8,1.6-1.8v-2.4h-11.2V134.2z"/>
		<path class="st60" d="M547.5,127.1L547.5,127.1z"/>
		<path class="st60" d="M547.5,127.1L547.5,127.1z"/>
		<path class="st59" d="M560.9,110.7c-0.3-2.7-2.5-4.8-5.3-4.9h-11.3v1.6h11.3c2,0.1,3.7,1.6,3.9,3.6l1.9,12.4h-0.1
			c-4.2-2.2-8.9-3.4-13.6-3.4h-3.4v1.5h3.1c4.7,0,9.4,1.2,13.6,3.4l2.2,1.1L560.9,110.7z"/>
		<path class="st55" d="M533.1,107.3c-2,0.1-3.7,1.6-3.9,3.6l-1.9,12.4h0.1c4.2-2.2,8.9-3.4,13.6-3.4h3.4v-12.7H533.1z"/>
		<path class="st62" d="M561.4,123.3l-1.9-12.4c-0.2-2-1.9-3.6-3.9-3.6h-11.3v12.6h3.4C552.5,119.9,557.2,121.1,561.4,123.3
			L561.4,123.3z"/>
		<path class="st63" d="M537.9,128h-3.1c-0.4,0-0.6-0.3-0.6-0.7c0,0,0,0,0,0l0,0c0-0.4,0.3-0.7,0.6-0.7h3.1c0.4,0,0.6,0.3,0.6,0.7
			l0,0C538.5,127.7,538.3,128,537.9,128C537.9,128,537.9,128,537.9,128z"/>
		<path class="st7" d="M527.5,119.6l-2,11l0,0c1-0.4,1.7-1.3,1.8-2.3L527.5,119.6z"/>
		<path class="st7" d="M563.3,130.7L563.3,130.7c-1-0.4-1.7-1.3-1.8-2.3l-0.2-8.7L563.3,130.7z"/>
		<polygon class="st8" points="532.7,124.1 523.2,132.5 523.8,134.2 		"/>
		<polygon class="st8" points="555.9,124.1 565.4,132.5 564.7,134.2 		"/>
		<polygon class="st64" points="540.2,127.1 539.4,127.1 539.4,131.4 539.4,132.5 540.2,132.5 542,132.5 542,131.4 540.2,131.4 		
			"/>
		<path class="st64" d="M550.1,131.1c-0.2,0.3-0.5,0.4-0.8,0.4H549c-0.6,0-1.1-0.6-1.1-1.2v-1.1c0-0.7,0.5-1.2,1.1-1.2c0,0,0,0,0,0
			h0.3c0.4,0,0.7,0.2,0.9,0.5h0.9c-0.2-0.8-1-1.4-1.8-1.4H549c-1.1,0-2,1-2,2.2c0,0,0,0,0,0v1c0,1,0.6,1.9,1.6,2.1h0.4h0.3l0.4-0.1
			c0.2,0,0.3-0.1,0.5-0.2v0.2h0.9v-1.8h-0.9L550.1,131.1z"/>
		<path class="st64" d="M544.9,127.1h-1.4v0.9l0,0v1.6l0,0v0.9l0,0v1.9h0.8v-1.9h0.6c0.9,0,1.6-0.8,1.5-1.7l0,0
			C546.5,128,545.8,127.2,544.9,127.1C544.9,127.1,544.9,127.1,544.9,127.1z M545.6,128.8c0,0.4-0.3,0.8-0.7,0.8c0,0,0,0,0,0h-0.6
			V128h0.6C545.3,128,545.6,128.4,545.6,128.8C545.6,128.8,545.6,128.8,545.6,128.8L545.6,128.8z"/>
		<path class="st13" d="M666.9,174.4H514.7c-5.1,0-9.2-4.6-9.2-10.2v-0.2c0-5.6,4.1-10.2,9.2-10.2h152.2c5.1,0,9.2,4.6,9.2,10.2v0.2
			C676,169.8,671.9,174.4,666.9,174.4z"/>
	</g>
</g>
</svg>
