<svg id="레이어_1" data-name="레이어 1" xmlns="http://www.w3.org/2000/svg" viewBox="0 0 1027 149.4"><defs><style>.cls-1{fill:#4fb3c6;}.cls-2{fill:#00996b;}.cls-3{fill:#747779;}.cls-4{fill:#dee0e2;}.cls-5{fill:#bcc0c4;}.cls-6{fill:#9da2a2;}.cls-7{fill:#7a8181;}.cls-8{fill:#c0c3c3;}.cls-9{fill:#dbdddd;}.cls-10{fill:#b1b5b5;}.cls-11{fill:#c7caca;}.cls-12{fill:#bbbfbf;}.cls-13{fill:#999;}.cls-14{fill:#c6c9c9;opacity:0.64;}.cls-14,.cls-18,.cls-29,.cls-43,.cls-50{isolation:isolate;}.cls-15{fill:#edebec;}.cls-16{fill:#bdbdbd;}.cls-17{fill:#e5e3e4;}.cls-18{fill:#d0cdce;opacity:0.35;}.cls-19{fill:#e3e3e3;}.cls-20{fill:#cdc0b2;}.cls-21{fill:#c3c1c3;}.cls-22{fill:#7b828a;}.cls-23{fill:#d9d0c5;}.cls-24{fill:#dbdbdb;}.cls-25{fill:#d1d1d1;}.cls-26{fill:#d9d9d9;}.cls-27{fill:#dedede;}.cls-28{fill:#ccc;}.cls-29,.cls-36{fill:#898989;}.cls-29{opacity:0.65;}.cls-30{fill:#d5d6d8;}.cls-31{fill:#48c395;}.cls-32{fill:#fff;}.cls-33{fill:#332c33;}.cls-34{fill:#a1a1a1;}.cls-35{fill:#ddd;}.cls-37{fill:#00eed5;}.cls-38{fill:#242424;}.cls-39{fill:#221a22;}.cls-40{fill:#d8d8d8;}.cls-41{fill:#c0bec0;}.cls-42{fill:#ffcb00;}.cls-43{fill:#5e585e;opacity:0.52;}.cls-44{fill:#f4f3f4;}.cls-45{fill:#9a9a9b;}.cls-46{fill:#ff476f;}.cls-47{fill:#8d8d8d;}.cls-48{fill:#797979;}.cls-49,.cls-50{fill:#eaebe6;}.cls-50{opacity:0.32;}.cls-51{fill:#a8a8a8;}.cls-52{fill:#717171;}.cls-53{fill:#90beda;}.cls-54{fill:#b7d4e7;}.cls-55{fill:#006aaa;}.cls-56{fill:#635e63;}.cls-57{fill:#9d9d9d;}.cls-58{fill:#efefef;}.cls-59{fill:#ea231c;}.cls-60{fill:#eae9ea;}.cls-61{fill:#b43535;}.cls-62{fill:#c9c9c9;}.cls-63{fill:#fefcf7;}</style></defs><g id="레이어_2" data-name="레이어 2"><rect class="cls-1" width="1027" height="130.41"/><path class="cls-2" d="M598.09,45c-6,2.82-12.17,5.47-18.94,5.55-13.08.15-27-11.85-39.34-5.72-5.28,2.55-10.7,6.73-16.64,7.58a48.22,48.22,0,0,1-24.9-2.86c-13.23-5.1-25-11.91-38.39-5.28-7,3.48-14.16,7.77-22,8.84-8.3,1.14-15.27-.67-23.06-3.52-15.52-5.69-28.88-1.81-44.05,2.55-8.53,2.48-17.74,3.59-26.49,1.51-7-1.66-13-10.71-29.08-5.83-6.79,2.07-12.72,6.71-19.75,8.14a48.53,48.53,0,0,1-29.65-3.47c-6.51-2.89-27.81-7.52-44.55,3.6-14.71,9.74-33-2.55-48.14-9-5.51-2.38-13.91-1-20.37,5.22s-17.74,6-26.34,2.82A41.66,41.66,0,0,1,114,47.63a69.62,69.62,0,0,0-6-5.1c-2-1.19.28-.73-2.43-.83a38.38,38.38,0,0,0-6,.1,47.15,47.15,0,0,0-10.18,2.68C82.16,47,75.52,51.63,68.08,54c-10.19,3.25-20.76,1.06-29.71-4.51-5.78-3.6-11.45-10.07-18.2-11.37-7.75-1.47-15.39.94-20,6.62v86.55H598.3V44.92Z"/><path class="cls-2" d="M1027,53.52a66.59,66.59,0,0,1-15.33-3.68c-15.51-5.69-28.88-1.81-44,2.56-8.52,2.47-17.74,3.58-26.48,1.5-7-1.66-13-10.71-29.08-5.83-6.8,2.07-12.73,6.71-19.76,8.14a48.54,48.54,0,0,1-29.65-3.47c-6.5-2.88-27.81-7.52-44.54,3.6-14.72,9.74-33-2.55-48.15-9-5.51-2.38-13.91-1-20.36,5.22s-17.75,6-26.35,2.82a42,42,0,0,1-12.37-7.45,68,68,0,0,0-6-5.11c-2.05-1.19.28-.73-2.43-.83a38.38,38.38,0,0,0-6,.1,47.73,47.73,0,0,0-10.18,2.68C679,47.32,672.39,51.91,665,54.3c-10.18,3.25-20.76,1.06-29.71-4.51-5.77-3.6-11.45-10.07-18.2-11.37-7.75-1.47-15.38.94-20,6.62v86.55h430"/><rect class="cls-3" y="114.13" width="1027" height="35.27"/><rect class="cls-4" x="569.84" y="84.9" width="90.71" height="30.8"/><rect class="cls-5" x="567.81" y="72.7" width="92.73" height="14.96"/><rect class="cls-6" x="567.81" y="110.98" width="92.73" height="4.74"/><rect class="cls-7" x="573.78" y="89.33" width="4.14" height="4.71"/><rect class="cls-7" x="582.35" y="89.33" width="4.14" height="4.71"/><rect class="cls-7" x="573.78" y="96.57" width="4.14" height="4.71"/><rect class="cls-7" x="582.35" y="96.57" width="4.14" height="4.71"/><rect class="cls-7" x="573.78" y="103.81" width="4.14" height="4.71"/><rect class="cls-7" x="582.35" y="103.81" width="4.14" height="4.71"/><rect class="cls-7" x="644.29" y="89.33" width="4.14" height="4.71"/><rect class="cls-7" x="652.87" y="89.33" width="4.14" height="4.71"/><rect class="cls-7" x="644.29" y="96.57" width="4.14" height="4.71"/><rect class="cls-7" x="652.87" y="96.57" width="4.14" height="4.71"/><rect class="cls-7" x="644.29" y="103.81" width="4.14" height="4.71"/><rect class="cls-7" x="652.87" y="103.81" width="4.14" height="4.71"/><polygon class="cls-8" points="660.54 99.99 644.47 83.05 627.21 83.05 630.37 115.72 660.54 115.72 660.54 99.99"/><rect class="cls-9" x="592.73" y="80.91" width="45.18" height="31.45"/><path class="cls-10" d="M600.66,87.2c-1.92,0-3.48,2.27-3.48,5.11v15h7v-15C604.15,89.47,602.58,87.2,600.66,87.2Z"/><path class="cls-10" d="M610.39,87.2c-1.93,0-3.49,2.27-3.49,5.11v15h7v-15C613.87,89.47,612.3,87.2,610.39,87.2Z"/><path class="cls-10" d="M620.11,87.2c-1.92,0-3.49,2.27-3.49,5.11v15h7v-15C623.6,89.47,622,87.2,620.11,87.2Z"/><path class="cls-10" d="M629.83,87.2c-1.92,0-3.48,2.27-3.48,5.11v15h7v-15C633.32,89.47,631.77,87.2,629.83,87.2Z"/><path class="cls-11" d="M599.44,96.52c0-2.81,1.57-5.11,3.49-5.11a2.58,2.58,0,0,1,1.19.32c-.19-2.55-1.66-4.54-3.46-4.54s-3.48,2.27-3.48,5.1v15h2.26Z"/><path class="cls-11" d="M609.18,96.52c0-2.81,1.56-5.11,3.48-5.11a2.62,2.62,0,0,1,1.2.32c-.19-2.55-1.67-4.54-3.46-4.54s-3.49,2.27-3.49,5.1v15h2.27Z"/><path class="cls-11" d="M618.91,96.52c0-2.81,1.57-5.11,3.49-5.11a2.65,2.65,0,0,1,1.2.32c-.19-2.55-1.67-4.54-3.46-4.54s-3.49,2.27-3.49,5.1v15h2.26Z"/><path class="cls-11" d="M628.65,96.52c0-2.81,1.56-5.11,3.49-5.11a2.58,2.58,0,0,1,1.19.32c-.19-2.55-1.66-4.54-3.46-4.54s-3.49,2.27-3.49,5.1v15h2.27Z"/><rect class="cls-12" x="591.65" y="109.4" width="47.15" height="5.19"/><rect class="cls-13" x="589.58" y="111.99" width="51.3" height="3.73"/><rect class="cls-14" x="592.73" y="80.91" width="45.18" height="5.34"/><polygon class="cls-9" points="615.24 59.12 586 83.05 644.47 83.05 615.24 59.12"/><polygon class="cls-10" points="615.24 64.94 594.9 81.01 635.57 81.01 615.24 64.94"/><polygon class="cls-8" points="592.73 88.43 567.81 72.7 567.81 87.66 569.84 87.66 569.84 110.98 567.81 110.98 567.81 115.72 589.58 115.72 589.58 111.99 591.65 111.99 591.65 109.39 592.73 109.39 592.73 88.43"/><rect class="cls-15" x="509.93" y="61.44" width="12.09" height="5.67"/><rect class="cls-16" x="511.03" y="62.36" width="1.04" height="2.95"/><rect class="cls-16" x="513.18" y="62.36" width="1.04" height="2.95"/><rect class="cls-16" x="515.33" y="62.36" width="1.04" height="2.95"/><rect class="cls-16" x="517.48" y="62.36" width="1.04" height="2.95"/><rect class="cls-16" x="519.62" y="62.36" width="1.04" height="2.95"/><rect class="cls-13" x="508.67" y="59.98" width="14.36" height="1.68"/><rect class="cls-15" x="417.24" y="61.44" width="12.09" height="5.67"/><rect class="cls-16" x="418.35" y="62.36" width="1.04" height="2.95"/><rect class="cls-16" x="420.49" y="62.36" width="1.04" height="2.95"/><rect class="cls-16" x="422.64" y="62.36" width="1.04" height="2.95"/><rect class="cls-16" x="424.79" y="62.36" width="1.04" height="2.95"/><rect class="cls-16" x="426.94" y="62.36" width="1.04" height="2.95"/><rect class="cls-13" x="415.98" y="59.98" width="14.36" height="1.68"/><polygon class="cls-16" points="384.89 64.37 382.17 64.37 383.38 46.63 383.68 46.63 384.89 64.37"/><polygon class="cls-16" points="557.38 64.37 554.65 64.37 555.86 46.63 556.17 46.63 557.38 64.37"/><rect class="cls-16" x="370.35" y="66.26" width="199" height="44.37"/><rect class="cls-17" x="429.46" y="66.26" width="80.68" height="44.37"/><rect class="cls-18" x="370.35" y="70.8" width="199" height="4.56"/><rect class="cls-19" x="370.35" y="94.61" width="199" height="2.83"/><rect class="cls-19" x="370.35" y="66.26" width="199" height="6.48"/><rect class="cls-20" x="370.35" y="66.26" width="199" height="2.09"/><rect class="cls-15" x="453.41" y="67.46" width="32.9" height="43.15"/><rect class="cls-13" x="458.29" y="72.73" width="23.76" height="23.77"/><rect class="cls-16" x="464.89" y="72.73" width="2.53" height="23.77"/><rect class="cls-16" x="472.29" y="72.73" width="2.53" height="23.77"/><rect class="cls-16" x="479.53" y="72.73" width="2.53" height="23.77"/><rect class="cls-16" x="458.31" y="72.73" width="2.53" height="23.77"/><rect class="cls-13" x="374.9" y="66.26" width="189.91" height="2.83"/><rect class="cls-18" x="453.41" y="66.26" width="32.9" height="2.83"/><rect class="cls-17" x="370.35" y="62.91" width="26.5" height="47.7"/><rect class="cls-21" x="370.35" y="66.86" width="26.5" height="4.29"/><rect class="cls-13" x="374.3" y="72.73" width="19.12" height="23.77"/><rect class="cls-16" x="379.61" y="72.73" width="2.04" height="23.77"/><rect class="cls-16" x="385.56" y="72.73" width="2.04" height="23.77"/><rect class="cls-16" x="391.39" y="72.73" width="2.04" height="23.77"/><rect class="cls-16" x="374.3" y="72.73" width="2.04" height="23.77"/><path class="cls-16" d="M469.85,99.3a3.71,3.71,0,0,0-3.7,3.69h0v7.33h7.42V103a3.7,3.7,0,0,0-3.7-3.69Z"/><path class="cls-16" d="M478.25,101.57c-1,0-1.82,1.28-1.82,2.94v5.81h3.66v-5.84C480.09,102.89,479.27,101.57,478.25,101.57Z"/><path class="cls-16" d="M461.44,101.57c-1,0-1.82,1.28-1.82,2.94v5.81h3.65v-5.84C463.27,102.89,462.46,101.57,461.44,101.57Z"/><rect class="cls-16" x="556.97" y="102.11" width="3.65" height="8.22"/><rect class="cls-22" x="377.1" y="78.13" width="1.99" height="5.6"/><rect class="cls-22" x="382.61" y="78.13" width="1.99" height="5.6"/><rect class="cls-22" x="388.77" y="78.13" width="1.99" height="5.6"/><rect class="cls-22" x="377.1" y="88.12" width="1.99" height="5.6"/><rect class="cls-22" x="382.61" y="88.12" width="1.99" height="5.6"/><rect class="cls-22" x="388.77" y="88.12" width="1.99" height="5.6"/><rect class="cls-22" x="399.07" y="78.13" width="3.09" height="5.6"/><rect class="cls-22" x="399.07" y="88.12" width="3.09" height="5.6"/><rect class="cls-22" x="407.01" y="78.13" width="3.09" height="5.6"/><rect class="cls-22" x="407.01" y="88.12" width="3.09" height="5.6"/><rect class="cls-22" x="414.95" y="78.13" width="3.09" height="5.6"/><rect class="cls-22" x="414.95" y="88.12" width="3.09" height="5.6"/><rect class="cls-22" x="422.89" y="78.13" width="3.09" height="5.6"/><rect class="cls-22" x="422.89" y="88.12" width="3.09" height="5.6"/><rect class="cls-22" x="430.83" y="78.13" width="3.09" height="5.6"/><rect class="cls-22" x="430.83" y="88.12" width="3.09" height="5.6"/><rect class="cls-22" x="438.78" y="78.13" width="3.09" height="5.6"/><rect class="cls-22" x="438.78" y="88.12" width="3.09" height="5.6"/><rect class="cls-22" x="446.72" y="78.13" width="3.09" height="5.6"/><rect class="cls-22" x="446.72" y="88.12" width="3.09" height="5.6"/><rect class="cls-22" x="537.55" y="78.13" width="3.09" height="5.6"/><rect class="cls-22" x="537.55" y="88.12" width="3.09" height="5.6"/><rect class="cls-22" x="529.61" y="78.13" width="3.09" height="5.6"/><rect class="cls-22" x="529.61" y="88.12" width="3.09" height="5.6"/><rect class="cls-22" x="521.67" y="78.13" width="3.09" height="5.6"/><rect class="cls-22" x="521.67" y="88.12" width="3.09" height="5.6"/><rect class="cls-22" x="513.72" y="78.13" width="3.09" height="5.6"/><rect class="cls-22" x="513.72" y="88.12" width="3.09" height="5.6"/><rect class="cls-22" x="505.78" y="78.13" width="3.09" height="5.6"/><rect class="cls-22" x="505.78" y="88.12" width="3.09" height="5.6"/><rect class="cls-22" x="497.84" y="78.13" width="3.09" height="5.6"/><rect class="cls-22" x="497.84" y="88.12" width="3.09" height="5.6"/><rect class="cls-22" x="489.9" y="78.13" width="3.09" height="5.6"/><rect class="cls-22" x="489.9" y="88.12" width="3.09" height="5.6"/><rect class="cls-16" x="381.77" y="102.11" width="3.65" height="8.22"/><rect class="cls-16" x="382.33" y="98.73" width="2.55" height="2.03"/><rect class="cls-16" x="374.05" y="98.73" width="2.55" height="2.03"/><rect class="cls-16" x="374.05" y="102.11" width="2.55" height="4.52"/><rect class="cls-16" x="391.14" y="98.73" width="2.55" height="2.03"/><rect class="cls-16" x="391.14" y="102.11" width="2.55" height="4.52"/><rect class="cls-22" x="400.06" y="98.73" width="2.55" height="2.03"/><rect class="cls-22" x="400.06" y="102.11" width="2.55" height="4.52"/><rect class="cls-22" x="408" y="98.73" width="2.55" height="2.03"/><rect class="cls-22" x="408" y="102.11" width="2.55" height="4.52"/><rect class="cls-22" x="415.94" y="98.73" width="2.55" height="2.03"/><rect class="cls-22" x="415.94" y="102.11" width="2.55" height="4.52"/><rect class="cls-22" x="423.16" y="98.73" width="2.55" height="2.03"/><rect class="cls-22" x="423.16" y="102.11" width="2.55" height="4.52"/><rect class="cls-22" x="432.28" y="98.73" width="2.55" height="2.03"/><rect class="cls-22" x="432.28" y="102.11" width="2.55" height="4.52"/><rect class="cls-22" x="439.77" y="98.73" width="2.55" height="2.03"/><rect class="cls-22" x="439.77" y="102.11" width="2.55" height="4.52"/><rect class="cls-22" x="447.26" y="98.73" width="2.55" height="2.03"/><rect class="cls-22" x="447.26" y="102.11" width="2.55" height="4.52"/><rect class="cls-22" x="537.1" y="98.73" width="2.55" height="2.03"/><rect class="cls-22" x="537.1" y="102.11" width="2.55" height="4.52"/><rect class="cls-22" x="529.16" y="98.73" width="2.55" height="2.03"/><rect class="cls-22" x="529.16" y="102.11" width="2.55" height="4.52"/><rect class="cls-22" x="521.22" y="98.73" width="2.55" height="2.03"/><rect class="cls-22" x="521.22" y="102.11" width="2.55" height="4.52"/><rect class="cls-22" x="514" y="98.73" width="2.55" height="2.03"/><rect class="cls-22" x="514" y="102.11" width="2.55" height="4.52"/><rect class="cls-22" x="504.88" y="98.73" width="2.55" height="2.03"/><rect class="cls-22" x="504.88" y="102.11" width="2.55" height="4.52"/><rect class="cls-22" x="497.4" y="98.73" width="2.55" height="2.03"/><rect class="cls-22" x="497.4" y="102.11" width="2.55" height="4.52"/><rect class="cls-22" x="489.9" y="98.73" width="2.55" height="2.03"/><rect class="cls-22" x="489.9" y="102.11" width="2.55" height="4.52"/><rect class="cls-23" x="542.86" y="62.91" width="26.5" height="47.7"/><rect class="cls-17" x="542.86" y="62.91" width="26.5" height="47.7"/><rect class="cls-21" x="542.86" y="66.86" width="26.5" height="4.29"/><rect class="cls-16" x="558.07" y="72.73" width="2.04" height="23.77"/><rect class="cls-16" x="552.11" y="72.73" width="2.04" height="23.77"/><rect class="cls-16" x="546.28" y="72.73" width="2.04" height="23.77"/><rect class="cls-16" x="563.36" y="72.73" width="2.04" height="23.77"/><rect class="cls-22" x="560.62" y="78.13" width="1.99" height="5.6"/><rect class="cls-22" x="555.11" y="78.13" width="1.99" height="5.6"/><rect class="cls-22" x="548.97" y="78.13" width="1.99" height="5.6"/><rect class="cls-22" x="560.62" y="88.12" width="1.99" height="5.6"/><rect class="cls-22" x="555.11" y="88.12" width="1.99" height="5.6"/><rect class="cls-22" x="548.97" y="88.12" width="1.99" height="5.6"/><rect class="cls-16" x="554.18" y="102.11" width="3.65" height="8.22"/><rect class="cls-16" x="555" y="98.73" width="2.04" height="2.03"/><rect class="cls-16" x="563.11" y="98.73" width="2.55" height="2.03"/><rect class="cls-16" x="563.11" y="102.11" width="2.55" height="4.52"/><rect class="cls-16" x="546.03" y="98.73" width="2.55" height="2.03"/><rect class="cls-16" x="546.03" y="102.11" width="2.55" height="4.52"/><rect class="cls-22" x="461.67" y="78.13" width="2.47" height="5.6"/><rect class="cls-22" x="468.62" y="78.13" width="2.47" height="5.6"/><rect class="cls-22" x="475.85" y="78.13" width="2.47" height="5.6"/><rect class="cls-22" x="461.67" y="87.83" width="2.47" height="5.6"/><rect class="cls-22" x="468.62" y="87.83" width="2.47" height="5.6"/><rect class="cls-22" x="475.85" y="87.83" width="2.47" height="5.6"/><rect class="cls-13" x="369.57" y="110.32" width="200.68" height="5.4"/><rect class="cls-24" x="469.23" y="21.8" width="1.23" height="6.68"/><path class="cls-25" d="M474.84,37.82A1.75,1.75,0,0,0,475,37c0-1.63-2.34-3-5.22-3s-5.21,1.28-5.21,3a1.89,1.89,0,0,0,.17.78Z"/><rect class="cls-25" x="468.29" y="30.2" width="3.13" height="5.39"/><rect class="cls-17" x="453.21" y="56.14" width="33.29" height="10.12"/><rect class="cls-26" x="453.21" y="64.05" width="33.29" height="2.21"/><rect class="cls-26" x="453.21" y="56.14" width="33.29" height="2.21"/><rect class="cls-16" x="454.72" y="59.25" width="1.6" height="3.96"/><rect class="cls-16" x="457.34" y="59.25" width="1.6" height="3.96"/><rect class="cls-16" x="459.97" y="59.25" width="1.6" height="3.96"/><rect class="cls-16" x="462.6" y="59.25" width="1.6" height="3.96"/><rect class="cls-16" x="465.22" y="59.25" width="1.6" height="3.96"/><rect class="cls-16" x="467.84" y="59.25" width="1.6" height="3.96"/><rect class="cls-16" x="470.48" y="59.25" width="1.6" height="3.96"/><rect class="cls-16" x="473.1" y="59.25" width="1.6" height="3.96"/><rect class="cls-16" x="475.72" y="59.25" width="1.6" height="3.96"/><rect class="cls-16" x="478.36" y="59.25" width="1.6" height="3.96"/><rect class="cls-16" x="480.98" y="59.25" width="1.6" height="3.96"/><rect class="cls-16" x="483.6" y="59.25" width="1.6" height="3.96"/><rect class="cls-17" x="456.83" y="48.22" width="26.04" height="7.91"/><rect class="cls-26" x="456.83" y="54.41" width="26.04" height="1.72"/><rect class="cls-26" x="456.83" y="48.22" width="26.04" height="1.72"/><rect class="cls-16" x="458.02" y="50.66" width="1.26" height="3.09"/><rect class="cls-16" x="460.07" y="50.66" width="1.26" height="3.09"/><rect class="cls-16" x="462.13" y="50.66" width="1.26" height="3.09"/><rect class="cls-16" x="464.18" y="50.66" width="1.26" height="3.09"/><rect class="cls-16" x="466.23" y="50.66" width="1.26" height="3.09"/><rect class="cls-16" x="468.29" y="50.66" width="1.26" height="3.09"/><rect class="cls-16" x="470.34" y="50.66" width="1.26" height="3.09"/><rect class="cls-16" x="472.39" y="50.66" width="1.26" height="3.09"/><rect class="cls-16" x="474.45" y="50.66" width="1.26" height="3.09"/><rect class="cls-16" x="476.5" y="50.66" width="1.26" height="3.09"/><rect class="cls-16" x="478.56" y="50.66" width="1.26" height="3.09"/><rect class="cls-16" x="480.61" y="50.66" width="1.26" height="3.09"/><path class="cls-17" d="M483.09,48.22a7.62,7.62,0,0,0,.19-2.69c-.6-5.31-6.59-9.28-13.43-9.28s-12.82,4-13.42,9.28a7.62,7.62,0,0,0,.19,2.69Z"/><path class="cls-26" d="M456.39,46.51a7.57,7.57,0,0,0,.23,1.71h26.47a7.57,7.57,0,0,0,.23-1.71Z"/><path class="cls-27" d="M467.73,30.31H472a1,1,0,0,0,.25-.61c0-.76-1.06-1.39-2.38-1.39s-2.38.63-2.38,1.39A.92.92,0,0,0,467.73,30.31Z"/><path class="cls-27" d="M471.24,22.2a1.4,1.4,0,1,1-1.52-1.27h.13a1.28,1.28,0,0,1,1.39,1.16Z"/><path class="cls-27" d="M471.24,25.9a1.4,1.4,0,1,1-1.52-1.27h.13a1.29,1.29,0,0,1,1.39,1.16Z"/><rect class="cls-17" x="467.73" y="30.25" width="4.26" height="0.73"/><rect class="cls-28" x="348.21" y="62.43" width="3.23" height="50.29"/><rect class="cls-29" x="348.21" y="62.43" width="3.23" height="21.81"/><path class="cls-30" d="M335.83,44.46h28a3.29,3.29,0,0,1,3.29,3.3V75.84a3.3,3.3,0,0,1-3.29,3.31h-28a3.31,3.31,0,0,1-3.3-3.31V47.76A3.3,3.3,0,0,1,335.83,44.46Z"/><path class="cls-31" d="M337.74,46.8h24.19a2.86,2.86,0,0,1,2.85,2.86V73.93a2.86,2.86,0,0,1-2.85,2.86H337.74a2.86,2.86,0,0,1-2.86-2.86V49.66A2.86,2.86,0,0,1,337.74,46.8Z"/><path class="cls-32" d="M351.39,72.1a1,1,0,0,0,.89,1H353a1,1,0,0,0,.88-1v-.53h-2.52Z"/><path class="cls-32" d="M341,72.1a.94.94,0,0,0,.87,1h.75a1,1,0,0,0,.88-1v-.53h-2.54Z"/><path class="cls-32" d="M354.06,64.43h0a36.75,36.75,0,0,0-2.31-5.31c-.55-.56-4.24-.47-4.24-.47s-3.69-.09-4.24.47A39.65,39.65,0,0,0,341,64.43a1.46,1.46,0,0,0-1.42,1.46v3.56A1.45,1.45,0,0,0,341,70.9h13.11a1.45,1.45,0,0,0,1.46-1.44h0V65.89a1.45,1.45,0,0,0-1.45-1.46Zm-11.58,5.49h-1.59v-.54h1.59Zm-.8-1.8A1.28,1.28,0,1,1,343,66.85s0,0,0,.06a1.21,1.21,0,0,1-1.2,1.21h-.07ZM351,66.75c0,1.08-3.53,1.36-3.53,1.36S344,67.83,344,66.75V65.68H351Zm-3.52-2.23h-5.54a36.74,36.74,0,0,1,2-4.56c.46-.47,3.58-.39,3.58-.39s3.12-.08,3.57.39a34.77,34.77,0,0,1,2,4.56Zm6.46,5.4h-1.58v-.54h1.58Zm-.92-1.8a1.28,1.28,0,1,1,1.28-1.27s0,0,0,.06a1.21,1.21,0,0,1-1.2,1.21H353Z"/><path class="cls-32" d="M360.92,58.78V57.65c0-.07,0-.12-.15-.12s-.16,0-.16.12v1.13h-.81V57.65c0-.07-.07-.12-.16-.12s-.15,0-.15.12v1.13h-.7V60.3a1.42,1.42,0,0,0,2.83.27,1.22,1.22,0,0,0,0-.27V58.78Z"/><polygon class="cls-32" points="359.87 67.98 355.96 67.98 355.96 68.67 360.48 68.67 360.48 62.33 359.87 62.33 359.87 67.98"/><path class="cls-32" d="M345,54.9V50.06h4.16v1.16h-2.55v.66h2.24V53h-2.36v.74h2.66V54.9Z"/><path class="cls-32" d="M353.12,54.9h-1.73l-1.7-4.84h1.65l1,3.23h0l1-3.23h1.59Z"/><rect class="cls-33" x="344.71" y="112.72" width="10.25" height="2.78" rx="1.17"/><path class="cls-34" d="M269.6,86.7c-1.12,1.18-2.32,2.56-4.08,2.56-2.54,0-4.29-2.7-5.24-5v29.35h11.06V84.83C270.8,85.47,270.19,86.07,269.6,86.7Z"/><polygon class="cls-34" points="260.62 71.76 260.62 85.75 265.8 89.55 270.98 85.75 270.98 71.76 260.62 71.76"/><path class="cls-35" d="M269.6,86.7c-1.12,1.18-2.31,2.56-4.06,2.56v24.35h4.77V86Z"/><polygon class="cls-35" points="269.54 71.76 265.54 71.76 265.54 89.35 265.8 89.55 269.54 86.79 269.54 71.76"/><path class="cls-36" d="M266.67,89a4.48,4.48,0,0,1-.64.08.67.67,0,0,1-.34.09h-.17a2,2,0,0,1-1.19-.35,3.59,3.59,0,0,1-.75-.46v25.21h4.58V88.22A2.67,2.67,0,0,1,266.67,89Z"/><polygon class="cls-36" points="264.16 71.76 264.16 88.22 265.8 89.55 267.46 88.22 267.46 71.76 264.16 71.76"/><rect class="cls-37" x="260.62" y="71.76" width="10.36" height="1.98"/><path class="cls-33" d="M271.38,84.22a.24.24,0,0,0-.24-.25.23.23,0,0,0-.22.13c-1.06,2-2.95,3.91-5.09,3.91s-4.05-1.89-5.09-3.83a.24.24,0,0,0-.46.11v1.28c.85,2.32,3,4.87,5.52,4.87s4.69-2.55,5.58-4.9Z"/><path class="cls-37" d="M267.13,80.54a1.28,1.28,0,1,1-1.28-1.28A1.28,1.28,0,0,1,267.13,80.54Z"/><path class="cls-33" d="M266.58,80.54a.78.78,0,0,1-.78.78.78.78,0,1,1,.78-.81Z"/><circle class="cls-33" cx="265.8" cy="111.49" r="0.45"/><rect class="cls-33" x="259.78" y="113.07" width="12.05" height="1.07"/><path class="cls-34" d="M305.28,86.7c-1.12,1.18-2.31,2.56-4.07,2.56-2.55,0-4.29-2.7-5.24-5v29.35H307V84.83C306.49,85.47,305.88,86.07,305.28,86.7Z"/><polygon class="cls-34" points="296.32 71.76 296.32 85.75 301.5 89.55 306.68 85.75 306.68 71.76 296.32 71.76"/><path class="cls-35" d="M305.28,86.7c-1.12,1.18-2.3,2.56-4.06,2.56v24.35H306V86A6.17,6.17,0,0,1,305.28,86.7Z"/><polygon class="cls-35" points="305.23 71.76 301.22 71.76 301.22 89.35 301.5 89.55 305.23 86.79 305.23 71.76"/><path class="cls-36" d="M302.35,89a3.87,3.87,0,0,1-.59.13.63.63,0,0,1-.35.09h-.16a1.9,1.9,0,0,1-1.2-.35,3.63,3.63,0,0,1-.84-.51v25.21h4.57V88.22A2.5,2.5,0,0,1,302.35,89Z"/><polygon class="cls-36" points="299.85 71.76 299.85 88.22 301.5 89.55 303.14 88.22 303.14 71.76 299.85 71.76"/><rect class="cls-37" x="296.31" y="71.76" width="10.36" height="1.98"/><path class="cls-33" d="M307.06,84.22a.23.23,0,0,0-.23-.25.22.22,0,0,0-.22.13c-1.06,2-3,3.91-5.1,3.91s-4.06-1.89-5.09-3.83a.24.24,0,0,0-.32-.11.23.23,0,0,0-.13.22v1.28c.85,2.32,3,4.87,5.53,4.87s4.67-2.55,5.56-4.9Z"/><path class="cls-37" d="M302.81,80.54a1.32,1.32,0,1,1-1.31-1.32A1.32,1.32,0,0,1,302.81,80.54Z"/><path class="cls-33" d="M302.27,80.54a.78.78,0,1,1-.78-.78h0a.77.77,0,0,1,.77.77Z"/><path class="cls-33" d="M301.93,111.49a.44.44,0,1,1-.87.15.38.38,0,0,1,0-.15.43.43,0,0,1,.51-.36A.42.42,0,0,1,301.93,111.49Z"/><rect class="cls-33" x="295.47" y="113.07" width="12.05" height="1.07"/><path class="cls-38" d="M277.07,117.39s-1.28,2,.75,2h59.11c1.28,0,1.86-2.09.47-2.45S278.68,116.84,277.07,117.39Z"/><path class="cls-39" d="M278.17,117.39h20s-3.52-12.77-10.89-10.88S277.58,112.44,278.17,117.39Z"/><path class="cls-39" d="M321.34,117.39h16.05s.49-12.77-6.88-10.88S320.85,112.44,321.34,117.39Z"/><path class="cls-40" d="M338.08,117.39a50.06,50.06,0,0,0-.42-12.47c-.64-3.5-1.36-7-4.57-8.46-8.5-4-29.09-1.78-34.36,0s-21.14,10.21-22.2,14.9a11.45,11.45,0,0,0,.43,6h2.75S278.56,110,288,110c0,0,7.17,0,7.17,7.37h28.88s-1.07-7.34,6.18-7.34c0,0,6.82-.29,6.2,7.34Z"/><ellipse class="cls-33" cx="287.3" cy="117.39" rx="5.66" ry="5.68"/><ellipse class="cls-41" cx="287.3" cy="117.39" rx="3.47" ry="3.48"/><ellipse class="cls-33" cx="330.25" cy="117.39" rx="5.66" ry="5.68"/><ellipse class="cls-41" cx="330.25" cy="117.39" rx="3.47" ry="3.48"/><path class="cls-42" d="M317,111a4.55,4.55,0,1,1-4.56-4.55h0A4.54,4.54,0,0,1,317,111Z"/><polygon class="cls-33" points="311.77 111.01 313.72 108.24 312 108.24 310.77 111.94 313.15 111.28 312.41 113 312.12 112.56 312.04 114.16 313.21 113.07 312.69 113.13 314.57 110.2 311.77 111.01"/><path class="cls-33" d="M287.3,105.22s10.18-6.28,15.07-7.31,24-1.86,26.95,0a8.34,8.34,0,0,1,3.35,5.68Z"/><path class="cls-43" d="M331.83,100.82a7,7,0,0,0-2.55-2.91c-2.95-1.86-22-1-26.95,0a42.61,42.61,0,0,0-9.24,4c1.4,0,7.79-1.49,9.15-1.71C319.24,97.4,331.12,100.66,331.83,100.82Z"/><path class="cls-33" d="M281.53,106.19a15.51,15.51,0,0,0-1.41.85,22,22,0,0,0-2.25,2.18s3.59.24,5.09-.83a2.12,2.12,0,0,0,.8-1.88.77.77,0,0,0-.82-.73h-.08A6.18,6.18,0,0,0,281.53,106.19Z"/><path class="cls-44" d="M281,106.49a8.49,8.49,0,0,0-1.06.6,17,17,0,0,0-1.61,1.57,7.57,7.57,0,0,0,3.67-.6,1.49,1.49,0,0,0,.59-1.28.56.56,0,0,0-.59-.53h-.06A3.8,3.8,0,0,0,281,106.49Z"/><polygon class="cls-40" points="312.7 96.43 310.86 104.7 312.7 104.7 314.09 96.43 312.7 96.43"/><rect class="cls-33" x="326.08" y="105.25" width="4.17" height="0.92"/><rect class="cls-33" x="304.37" y="105.71" width="4.17" height="0.92"/><path class="cls-35" d="M290.77,117.31a3.47,3.47,0,1,1-3.55-3.41h0A3.48,3.48,0,0,1,290.77,117.31Z"/><path class="cls-44" d="M288.77,117.41a1.55,1.55,0,1,1-1.59-1.51h0A1.54,1.54,0,0,1,288.77,117.41Z"/><path class="cls-45" d="M286,116.05l.63-1.7a3.1,3.1,0,0,0-2.28,2.11Z"/><path class="cls-45" d="M288.14,115.83l1.88.09a3,3,0,0,0-2.76-1.63h-.08Z"/><path class="cls-45" d="M285.58,118.13l-1.27-1a1,1,0,0,0,0,.35,3,3,0,0,0,1.27,2.38Z"/><path class="cls-45" d="M289,117.78l.48,1.77a3.1,3.1,0,0,0,.88-2.3,3.2,3.2,0,0,0-.18-1Z"/><path class="cls-45" d="M287.41,119.2l-1.41,1a3.09,3.09,0,0,0,3.09-.27Z"/><path class="cls-35" d="M333.73,117.32a3.48,3.48,0,1,1-6.93.53c0-.13,0-.26,0-.4a3.48,3.48,0,0,1,6.94-.13Z"/><path class="cls-44" d="M331.72,117.41a1.54,1.54,0,1,1-1.57-1.51,1.55,1.55,0,0,1,1.57,1.51Z"/><path class="cls-45" d="M329,116.06l.64-1.7a3.07,3.07,0,0,0-2.28,2.11Z"/><path class="cls-45" d="M331.09,115.84l1.89.08a3.08,3.08,0,0,0-2.77-1.63h-.07Z"/><path class="cls-45" d="M328.48,118.14l-1.27-1.06v.35a3.1,3.1,0,0,0,1.27,2.37Z"/><path class="cls-45" d="M332,117.78l.48,1.77a3.07,3.07,0,0,0,.9-2.24,3.53,3.53,0,0,0-.17-1Z"/><path class="cls-45" d="M330.37,119.21l-1.42.94a3.08,3.08,0,0,0,3.1-.26Z"/><path class="cls-46" d="M338,107.61a16.35,16.35,0,0,1,.2,2.21c-.19.34-2.88,0-2.88,0s-2-2.08-1.77-2.43S338,107.61,338,107.61Z"/><path class="cls-47" d="M299.3,116.74a2.9,2.9,0,0,1-2.81-2.3l-1.71-8,.64-.13,1.69,8a2.23,2.23,0,0,0,2.24,1.78l20.22-.45a1.83,1.83,0,0,0,1.7-1.28c.72-2.32,2.85-6.2,9-6.2h.2a1.87,1.87,0,0,0,1.82-1.74V104.7h.64a17.61,17.61,0,0,1,0,1.78,2.54,2.54,0,0,1-2.47,2.34c-5.92-.1-7.93,3.57-8.6,5.75a2.46,2.46,0,0,1-2.3,1.71l-20.23.46Z"/><path class="cls-48" d="M336.12,104a1.43,1.43,0,1,1-1.43-1.43,1.43,1.43,0,0,1,1.43,1.43Z"/><path class="cls-42" d="M335.6,104a.85.85,0,0,1-.85.85.86.86,0,0,1-.86-.85h0a.86.86,0,1,1,1.71,0Z"/><path class="cls-42" d="M351.14,88H307v1.13h44.11A1.84,1.84,0,0,1,353,91v24.27a1.77,1.77,0,0,1-1.76,1.78h-5.66a1.78,1.78,0,0,1-1.78-1.77v-8.93a2.93,2.93,0,0,0-2.91-2.89h-6.11v1.11h6.09a1.79,1.79,0,0,1,1.78,1.79h0v8.93a2.89,2.89,0,0,0,2.89,2.9h5.64a2.9,2.9,0,0,0,2.9-2.91V91.07A3,3,0,0,0,351.14,88Z"/><polygon class="cls-40" points="731.1 116.01 725.06 116.01 726.83 66.18 729.32 66.18 731.1 116.01"/><polygon class="cls-40" points="729.5 71.08 729.32 66.18 726.83 66.18 726.58 73.16 729.5 71.08"/><path class="cls-36" d="M729.93,65.38a1.86,1.86,0,1,1-1.86-1.87h0A1.85,1.85,0,0,1,729.93,65.38Z"/><path class="cls-49" d="M729.13,41.1a1.76,1.76,0,0,0-1-1.43h0c-.53,1.28-2.4,20.42-2.63,22.66a.49.49,0,0,0,.14.38l1.43,1.45a.44.44,0,0,0,.33.14h1.37a.44.44,0,0,0,.33-.14l1.44-1.45a.62.62,0,0,0,.08-.35C730.52,60.17,729.26,42.5,729.13,41.1Z"/><path class="cls-49" d="M706.63,76.67a1.72,1.72,0,0,0-.75,1.56h0c1.4-.18,18.82-8.11,20.88-9a.51.51,0,0,0,.26-.3l.54-2a.48.48,0,0,0,0-.37l-.68-1.19a.53.53,0,0,0-.28-.21l-2-.53a.51.51,0,0,0-.38.08C722.4,66,707.75,75.86,706.63,76.67Z"/><path class="cls-49" d="M749,77.85a1.79,1.79,0,0,0,1.72-.18h0c-.89-1.09-16.8-11.75-18.68-13a.51.51,0,0,0-.4-.06l-2,.57a.62.62,0,0,0-.28.23l-.65,1.28a.59.59,0,0,0,0,.37l.6,2a.55.55,0,0,0,.27.29C731.61,70,747.72,77.3,749,77.85Z"/><path class="cls-49" d="M732.11,64.64a.51.51,0,0,0-.4-.07l-1.8.54a1.86,1.86,0,0,0-.65-1.15l1.27-1.28a.61.61,0,0,0,.13-.32c-.16-2.13-1.42-19.79-1.54-21.2a1.76,1.76,0,0,0-1-1.43h0c-.53,1.28-2.4,20.43-2.63,22.66a.49.49,0,0,0,.14.38l1.27,1.28a1.83,1.83,0,0,0-.64,1.16l-1.7-.45a.51.51,0,0,0-.38.08c-1.77,1.2-16.38,11.1-17.54,11.92a1.72,1.72,0,0,0-.75,1.56h0c1.39-.18,18.68-8,20.86-9L725.06,116h6l-1.72-47a.57.57,0,0,0,.25.26c1.94.86,18.06,8.09,19.35,8.64a1.79,1.79,0,0,0,1.72-.18h0C749.9,76.56,734,65.9,732.11,64.64Z"/><polygon class="cls-40" points="709.61 116.01 702.73 116.01 704.74 59.31 707.6 59.31 709.61 116.01"/><polygon class="cls-40" points="707.79 64.89 707.6 59.31 704.74 59.31 704.46 67.25 707.79 64.89"/><ellipse class="cls-36" cx="706.17" cy="58.39" rx="2.11" ry="2.12"/><path class="cls-49" d="M707.38,30.76a2,2,0,0,0-1.11-1.62h0c-.61,1.48-2.73,23.2-3,25.78a.56.56,0,0,0,.15.44L705.05,57a.54.54,0,0,0,.39.17H707a.52.52,0,0,0,.38-.17L709,55.34a.46.46,0,0,0,.15-.4C708.94,52.46,707.52,32.37,707.38,30.76Z"/><path class="cls-49" d="M681.76,71.3a2,2,0,0,0-.85,1.77h0c1.59-.21,21.42-9.23,23.76-10.3a.52.52,0,0,0,.29-.34l.62-2.24a.47.47,0,0,0,0-.4l-.78-1.36a.49.49,0,0,0-.34-.25l-2.24-.59a.52.52,0,0,0-.43.08C699.72,59.05,683.07,70.33,681.76,71.3Z"/><path class="cls-49" d="M730,72.57a2,2,0,0,0,1.94-.2h0c-1-1.28-19.09-13.38-21.26-14.81a.59.59,0,0,0-.45-.07l-2.22.66a.52.52,0,0,0-.32.26l-.68,1.4a.58.58,0,0,0,0,.41l.69,2.22a.5.5,0,0,0,.29.33C710.19,63.74,728.53,72,730,72.57Z"/><path class="cls-50" d="M710.75,57.55a.53.53,0,0,0-.44-.07l-2.07.61a2.15,2.15,0,0,0-.72-1.28l1.5-1.5a.49.49,0,0,0,.15-.41c-.16-2.44-1.59-22.53-1.74-24.14a2,2,0,0,0-1.09-1.62h0c-.62,1.48-2.74,23.2-3,25.78a.56.56,0,0,0,.16.44l1.44,1.45a2.09,2.09,0,0,0-.73,1.28l-1.93-.5a.53.53,0,0,0-.44.08c-2,1.36-18.66,12.65-20,13.56A2,2,0,0,0,681,73h0c1.58-.22,21.26-9.15,23.74-10.29l-2,53.25h6.88l-1.86-53.5a.53.53,0,0,0,.27.28c2.22,1,20.56,9.2,22,9.84a2,2,0,0,0,2-.21h0C731,71.12,712.9,59,710.75,57.55Z"/><polygon class="cls-40" points="679.57 116.01 672.02 116.01 674.24 53.83 677.36 53.83 679.57 116.01"/><polygon class="cls-40" points="677.57 59.93 677.36 53.83 674.24 53.83 673.93 62.52 677.57 59.93"/><path class="cls-36" d="M678.11,52.8a2.32,2.32,0,1,1-2.33-2.31h0A2.31,2.31,0,0,1,678.11,52.8Z"/><path class="cls-49" d="M677.11,22.5a2.18,2.18,0,0,0-1.19-1.78h0c-.66,1.62-3,25.45-3.29,28.28a.64.64,0,0,0,.17.47l1.78,1.81a.56.56,0,0,0,.42.18h1.72a.56.56,0,0,0,.42-.18l1.78-1.82a.58.58,0,0,0,.17-.45C678.83,46.31,677.28,24.26,677.11,22.5Z"/><path class="cls-49" d="M649,66.91a2.17,2.17,0,0,0-.95,1.94h0c1.75-.23,23.5-10.12,26.08-11.3a.56.56,0,0,0,.32-.38l.67-2.45a.55.55,0,0,0-.06-.45l-.85-1.49a.61.61,0,0,0-.36-.27l-2.47-.65a.57.57,0,0,0-.47.09C668.71,53.52,650.48,65.9,649,66.91Z"/><path class="cls-49" d="M701.94,68.38a2.18,2.18,0,0,0,2.14-.22h0c-1.12-1.35-21-14.67-23.33-16.24a.52.52,0,0,0-.48-.07l-2.43.71a.65.65,0,0,0-.36.29l-.8,1.52a.58.58,0,0,0,0,.45l.76,2.44a.69.69,0,0,0,.32.37C680.21,58.68,700.33,67.69,701.94,68.38Z"/><rect class="cls-51" x="765.74" y="76.46" width="1.92" height="39.54"/><rect class="cls-52" x="764.61" y="114.41" width="4.19" height="1.6"/><rect class="cls-51" x="733.38" y="85.25" width="1.92" height="30.76"/><rect class="cls-52" x="732.25" y="114.41" width="4.19" height="1.6"/><rect class="cls-51" x="717.04" y="93.89" width="1.92" height="22.12"/><rect class="cls-52" x="715.91" y="114.41" width="4.19" height="1.6"/><rect class="cls-51" x="744.52" y="93.89" width="1.92" height="22.12"/><rect class="cls-52" x="743.38" y="114.41" width="4.19" height="1.6"/><path class="cls-53" d="M732.67,73.61l-21.1,22.44a.85.85,0,0,0,.62,1.44h36.46a4,4,0,0,0,3-1.28l21.06-22.36a.87.87,0,0,0-.06-1.23.85.85,0,0,0-.57-.22H735.62A4,4,0,0,0,732.67,73.61Z"/><path class="cls-54" d="M758.66,73.39a4,4,0,0,1-1,1.07l-.21.27a19.38,19.38,0,0,1-2.32,2.21,2,2,0,0,1-.69.38c-1.42,1.89-3.07,3.56-4.52,5.4a52.75,52.75,0,0,1-4.53,4.69,11,11,0,0,1-1.19,1.27c-.72.73-1.4,1.48-2,2.27-.29.29-.59.56-.9.82l-.42.45-.08.09c-.38.52-.76,1.06-1.17,1.52s-.9,1-1.39,1.44h0c-.12.11-1.16,1.06-1,.76a1.64,1.64,0,0,1-.14.22H750l21.24-22.82Z"/><path class="cls-53" d="M758.66,73.39a4,4,0,0,1-1,1.07l-.21.27a19.38,19.38,0,0,1-2.32,2.21,2,2,0,0,1-.69.38c-1.42,1.89-3.07,3.56-4.52,5.4-.42.53-.86,1-1.27,1.5h0l10.18-10.83Z"/><path class="cls-53" d="M747.47,85.34c-.69.69-1.39,1.27-2.08,2a11,11,0,0,1-1.19,1.27A30.6,30.6,0,0,0,742.11,91c-.29.29-.59.56-.9.82l-.42.45-.08.09c-.38.52-.76,1.06-1.17,1.52s-.9,1-1.39,1.44h0c-.12.11-1.16,1.06-1,.76a1.64,1.64,0,0,1-.14.22h.42l10.18-10.87Z"/><polygon class="cls-53" points="761.1 84.24 771.22 73.43 759.76 73.39 749.61 84.22 761.1 84.24"/><polygon class="cls-55" points="761.05 83.77 770.29 73.89 759.81 73.86 750.54 83.76 761.05 83.77"/><polygon class="cls-53" points="753.16 83.96 762.92 73.56 762.52 73.56 752.76 83.96 753.16 83.96"/><polygon class="cls-53" points="755.74 83.97 765.49 73.57 765.1 73.57 755.33 83.97 755.74 83.97"/><path class="cls-53" d="M768.28,76.4l.47-.49h-11a6.14,6.14,0,0,1-.51.51Z"/><path class="cls-53" d="M765.71,79.08l.48-.51h-11a4.09,4.09,0,0,1-.51.51Z"/><path class="cls-53" d="M763.15,81.71l.47-.51h-11a3.39,3.39,0,0,1-.49.51Z"/><polygon class="cls-53" points="758.31 83.97 768.06 73.57 767.67 73.57 757.92 83.97 758.31 83.97"/><polygon class="cls-53" points="749.98 96.25 760.13 85.4 748.63 85.39 738.43 96.25 749.98 96.25"/><polygon class="cls-55" points="749.91 95.78 759.2 85.88 748.69 85.85 739.37 95.78 749.91 95.78"/><polygon class="cls-53" points="742.01 95.98 751.81 85.54 751.4 85.54 741.61 95.98 742.01 95.98"/><polygon class="cls-53" points="744.59 95.98 754.38 85.56 753.99 85.54 744.2 95.98 744.59 95.98"/><path class="cls-53" d="M757.18,88.44l.47-.51h-11a3.08,3.08,0,0,1-.51.51Z"/><path class="cls-53" d="M754.6,91.08l.48-.51H744a3.08,3.08,0,0,1-.51.51Z"/><path class="cls-53" d="M752,93.71l.48-.51H741.44a6.14,6.14,0,0,1-.51.51Z"/><polygon class="cls-53" points="747.18 95.98 756.96 85.56 756.56 85.56 746.78 95.98 747.18 95.98"/><polygon class="cls-54" points="734.87 73.31 713.4 96.25 737.54 96.25 758.87 73.39 734.87 73.31"/><polygon class="cls-53" points="736.22 84.2 746.41 73.35 734.87 73.31 724.64 84.18 736.22 84.2"/><polygon class="cls-55" points="736.15 83.73 745.48 73.81 734.93 73.79 725.58 83.7 736.15 83.73"/><polygon class="cls-53" points="728.23 83.92 738.05 73.48 737.66 73.48 727.82 83.92 728.23 83.92"/><polygon class="cls-53" points="730.82 83.92 740.65 73.49 740.24 73.49 730.41 83.92 730.82 83.92"/><path class="cls-53" d="M743.45,76.4l.48-.51h-11.1a4,4,0,0,1-.49.51Z"/><path class="cls-53" d="M740.84,79l.48-.51h-11.1a3.08,3.08,0,0,1-.51.51Z"/><path class="cls-53" d="M738.29,81.66l.47-.51H727.67a4.91,4.91,0,0,1-.51.51Z"/><polygon class="cls-53" points="733.42 83.94 743.23 73.49 742.82 73.49 733.01 83.94 733.42 83.94"/><polygon class="cls-53" points="725.01 96.25 735.24 85.36 723.67 85.34 713.4 96.25 725.01 96.25"/><polygon class="cls-55" points="724.94 95.78 734.31 85.84 723.72 85.81 714.34 95.78 724.94 95.78"/><polygon class="cls-53" points="716.99 95.98 726.85 85.5 726.46 85.5 716.58 95.98 716.99 95.98"/><polygon class="cls-53" points="719.6 95.98 729.46 85.5 729.05 85.5 719.19 95.98 719.6 95.98"/><path class="cls-53" d="M732.26,88.41l.48-.51H721.62a4.09,4.09,0,0,1-.51.51Z"/><path class="cls-53" d="M729.66,91.06l.49-.51H719a4.09,4.09,0,0,1-.51.51Z"/><path class="cls-53" d="M727.07,93.7l.48-.51H716.41a4.1,4.1,0,0,1-.5.52Z"/><polygon class="cls-53" points="722.19 95.98 732.04 85.52 731.65 85.52 721.8 95.98 722.19 95.98"/><polygon class="cls-53" points="748.72 84.22 758.87 73.39 747.37 73.35 737.17 84.2 748.72 84.22"/><polygon class="cls-55" points="748.65 83.74 757.94 73.85 747.43 73.83 738.11 83.73 748.65 83.74"/><polygon class="cls-53" points="740.75 83.95 750.55 73.52 750.14 73.52 740.35 83.95 740.75 83.95"/><polygon class="cls-53" points="743.33 83.95 753.12 73.53 752.73 73.53 742.94 83.95 743.33 83.95"/><path class="cls-53" d="M755.92,76.4l.47-.51h-11a2.06,2.06,0,0,1-.51.51Z"/><path class="cls-53" d="M753.34,79.06l.48-.51H742.76a3.51,3.51,0,0,1-.51.51Z"/><path class="cls-53" d="M750.77,81.69l.48-.51H740.18a6.14,6.14,0,0,1-.51.51Z"/><polygon class="cls-53" points="745.92 83.95 755.7 73.53 755.3 73.53 745.52 83.95 745.92 83.95"/><polygon class="cls-53" points="737.54 96.25 747.75 85.38 736.21 85.36 725.97 96.25 737.54 96.25"/><polygon class="cls-55" points="737.49 95.78 746.81 85.85 736.26 85.84 726.91 95.78 737.49 95.78"/><polygon class="cls-53" points="729.56 95.98 739.39 85.53 738.99 85.53 729.15 95.98 729.56 95.98"/><polygon class="cls-53" points="732.16 95.98 741.97 85.53 741.58 85.53 731.75 95.98 732.16 95.98"/><path class="cls-53" d="M744.77,88.43l.48-.51H734.17a6.14,6.14,0,0,1-.51.51Z"/><path class="cls-53" d="M742.19,91.07l.48-.51h-11.1a3.51,3.51,0,0,1-.51.51Z"/><path class="cls-53" d="M739.57,93.71l.48-.51H728.94a4.81,4.81,0,0,1-.5.51Z"/><polygon class="cls-53" points="734.74 95.98 744.57 85.53 744.16 85.53 734.35 95.98 734.74 95.98"/><path class="cls-56" d="M669.57,115.17H659.46V88.82a5,5,0,0,1,5-5h.12a5,5,0,0,1,5,5Z"/><rect class="cls-57" x="658.33" y="113.56" width="12.35" height="2.44"/><ellipse class="cls-42" cx="664.5" cy="96.99" rx="3.31" ry="3.32"/><polygon class="cls-33" points="663.99 96.99 665.42 94.96 664.16 94.96 663.25 97.67 665 97.18 664.46 98.45 664.25 98.13 664.2 99.29 665.04 98.5 664.65 98.54 666.04 96.41 663.99 96.99"/><path class="cls-56" d="M687.49,115.17H677.38V88.82a5,5,0,0,1,5-5h.1a5,5,0,0,1,5,5Z"/><rect class="cls-57" x="676.25" y="113.56" width="12.35" height="2.44"/><ellipse class="cls-42" cx="682.43" cy="96.99" rx="3.31" ry="3.32"/><polygon class="cls-33" points="681.92 96.99 683.34 94.96 682.09 94.96 681.19 97.67 682.93 97.18 682.38 98.45 682.17 98.13 682.12 99.29 682.97 98.5 682.59 98.54 683.96 96.41 681.92 96.99"/><rect class="cls-58" x="227.39" y="128.54" width="14.64" height="3.19"/><rect class="cls-58" x="195.26" y="128.54" width="14.64" height="3.19"/><rect class="cls-58" x="163.14" y="128.54" width="14.64" height="3.19"/><rect class="cls-58" x="131.01" y="128.54" width="14.64" height="3.19"/><rect class="cls-58" x="98.89" y="128.54" width="14.64" height="3.19"/><rect class="cls-58" x="66.76" y="128.54" width="14.64" height="3.19"/><rect class="cls-58" x="34.64" y="128.54" width="14.64" height="3.19"/><rect class="cls-58" x="2.52" y="128.54" width="14.64" height="3.19"/><rect class="cls-58" x="259.51" y="128.54" width="14.64" height="3.19"/><rect class="cls-58" x="291.64" y="128.54" width="14.64" height="3.19"/><rect class="cls-58" x="323.76" y="128.54" width="14.64" height="3.19"/><rect class="cls-58" x="355.89" y="128.54" width="14.64" height="3.19"/><rect class="cls-58" x="388.01" y="128.54" width="14.64" height="3.19"/><rect class="cls-58" x="420.14" y="128.54" width="14.64" height="3.19"/><rect class="cls-58" x="452.26" y="128.54" width="14.64" height="3.19"/><rect class="cls-58" x="484.39" y="128.54" width="14.64" height="3.19"/><rect class="cls-58" x="516.51" y="128.54" width="14.64" height="3.19"/><rect class="cls-58" x="548.64" y="128.54" width="14.64" height="3.19"/><rect class="cls-58" x="580.76" y="128.54" width="14.64" height="3.19"/><rect class="cls-58" x="612.89" y="128.54" width="14.64" height="3.19"/><rect class="cls-58" x="645.01" y="128.54" width="14.64" height="3.19"/><rect class="cls-58" x="677.14" y="128.54" width="14.64" height="3.19"/><rect class="cls-58" x="709.26" y="128.54" width="14.64" height="3.19"/><rect class="cls-58" x="804.68" y="128.54" width="14.64" height="3.19"/><rect class="cls-58" x="833.22" y="128.54" width="14.64" height="3.19"/><rect class="cls-58" x="861.76" y="128.54" width="14.64" height="3.19"/><rect class="cls-58" x="890.3" y="128.54" width="14.64" height="3.19"/><rect class="cls-58" x="918.84" y="128.54" width="14.64" height="3.19"/><rect class="cls-58" x="947.38" y="128.54" width="14.64" height="3.19"/><rect class="cls-58" x="975.92" y="128.54" width="14.64" height="3.19"/><rect class="cls-58" x="1004.46" y="128.54" width="14.64" height="3.19"/><rect class="cls-58" x="741.81" y="128.54" width="14.64" height="3.19"/><rect class="cls-58" x="774.34" y="128.54" width="14.64" height="3.19"/><path class="cls-38" d="M468.05,119.66s-1.21,2,.75,2h58.67c1.27,0,1.85-2.09.47-2.45S469.66,119.11,468.05,119.66Z"/><path class="cls-39" d="M469.15,119.66H489s-3.49-12.76-10.8-10.78S468.59,114.7,469.15,119.66Z"/><path class="cls-39" d="M512,119.66H527.9s.49-12.76-6.83-10.78S511.45,114.7,512,119.66Z"/><path class="cls-59" d="M528.6,119.66a49.81,49.81,0,0,0-.4-12.38c-.64-3.46-1.37-6.88-4.55-8.39-8.42-4-28.88-1.76-34.06,0s-21,10.13-22,14.78a11.31,11.31,0,0,0,.45,6h2.72s-1.14-7.3,8.25-7.3c0,0,7.1,0,7.1,7.3H514.7s-1.05-7.27,6.14-7.27c0,0,6.77-.3,6.15,7.27Z"/><path class="cls-33" d="M483.83,119.66a5.62,5.62,0,1,1-5.61-5.63,5.62,5.62,0,0,1,5.61,5.63Z"/><path class="cls-41" d="M481.65,119.66a3.45,3.45,0,1,1-3.46-3.45h0A3.45,3.45,0,0,1,481.65,119.66Z"/><path class="cls-33" d="M526.46,119.66a5.63,5.63,0,1,1-5.63-5.63h0A5.63,5.63,0,0,1,526.46,119.66Z"/><path class="cls-41" d="M524.29,119.66a3.45,3.45,0,1,1-3.46-3.45h0A3.46,3.46,0,0,1,524.29,119.66Z"/><ellipse class="cls-42" cx="503.19" cy="113.33" rx="4.51" ry="4.52"/><polygon class="cls-33" points="502.5 113.33 504.43 110.58 502.73 110.58 501.49 114.26 503.86 113.6 503.14 115.31 502.83 114.87 502.77 116.47 503.93 115.37 503.4 115.42 505.27 112.53 502.5 113.33"/><path class="cls-33" d="M478.22,107.6s10.06-6.24,14.94-7.26,23.84-1.85,26.72,0a8.29,8.29,0,0,1,3.33,5.62Z"/><path class="cls-43" d="M522.4,103.21a6.9,6.9,0,0,0-2.54-2.89c-2.93-1.85-21.89-1-26.73,0a41.83,41.83,0,0,0-9.2,4c1.4,0,7.73-1.48,9.09-1.7C509.91,99.83,521.7,103.07,522.4,103.21Z"/><path class="cls-33" d="M472.49,108.56a12.69,12.69,0,0,0-1.48.83,23.92,23.92,0,0,0-2.22,2.17s3.56.24,5.09-.82a2.09,2.09,0,0,0,.79-1.86.77.77,0,0,0-.77-.75l-.13,0A5.79,5.79,0,0,0,472.49,108.56Z"/><path class="cls-60" d="M472,108.85a10.83,10.83,0,0,0-1.05.59,17.88,17.88,0,0,0-1.59,1.55,7.5,7.5,0,0,0,3.65-.58,1.48,1.48,0,0,0,.57-1.28.56.56,0,0,0-.6-.52h-.05A3.84,3.84,0,0,0,472,108.85Z"/><polygon class="cls-59" points="503.42 98.87 501.58 107.06 503.42 107.06 504.79 98.87 503.42 98.87"/><rect class="cls-33" x="516.69" y="107.61" width="4.15" height="0.91"/><rect class="cls-33" x="495.14" y="108.07" width="4.15" height="0.91"/><path class="cls-35" d="M481.65,119.6a3.45,3.45,0,1,1-3.51-3.4,3.45,3.45,0,0,1,3.51,3.4Z"/><path class="cls-44" d="M479.67,119.69a1.54,1.54,0,0,1-1.49,1.57h0a1.43,1.43,0,1,1,1.5-1.46Z"/><path class="cls-45" d="M477,118.33l.62-1.67a3.05,3.05,0,0,0-2.27,2.08Z"/><path class="cls-45" d="M479,118.12l1.87.09a3,3,0,0,0-2.73-1.63h-.09Z"/><path class="cls-45" d="M476.51,120.4l-1.27-1.05a2,2,0,0,0,0,.35,3,3,0,0,0,1.21,2.37Z"/><path class="cls-45" d="M479.93,120.06l.49,1.74a3,3,0,0,0,.89-2.22,3,3,0,0,0-.17-1Z"/><path class="cls-45" d="M478.33,121.46l-1.41.93a3.12,3.12,0,0,0,1.37.31,3.06,3.06,0,0,0,1.7-.56Z"/><path class="cls-35" d="M524.29,119.6a3.45,3.45,0,1,1-3.53-3.39h0A3.46,3.46,0,0,1,524.29,119.6Z"/><path class="cls-44" d="M522.3,119.7a1.54,1.54,0,1,1-1.57-1.51h0a1.53,1.53,0,0,1,1.56,1.5Z"/><path class="cls-45" d="M519.58,118.35l.62-1.69a3.05,3.05,0,0,0-2.25,2.09Z"/><path class="cls-45" d="M521.68,118.13l1.87.08a3,3,0,0,0-2.75-1.61h-.08Z"/><path class="cls-45" d="M519.13,120.4l-1.27-1v.33a3.14,3.14,0,0,0,1.27,2.39Z"/><path class="cls-45" d="M522.53,120.06l.49,1.74a3,3,0,0,0,.71-3.17Z"/><path class="cls-45" d="M521,121.47l-1.4.93a3,3,0,0,0,3.07-.26Z"/><path class="cls-46" d="M528.54,110a17.69,17.69,0,0,1,.22,2.18c-.2.36-2.87,0-2.87,0s-2-2-1.75-2.4S528.54,110,528.54,110Z"/><path class="cls-61" d="M490.12,119a2.87,2.87,0,0,1-2.8-2.28l-1.7-8,.63-.14,1.69,8a2.21,2.21,0,0,0,2.23,1.76l20.07-.45a1.79,1.79,0,0,0,1.69-1.27c.71-2.31,2.83-6.15,8.91-6.15h.2a1.86,1.86,0,0,0,1.81-1.73v-1.71h.64v1.76a2.48,2.48,0,0,1-2.45,2.33c-5.86-.09-7.86,3.53-8.54,5.7a2.4,2.4,0,0,1-2.24,1.67l-20.07.45Z"/><path class="cls-38" d="M793.1,134s1.27,1.95-.76,1.95h-59c-1.27,0-1.84-2.1-.47-2.46S791.48,133.41,793.1,134Z"/><path class="cls-39" d="M792,134H772s3.51-12.77,10.87-10.85S792.55,129,792,134Z"/><path class="cls-39" d="M748.93,134H733s-.48-12.77,6.87-10.85S749.49,129,748.93,134Z"/><path class="cls-62" d="M732.26,134a50.39,50.39,0,0,1,.41-12.45c.63-3.48,1.36-6.91,4.57-8.42,8.46-4,29-1.77,34.21,0s21.07,10.21,22.13,14.86a11.38,11.38,0,0,1-.43,6h-2.68s1.15-7.34-8.29-7.34c0,0-7.14,0-7.14,7.34H746.23s1.06-7.32-6.17-7.32c0,0-6.81-.29-6.17,7.32Z"/><path class="cls-33" d="M777.25,134a5.64,5.64,0,1,0,5.64-5.67,5.65,5.65,0,0,0-5.64,5.67Z"/><ellipse class="cls-41" cx="782.89" cy="133.97" rx="3.46" ry="3.47"/><path class="cls-33" d="M734.47,134a5.66,5.66,0,1,0,5.66-5.67,5.66,5.66,0,0,0-5.66,5.67Z"/><path class="cls-41" d="M736.6,134a3.46,3.46,0,1,0,3.46-3.47A3.46,3.46,0,0,0,736.6,134Z"/><ellipse class="cls-42" cx="757.79" cy="127.6" rx="4.53" ry="4.54"/><polygon class="cls-33" points="757.09 127.6 759.04 124.83 757.32 124.83 756.09 128.53 758.47 127.87 757.74 129.59 757.43 129.16 757.37 130.75 758.53 129.65 758.01 129.71 759.89 126.8 757.09 127.6"/><path class="cls-33" d="M782.84,121.84s-10.18-6.28-15-7.3-23.94-1.86-26.88,0a8.32,8.32,0,0,0-3.35,5.67Z"/><path class="cls-43" d="M738.5,117.44a6.92,6.92,0,0,1,2.54-2.9c2.94-1.86,22-1,26.88,0a42.87,42.87,0,0,1,9.2,4c-1.4,0-7.76-1.49-9.12-1.71C751,114,739.18,117.25,738.5,117.44Z"/><path class="cls-33" d="M788.64,122.8a16.48,16.48,0,0,1,1.48.83,27.1,27.1,0,0,1,2.24,2.18s-3.58.26-5.09-.81a2.08,2.08,0,0,1-.81-1.88.74.74,0,0,1,.75-.73h.15A5.76,5.76,0,0,1,788.64,122.8Z"/><path class="cls-60" d="M789.2,123.09a10,10,0,0,1,1.06.6,19.63,19.63,0,0,1,1.6,1.56,7.53,7.53,0,0,1-3.66-.59,1.47,1.47,0,0,1-.58-1.27.55.55,0,0,1,.57-.53h.07A4.3,4.3,0,0,1,789.2,123.09Z"/><polygon class="cls-62" points="757.56 113.07 759.41 121.31 757.56 121.31 756.17 113.07 757.56 113.07"/><rect class="cls-33" x="740.06" y="121.86" width="4.16" height="0.92"/><rect class="cls-33" x="761.71" y="122.32" width="4.16" height="0.92"/><path class="cls-35" d="M779.43,133.84a3.46,3.46,0,1,0,3.52-3.41,3.46,3.46,0,0,0-3.52,3.41Z"/><path class="cls-44" d="M781.42,134a1.54,1.54,0,1,0,1.54-1.54A1.55,1.55,0,0,0,781.42,134Z"/><path class="cls-45" d="M784.11,132.63l-.62-1.69a3.09,3.09,0,0,1,2.27,2.1Z"/><path class="cls-45" d="M782.05,132.41l-1.89.09a3.08,3.08,0,0,1,2.77-1.63H783Z"/><path class="cls-45" d="M784.61,134.7l1.27-1a1.93,1.93,0,0,1,0,.34,3.08,3.08,0,0,1-1.21,2.39Z"/><path class="cls-45" d="M781.2,134.35l-.49,1.76a3,3,0,0,1-.9-2.23,3.2,3.2,0,0,1,.18-1Z"/><path class="cls-45" d="M782.84,135.77l1.41.94a3.11,3.11,0,0,1-1.37.3,3,3,0,0,1-1.71-.57Z"/><path class="cls-35" d="M736.6,133.84a3.46,3.46,0,1,0,3.54-3.39h0a3.44,3.44,0,0,0-3.53,3.35Z"/><path class="cls-44" d="M738.6,134a1.51,1.51,0,0,0,1.46,1.57h0a1.54,1.54,0,1,0-1.5-1.58Z"/><path class="cls-45" d="M741.32,132.63l-.62-1.69a3.09,3.09,0,0,1,2.26,2.11Z"/><path class="cls-45" d="M739.22,132.42l-1.88.08a3,3,0,0,1,2.76-1.62h.08Z"/><path class="cls-45" d="M741.77,134.71l1.27-1.05V134a3.1,3.1,0,0,1-1.27,2.38Z"/><path class="cls-45" d="M738.37,134.36l-.5,1.75a3.09,3.09,0,0,1-.85-2.27,2.69,2.69,0,0,1,.18-1Z"/><path class="cls-45" d="M740,135.78l1.41.93a3,3,0,0,1-3.09-.25Z"/><path class="cls-46" d="M732.32,124.22a16.07,16.07,0,0,0-.21,2.19c.19.35,2.87,0,2.87,0s2-2.07,1.77-2.41S732.32,124.22,732.32,124.22Z"/><path class="cls-47" d="M770.92,133.32a2.91,2.91,0,0,0,2.82-2.3l1.69-8-.64-.13-1.69,8a2.21,2.21,0,0,1-2.23,1.78l-20.17-.45a1.8,1.8,0,0,1-1.69-1.28c-.73-2.32-2.85-6.17-9-6.17h-.2A1.88,1.88,0,0,1,738,123v-1.71h-.64v1.77a2.56,2.56,0,0,0,2.46,2.34c5.89-.09,7.9,3.56,8.58,5.73a2.42,2.42,0,0,0,2.29,1.72l20.16.46Z"/><ellipse class="cls-42" cx="530.29" cy="24.67" rx="13.91" ry="13.95"/><path class="cls-63" d="M657.67,15a3.18,3.18,0,0,1-.58.23l.58-.23c1-.48,2-1.41.82-2.09a2.62,2.62,0,0,0-2.78.46,3.49,3.49,0,0,1-.52.43,3.6,3.6,0,0,1,.52-.43,11.48,11.48,0,0,0,.95-1.14,1.87,1.87,0,0,0-.17-2.64,1.8,1.8,0,0,0-.59-.36,3.83,3.83,0,0,0-4.23,1.28,5.75,5.75,0,0,0-.91,3c0-.73,0-2.12-1.76-2s-1.39,1.91-1.39,2.86h0a4.18,4.18,0,0,0-1.91-3.63,3.76,3.76,0,0,0-3-.26,1.86,1.86,0,0,0-1.42,2.2.56.56,0,0,0,0,.12,4.83,4.83,0,0,0,1.74,2,14.94,14.94,0,0,0-2.36-.81c-1.59-.27-4.16-.36-5.19.83s.46,2.85,3.41,2.93l20.44.1c1.56,0,3.82-.67,3.48-2.12S659.5,14.41,657.67,15Z"/><path class="cls-63" d="M780.62,28.69a4,4,0,0,1-.56.25,4,4,0,0,1,.56-.25c1-.48,2-1.41.84-2.09a2.62,2.62,0,0,0-2.78.46,3.12,3.12,0,0,1-.53.43,4.33,4.33,0,0,1,.53-.43,11.48,11.48,0,0,0,1-1.14,1.89,1.89,0,0,0-.2-2.66,2.15,2.15,0,0,0-.56-.34,3.83,3.83,0,0,0-4.23,1.28,5.86,5.86,0,0,0-.92,3c0-.73,0-2.12-1.75-2s-1.39,1.91-1.4,2.86h0a4.19,4.19,0,0,0-1.9-3.63,3.72,3.72,0,0,0-3-.25,1.84,1.84,0,0,0-1.43,2.15c0,.06,0,.11,0,.16a5,5,0,0,0,1.73,2,13.78,13.78,0,0,0-2.34-.81c-1.59-.27-4.16-.36-5.19.83s.46,2.85,3.41,2.93l20.43.1c1.55,0,3.82-.67,3.49-2.12S782.46,28.08,780.62,28.69Z"/><path class="cls-63" d="M286.93,30.89a3.88,3.88,0,0,1-.56.23,3,3,0,0,1,.56-.23c1-.49,2-1.43.84-2.09a2.62,2.62,0,0,0-2.79.44,3.67,3.67,0,0,1-.52.44,4.32,4.32,0,0,1,.52-.44,12.87,12.87,0,0,0,1-1.12,1.88,1.88,0,0,0-.18-2.65,1.85,1.85,0,0,0-.59-.35A3.8,3.8,0,0,0,281,26.33a5.76,5.76,0,0,0-.92,3c0-.73,0-2.12-1.75-2s-1.39,1.91-1.4,2.87h0A4.22,4.22,0,0,0,275,26.63a3.72,3.72,0,0,0-3-.25,1.82,1.82,0,0,0-1.43,2.15c0,.06,0,.11,0,.16a4.94,4.94,0,0,0,1.73,2,13.79,13.79,0,0,0-2.44-.84c-1.59-.28-4.16-.36-5.19.82s.45,2.87,3.41,2.93l20.36.1c1.57,0,3.88-.67,3.49-2.11S288.76,30.26,286.93,30.89Z"/><path class="cls-63" d="M617.92,30.76a6.07,6.07,0,0,1-.83.35,6.65,6.65,0,0,1,.83-.35c1.44-.7,2.89-2.07,1.27-3a3.81,3.81,0,0,0-4.06.67,4.57,4.57,0,0,1-.76.62,5.57,5.57,0,0,1,.76-.62,16.85,16.85,0,0,0,1.39-1.65,2.72,2.72,0,0,0-.26-3.85,2.61,2.61,0,0,0-.86-.52,5.46,5.46,0,0,0-6.15,1.78,8.36,8.36,0,0,0-1.33,4.42c0-1.06,0-3.08-2.55-2.91s-2,2.76-2,4.16h0c0-.54-.14-4-2.78-5.31a5.39,5.39,0,0,0-4.34-.35,2.65,2.65,0,0,0-2.09,3.11,1,1,0,0,0,.06.25,7.22,7.22,0,0,0,2.54,3,21.51,21.51,0,0,0-3.41-1.19c-2.31-.39-6.07-.51-7.56,1.22s.66,4.16,5,4.26c2.83.08,26.89.15,29.73.15,2.26,0,5.63-1,5.09-3.09C625,30,620.59,29.87,617.92,30.76Z"/><path class="cls-63" d="M414.68,28.18a5.85,5.85,0,0,1-.82.33,5.85,5.85,0,0,1,.82-.33c1.43-.7,2.89-2.07,1.28-3.05a3.8,3.8,0,0,0-4.06.67,4.57,4.57,0,0,1-.76.62,7.6,7.6,0,0,1,.76-.62,18.47,18.47,0,0,0,1.4-1.65,2.75,2.75,0,0,0-.26-3.86,3,3,0,0,0-.86-.51A5.47,5.47,0,0,0,406,21.52a8.39,8.39,0,0,0-1.28,4.42c0-1.06,0-3.08-2.54-2.91s-2,2.78-2,4.17h0c0-.55-.12-4-2.77-5.31a5.43,5.43,0,0,0-4.34-.36,2.66,2.66,0,0,0-2.09,3.12,1.82,1.82,0,0,0,.07.25,7.12,7.12,0,0,0,2.4,3A22,22,0,0,0,390,26.71c-2.32-.39-6.06-.52-7.55,1.2s.66,4.17,5,4.28c2.83.06,26.9.15,29.73.15,2.26,0,5.64-1,5.09-3.1C421.73,27.43,417.34,27.28,414.68,28.18Z"/></g></svg>